<?xml version="1.0" encoding="UTF-8"?>
<svg xmlns="http://www.w3.org/2000/svg" xmlns:xlink="http://www.w3.org/1999/xlink" width="512px" height="512px" viewBox="0 0 512 512" version="1.1">
<g id="surface1">
<path style=" stroke:none;fill-rule:nonzero;fill:rgb(99.607843%,99.607843%,99.607843%);fill-opacity:1;" d="M 212.660156 510.160156 C 112.667969 491.980469 32.3125 414.761719 10.292969 315.558594 C 3.921875 287.359375 3.425781 230.160156 9.304688 203.359375 C 20.019531 154.558594 42.4375 112.558594 75.96875 78.359375 C 111.480469 41.960938 149.972656 20.160156 201.953125 6.761719 C 216.457031 3.039062 224.371094 2.441406 258.496094 2.441406 C 292.621094 2.441406 300.558594 3.042969 315.039062 6.761719 C 415.230469 32.359375 486.257812 104.960938 507.886719 203.359375 C 511.714844 220.921875 512.46875 229.960938 512.367188 258.359375 C 512.28125 287.761719 511.558594 295.359375 507.113281 314.558594 C 489.652344 389.761719 440.648438 452.761719 372.992188 487.160156 C 355.535156 496.039062 323.394531 506.558594 302.5625 510.160156 C 280.539062 514.019531 234.707031 513.941406 213.082031 510.023438 Z M 212.660156 510.160156 "/>
<path style=" stroke:none;fill-rule:nonzero;fill:rgb(98.823529%,98.431373%,98.431373%);fill-opacity:1;" d="M 238.453125 454.160156 C 193.414062 442.800781 153.339844 400.960938 114.253906 324.761719 C 58.503906 215.960938 51.359375 116.761719 97.050781 86.761719 C 112.707031 77 135.542969 77.359375 155.777344 87.644531 C 167.007812 93.367188 170.203125 96.964844 176.609375 111.046875 C 184.488281 128.386719 187.5625 148.246094 188.890625 190.246094 L 190.117188 228.847656 L 196.425781 214.265625 C 199.898438 206.246094 206.902344 192.464844 212 183.464844 C 217.101562 174.566406 221.285156 164.847656 221.285156 161.867188 C 221.285156 158.90625 219.0625 151.164062 216.328125 144.625 C 211.246094 132.464844 210.433594 125.867188 212.597656 114.824219 C 213.835938 108.585938 213.847656 108.566406 226.980469 108.566406 L 240.113281 108.558594 L 248.308594 97.878906 C 257.554688 85.796875 275.488281 71.078125 290.964844 63.078125 C 299.933594 58.398438 303.761719 57.636719 318.34375 57.636719 C 333.382812 57.636719 336.359375 58.277344 344.929688 63.320312 C 350.207031 66.4375 354.09375 69.417969 353.578125 69.9375 C 353.0625 70.457031 347.488281 69.367188 341.160156 67.519531 C 325.40625 62.898438 309.613281 64.558594 293.542969 72.519531 C 255.449219 91.398438 216.761719 162.519531 231.839844 185.71875 C 233.886719 188.878906 238.863281 191.699219 246.046875 193.796875 C 257.710938 197.21875 263.347656 196.320312 253.605469 192.582031 C 233.171875 184.761719 237.398438 166.183594 267.296875 132.382812 L 284.339844 113.121094 L 283.210938 102.101562 C 282.1875 92.121094 282.5 90.84375 286.542969 88.664062 C 292.097656 85.664062 301.164062 87.355469 307.769531 92.640625 C 314.039062 97.621094 333.5625 98.082031 350.03125 93.660156 C 356.023438 92.035156 366.496094 90.699219 373.242188 90.679688 C 384.789062 90.65625 385.683594 90.992188 386.851562 95.660156 C 387.539062 98.402344 387.59375 101.980469 386.976562 103.601562 C 386.359375 105.21875 387.726562 110.800781 390.011719 116.019531 C 395.148438 127.742188 397.074219 155.421875 393.800781 170.621094 C 392.535156 176.582031 387.96875 188.78125 383.644531 197.820312 C 372.832031 220.21875 372.414062 223.621094 378.625 238.421875 C 389.277344 263.820312 397.054688 312.421875 395.050781 340.621094 C 394.457031 348.921875 391.597656 367.421875 388.683594 381.621094 C 383.128906 409.019531 383.5625 418.621094 390.667969 424.621094 C 392.296875 425.988281 393.640625 429.980469 393.640625 433.5 C 393.640625 440.941406 388.085938 446.921875 377.96875 450.320312 C 368.484375 453.519531 348.011719 453.160156 338.089844 449.597656 C 326.246094 445.378906 316.464844 445.859375 308.332031 451.042969 C 302.21875 454.945312 298.3125 455.523438 275.59375 455.964844 C 258.074219 456.296875 246.03125 455.515625 238.097656 453.523438 Z M 208.296875 383.761719 C 190.65625 331.558594 196.132812 272.960938 224.347656 211.960938 L 232.835938 193.640625 L 223.75 185.679688 L 215.792969 203 C 183.457031 273.398438 178.496094 335.398438 201.667969 381.601562 C 207.800781 393.839844 213.355469 403.398438 214.386719 403.398438 C 214.660156 403.398438 211.925781 394.621094 208.316406 383.898438 Z M 360.070312 208.761719 L 364.238281 198.261719 L 363.332031 207 C 362.820312 211.980469 363.175781 215 364.160156 214 C 365.78125 212.363281 376.003906 186.601562 376.003906 184 C 376.003906 183.378906 373.304688 185.164062 369.992188 187.960938 C 363.859375 193.160156 352.847656 197.179688 344.597656 197.199219 C 340.429688 197.210938 340.152344 197.859375 341.300781 204.71875 C 343.5625 218.261719 344.160156 219.21875 350.152344 219.21875 C 355.152344 219.21875 356.339844 217.960938 360.011719 208.71875 Z M 360.070312 208.761719 "/>
<path style=" stroke:none;fill-rule:nonzero;fill:rgb(98.431373%,98.431373%,98.431373%);fill-opacity:1;" d="M 238.453125 454.160156 C 193.414062 442.800781 153.339844 400.960938 114.253906 324.761719 C 71.597656 241.359375 56.914062 164.160156 74.574219 116.761719 C 87.269531 82.558594 121.199219 70.761719 155.917969 88.359375 C 167.148438 94.078125 170.339844 97.679688 176.75 111.761719 C 184.625 129.101562 187.703125 148.960938 189.03125 190.960938 L 190.257812 229.558594 L 196.566406 214.980469 C 200.039062 206.960938 207.042969 193.179688 212.140625 184.179688 C 217.238281 175.28125 221.425781 165.558594 221.425781 162.578125 C 221.425781 159.621094 219.203125 151.878906 216.464844 145.339844 C 211.386719 133.179688 210.574219 126.578125 212.734375 115.539062 C 213.972656 109.300781 213.988281 109.28125 227.121094 109.28125 L 240.253906 109.273438 L 248.449219 98.59375 C 257.691406 86.511719 275.628906 71.792969 291.101562 63.792969 C 300.070312 59.113281 303.898438 58.351562 318.484375 58.351562 C 333.519531 58.351562 336.496094 58.992188 345.066406 64.03125 C 350.34375 67.152344 354.234375 70.132812 353.71875 70.652344 C 353.203125 71.171875 347.628906 70.082031 341.296875 68.230469 C 325.546875 63.613281 309.753906 65.273438 293.683594 73.230469 C 255.589844 92.113281 216.902344 163.230469 231.980469 186.433594 C 234.023438 189.59375 239.003906 192.414062 246.1875 194.511719 C 257.851562 197.933594 263.484375 197.03125 253.746094 193.296875 C 233.308594 185.476562 237.535156 166.894531 267.433594 133.097656 L 284.476562 113.835938 L 283.347656 102.816406 C 282.328125 92.835938 282.640625 91.554688 286.679688 89.375 C 292.234375 86.375 301.304688 88.070312 307.910156 93.355469 C 314.179688 98.335938 333.703125 98.796875 350.167969 94.375 C 356.160156 92.75 366.636719 91.414062 373.382812 91.394531 C 384.929688 91.371094 385.820312 91.703125 386.992188 96.375 C 387.675781 99.113281 387.730469 102.695312 387.113281 104.3125 C 386.5 105.933594 387.863281 111.515625 390.152344 116.734375 C 395.289062 128.453125 397.214844 156.132812 393.941406 171.335938 C 392.675781 177.292969 388.105469 189.496094 383.78125 198.535156 C 372.96875 220.933594 372.550781 224.335938 378.761719 239.132812 C 389.417969 264.535156 397.195312 313.132812 395.191406 341.335938 C 394.597656 349.632812 391.738281 368.132812 388.820312 382.335938 C 383.265625 409.734375 383.703125 419.335938 390.804688 425.335938 C 392.4375 426.699219 393.78125 430.695312 393.78125 434.214844 C 393.78125 441.65625 388.226562 447.632812 378.109375 451.035156 C 368.625 454.234375 348.148438 453.875 338.230469 450.3125 C 326.386719 446.09375 316.605469 446.574219 308.46875 451.757812 C 302.359375 455.660156 298.449219 456.238281 275.734375 456.679688 C 258.214844 457.011719 246.171875 456.230469 238.234375 454.238281 Z M 208.296875 383.761719 C 190.65625 331.558594 196.132812 272.960938 224.347656 211.960938 L 232.835938 193.640625 L 223.75 185.679688 L 215.792969 203 C 183.457031 273.398438 178.496094 335.398438 201.667969 381.601562 C 207.800781 393.839844 213.355469 403.398438 214.386719 403.398438 C 214.660156 403.398438 211.925781 394.621094 208.316406 383.898438 Z M 360.070312 208.761719 L 364.238281 198.261719 L 363.332031 207 C 362.820312 211.980469 363.175781 215 364.160156 214 C 365.78125 212.363281 376.003906 186.601562 376.003906 184 C 376.003906 183.378906 373.304688 185.164062 369.992188 187.960938 C 363.859375 193.160156 352.847656 197.179688 344.597656 197.199219 C 340.429688 197.210938 340.152344 197.859375 341.300781 204.71875 C 343.5625 218.261719 344.160156 219.21875 350.152344 219.21875 C 355.152344 219.21875 356.339844 217.960938 360.011719 208.71875 Z M 360.070312 208.761719 "/>
<path style=" stroke:none;fill-rule:nonzero;fill:rgb(62.745098%,51.764706%,43.921569%);fill-opacity:1;" d="M 238.453125 454.160156 C 213.851562 447.941406 184.6875 427.960938 163.855469 402.960938 C 128.933594 361.160156 91.636719 286.558594 76.160156 228.160156 C 70.605469 206.960938 69.734375 200.160156 68.898438 170.761719 C 68.0625 140.960938 68.410156 135.960938 72.09375 123.558594 C 77.09375 106.941406 82.628906 98.359375 93.71875 89.761719 C 109.769531 77.421875 133.597656 76.761719 155.820312 88.042969 C 167.046875 93.761719 170.242188 97.363281 176.652344 111.441406 C 184.527344 128.78125 187.601562 148.640625 188.929688 190.640625 L 190.15625 229.242188 L 196.464844 214.660156 C 199.9375 206.640625 206.941406 192.863281 212.039062 183.863281 C 217.140625 174.960938 221.324219 165.242188 221.324219 162.261719 C 221.324219 159.300781 219.105469 151.5625 216.367188 145.023438 C 211.285156 132.863281 210.472656 126.261719 212.636719 115.222656 C 213.875 108.980469 213.886719 108.960938 227.019531 108.960938 L 240.152344 108.953125 L 248.347656 98.273438 C 257.59375 86.195312 275.527344 71.472656 291.003906 63.472656 C 299.972656 58.792969 303.800781 58.035156 318.382812 58.035156 C 333.421875 58.035156 336.398438 58.671875 344.96875 63.714844 C 350.246094 66.835938 354.136719 69.8125 353.621094 70.335938 C 353.101562 70.855469 347.527344 69.761719 341.199219 67.914062 C 325.445312 63.292969 309.652344 64.953125 293.582031 72.914062 C 255.492188 91.792969 216.800781 162.914062 231.882812 186.113281 C 233.925781 189.273438 238.90625 192.09375 246.085938 194.195312 C 257.753906 197.613281 263.386719 196.714844 253.644531 192.976562 C 233.210938 185.160156 237.4375 166.578125 267.335938 132.777344 L 284.378906 113.519531 L 283.25 102.5 C 282.226562 92.519531 282.539062 91.238281 286.582031 89.058594 C 292.136719 86.058594 301.203125 87.753906 307.8125 93.039062 C 314.082031 98.019531 333.601562 98.476562 350.070312 94.054688 C 356.0625 92.433594 366.535156 91.097656 373.28125 91.078125 C 384.828125 91.054688 385.722656 91.386719 386.894531 96.054688 C 387.578125 98.796875 387.632812 102.375 387.015625 103.996094 C 386.398438 105.617188 387.765625 111.195312 390.050781 116.417969 C 395.191406 128.136719 397.113281 155.816406 393.839844 171.015625 C 392.574219 176.976562 388.007812 189.175781 383.683594 198.214844 C 372.871094 220.617188 372.453125 224.015625 378.664062 238.816406 C 389.316406 264.214844 397.09375 312.816406 395.089844 341.015625 C 394.496094 349.316406 391.636719 367.816406 388.722656 382.015625 C 383.167969 409.417969 383.601562 419.015625 390.707031 425.015625 C 392.335938 426.382812 393.683594 430.375 393.683594 433.894531 C 393.683594 441.335938 388.125 447.316406 378.007812 450.714844 C 368.523438 453.917969 348.050781 453.554688 338.128906 449.996094 C 326.285156 445.773438 316.503906 446.253906 308.371094 451.441406 C 302.257812 455.339844 298.351562 455.921875 275.632812 456.359375 C 258.117188 456.691406 246.074219 455.914062 238.136719 453.921875 Z M 208.296875 383.761719 C 190.65625 331.558594 196.132812 272.960938 224.347656 211.960938 L 232.835938 193.640625 L 223.75 185.679688 L 215.792969 203 C 183.457031 273.398438 178.496094 335.398438 201.667969 381.601562 C 207.800781 393.839844 213.355469 403.398438 214.386719 403.398438 C 214.660156 403.398438 211.925781 394.621094 208.316406 383.898438 Z M 360.070312 208.761719 L 364.238281 198.261719 L 363.332031 207 C 362.820312 211.980469 363.175781 215 364.160156 214 C 365.78125 212.363281 376.003906 186.601562 376.003906 184 C 376.003906 183.378906 373.304688 185.164062 369.992188 187.960938 C 363.859375 193.160156 352.847656 197.179688 344.597656 197.199219 C 340.429688 197.210938 340.152344 197.859375 341.300781 204.71875 C 343.5625 218.261719 344.160156 219.21875 350.152344 219.21875 C 355.152344 219.21875 356.339844 217.960938 360.011719 208.71875 Z M 360.070312 208.761719 "/>
<path style=" stroke:none;fill-rule:nonzero;fill:rgb(27.058824%,20.784314%,18.431373%);fill-opacity:1;" d="M 238.453125 454.160156 C 194.011719 441.878906 153.339844 397.960938 115.046875 321.160156 C 82.707031 256.359375 69.019531 204.761719 71.199219 157.359375 C 73 118.558594 83.859375 97.160156 106.714844 87.160156 C 119.53125 81.601562 137.863281 82.339844 152.941406 89.023438 C 170.460938 96.742188 176.75 105.664062 184.089844 132.824219 C 187.503906 145.5625 188.355469 156.222656 189.1875 195.222656 L 190.195312 242.222656 L 193.609375 232.222656 C 197.355469 221.265625 211.265625 192.625 218.40625 181.425781 C 225.09375 170.742188 225.648438 160.222656 220.144531 148.222656 C 217.210938 141.863281 215.523438 134.464844 215.523438 127.824219 C 215.492188 111.742188 216.015625 111.183594 231.097656 111.042969 L 244.269531 110.929688 L 251.730469 101.050781 C 260.898438 88.929688 278.117188 75.050781 293.792969 67.050781 C 303.8125 61.96875 307.71875 61.109375 320.574219 61.191406 C 332.855469 61.265625 337.28125 62.207031 344.582031 66.308594 C 349.503906 69.070312 351.722656 70.769531 349.542969 70.070312 C 321.371094 61.109375 296.570312 67.769531 272.5625 90.871094 C 242.804688 119.269531 222.566406 167.671875 232.484375 186.671875 C 236.277344 194.070312 235.421875 194.789062 229.925781 188.828125 L 226.039062 184.609375 L 222.167969 192.328125 C 213.519531 209.570312 199.75 247.328125 194.589844 268.128906 C 189.871094 287.171875 189.136719 294.128906 189.15625 319.128906 C 189.191406 345.128906 189.742188 349.730469 194.492188 364.128906 C 200.859375 383.410156 216.910156 410.730469 224.847656 415.53125 C 225.980469 416.222656 224.730469 408.53125 222.070312 398.429688 C 216.316406 376.628906 215.007812 339.230469 219.550781 326.230469 L 222.269531 318.46875 L 228.378906 329.230469 C 238.835938 347.671875 269.050781 374.828125 282.9375 378.429688 C 293.296875 381.050781 293.058594 367.410156 282.207031 338.03125 C 272.84375 312.628906 270.976562 303.03125 270.898438 279.03125 C 270.824219 255.230469 273.773438 244.429688 287.246094 219.828125 C 296.453125 202.929688 297.105469 195.628906 291.234375 176.828125 C 289.070312 169.851562 287.285156 162.988281 287.265625 161.589844 C 287.253906 160.179688 291.929688 162.554688 297.664062 166.871094 C 312.304688 177.910156 331.589844 187.269531 342.5 188.46875 C 350.59375 189.4375 352.660156 188.878906 358.09375 184.269531 C 364.859375 178.53125 372.519531 160.871094 372.519531 151.070312 C 372.519531 147.808594 373.371094 145.148438 374.414062 145.148438 C 376.992188 145.148438 379.054688 157.308594 378.144531 166.949219 L 377.386719 174.929688 L 382.882812 169.609375 C 385.917969 166.691406 390.183594 159.730469 392.40625 154.171875 L 396.414062 144.050781 L 395.757812 161.109375 C 395.164062 176.550781 394.214844 180.070312 385.796875 198.308594 C 380.105469 210.589844 376.492188 221.109375 376.492188 225.511719 C 376.492188 229.488281 379.171875 239.488281 382.445312 247.710938 C 396.390625 282.910156 400.101562 337.109375 391.371094 377.910156 C 384.765625 408.710938 384.84375 418.910156 391.695312 427.109375 C 396.019531 432.289062 396.652344 434.371094 395.167969 438.550781 C 392.410156 446.371094 384.511719 451.089844 369.96875 453.589844 C 358.046875 455.648438 355.40625 455.441406 343.183594 451.46875 C 325.945312 445.871094 321.957031 445.949219 310.648438 452.066406 C 301.996094 456.707031 299.457031 457.046875 274.9375 456.886719 C 259.460938 456.78125 244.582031 455.589844 238.828125 454.007812 Z M 356.699219 220.160156 C 358.410156 218.785156 360.84375 215.859375 362.132812 213.660156 C 364.335938 209.859375 364.394531 209.878906 363.238281 214.160156 C 361.414062 220.878906 365.660156 219.640625 369.390625 212.335938 C 373.972656 203.394531 380.339844 184.132812 379.132812 182.933594 C 378.570312 182.371094 375.660156 184.261719 372.683594 187.132812 C 366.015625 193.535156 358.339844 196.613281 349.074219 196.613281 L 342.011719 196.613281 L 342.957031 206.554688 C 344.320312 220.875 349.503906 225.953125 356.765625 220.113281 Z M 353.367188 129.960938 C 333.328125 120.460938 328.566406 107.160156 342.453125 100.359375 C 351.519531 95.898438 375.785156 91.738281 382.726562 93.5 C 387.488281 94.707031 388.144531 95.820312 388.144531 102.898438 C 388.144531 116.660156 375.84375 134.898438 366.519531 134.699219 C 364.757812 134.691406 358.839844 132.558594 353.386719 129.960938 Z M 285.710938 118.21875 C 288.050781 114.578125 288.191406 112.140625 286.378906 105.378906 C 282.234375 89.878906 291.777344 86.441406 311.378906 96.378906 L 322.507812 102.039062 L 312.03125 105.359375 C 306.277344 107.191406 297.90625 111.839844 293.441406 115.699219 C 284.039062 123.820312 281.65625 124.601562 285.765625 118.21875 Z M 285.710938 118.21875 "/>
</g>
</svg>
