<?xml version="1.0" encoding="UTF-8"?>
<svg xmlns="http://www.w3.org/2000/svg" xmlns:xlink="http://www.w3.org/1999/xlink" width="512px" height="512px" viewBox="0 0 512 512" version="1.1">
<g id="surface1">
<path style=" stroke:none;fill-rule:evenodd;fill:rgb(4.705882%,62.745098%,80.784314%);fill-opacity:1;" d="M -0.601562 -0.601562 C 170.070312 -0.601562 340.734375 -0.601562 511.398438 -0.601562 C 511.398438 170.070312 511.398438 340.734375 511.398438 511.398438 C 340.734375 511.398438 170.070312 511.398438 -0.601562 511.398438 C -0.601562 340.734375 -0.601562 170.070312 -0.601562 -0.601562 Z M -0.601562 -0.601562 "/>
<path style=" stroke:none;fill-rule:evenodd;fill:rgb(99.607843%,99.607843%,99.607843%);fill-opacity:1;" d="M 349.90625 61.605469 C 379.699219 59.453125 399.039062 72.613281 407.925781 101.085938 C 412.28125 125.539062 406.695312 147.46875 391.179688 166.878906 C 380.121094 180.328125 367.558594 192.089844 353.496094 202.171875 C 338.089844 215.226562 328.71875 231.769531 325.386719 251.816406 C 323.53125 263.628906 321.734375 275.390625 320 287.105469 C 311.625 287.898438 303.25 287.898438 294.878906 287.105469 C 291.71875 273.191406 283.746094 263.21875 270.953125 257.195312 C 246.828125 253.121094 232.074219 263.085938 226.691406 287.105469 C 217.921875 287.898438 209.144531 287.898438 200.375 287.105469 C 196.679688 268.261719 185.320312 257.691406 166.28125 255.398438 C 147.273438 257.65625 135.910156 268.226562 132.183594 287.105469 C 123.121094 288.074219 114.144531 287.875 105.269531 286.503906 C 96.414062 248.816406 101.199219 212.925781 119.625 178.839844 C 127.328125 167.546875 136.304688 157.378906 146.539062 148.335938 C 148.136719 147.539062 149.730469 147.539062 151.324219 148.335938 C 157.660156 158.804688 163.839844 169.375 169.871094 180.035156 C 178.210938 190.394531 188.773438 193.785156 201.570312 190.203125 C 217.484375 181.953125 232.039062 171.785156 245.234375 159.699219 C 246.628906 153.121094 244.035156 150.53125 237.460938 151.925781 C 225.621094 162.960938 212.460938 172.128906 197.980469 179.441406 C 188.488281 182.164062 181.511719 179.175781 177.046875 170.464844 C 170.664062 159.304688 164.285156 148.136719 157.90625 136.96875 C 155.269531 130.421875 156.265625 124.441406 160.894531 119.03125 C 199.230469 97.890625 239.105469 94.5 280.523438 108.859375 C 301.515625 118.761719 322.648438 128.328125 343.925781 137.570312 C 361.234375 141.976562 373.796875 136.191406 381.605469 120.226562 C 386.570312 103.230469 381.183594 90.671875 365.460938 82.539062 C 354.589844 79.285156 344.425781 80.679688 334.953125 86.730469 C 330.230469 84.996094 326.839844 81.804688 324.785156 77.160156 C 325.234375 74.90625 326.429688 73.109375 328.375 71.773438 C 335.144531 67.335938 342.320312 63.945312 349.90625 61.605469 Z M 349.90625 61.605469 "/>
<path style=" stroke:none;fill-rule:evenodd;fill:rgb(15.686275%,65.098039%,81.960784%);fill-opacity:1;" d="M 306.839844 146.539062 C 312.15625 148.070312 315.746094 151.460938 317.605469 156.710938 C 316.910156 161.015625 314.515625 163.011719 310.429688 162.691406 C 305.785156 160.976562 301.800781 158.386719 298.464844 154.914062 C 300.15625 150.839844 302.945312 148.046875 306.839844 146.539062 Z M 306.839844 146.539062 "/>
<path style=" stroke:none;fill-rule:evenodd;fill:rgb(99.215686%,99.607843%,99.607843%);fill-opacity:1;" d="M 342.730469 306.839844 C 349.109375 306.839844 355.488281 306.839844 361.871094 306.839844 C 361.871094 348.308594 361.871094 389.78125 361.871094 431.25 C 356.625 431.640625 351.441406 431.246094 346.320312 430.054688 C 345.78125 426.25 344.183594 423.058594 341.535156 420.484375 C 327.335938 434.171875 311.785156 435.964844 294.878906 425.871094 C 283.21875 409.839844 279.828125 392.09375 284.710938 372.636719 C 292.023438 348.941406 307.78125 339.964844 331.964844 345.71875 C 335.074219 346.773438 337.671875 348.570312 339.738281 351.105469 C 340.535156 350.304688 341.335938 349.511719 342.128906 348.710938 C 342.730469 334.761719 342.929688 320.804688 342.730469 306.839844 Z M 342.730469 306.839844 "/>
<path style=" stroke:none;fill-rule:evenodd;fill:rgb(99.607843%,100%,99.607843%);fill-opacity:1;" d="M 384.601562 306.839844 C 390.980469 306.839844 397.359375 306.839844 403.738281 306.839844 C 403.738281 348.308594 403.738281 389.78125 403.738281 431.25 C 397.359375 431.25 390.980469 431.25 384.601562 431.25 C 384.601562 389.78125 384.601562 348.308594 384.601562 306.839844 Z M 384.601562 306.839844 "/>
<path style=" stroke:none;fill-rule:evenodd;fill:rgb(99.215686%,99.607843%,99.607843%);fill-opacity:1;" d="M 117.828125 371.441406 C 118.210938 388.28125 117.808594 405.03125 116.636719 421.679688 C 91.054688 435.300781 65.136719 435.898438 38.878906 423.476562 C 20.113281 410.878906 10.546875 393.136719 10.171875 370.246094 C 12.480469 329.851562 33.816406 309.113281 74.171875 308.035156 C 89.710938 307.640625 103.671875 312.023438 116.035156 321.195312 C 116.15625 326.371094 114.363281 330.953125 110.65625 334.953125 C 108.261719 335.75 105.871094 335.75 103.476562 334.953125 C 86.003906 324.035156 68.058594 323.234375 49.644531 332.558594 C 34.609375 345.800781 29.230469 362.351562 33.496094 382.203125 C 41.128906 409.070312 58.875 420.035156 86.730469 415.105469 C 90.988281 414.21875 94.78125 412.425781 98.09375 409.71875 C 98.890625 402.941406 98.890625 396.160156 98.09375 389.386719 C 97.496094 388.785156 96.894531 388.183594 96.300781 387.589844 C 91.113281 387.191406 85.929688 386.789062 80.75 386.394531 C 79.59375 381.53125 79.195312 376.546875 79.550781 371.441406 C 92.308594 371.441406 105.070312 371.441406 117.828125 371.441406 Z M 117.828125 371.441406 "/>
<path style=" stroke:none;fill-rule:evenodd;fill:rgb(99.607843%,99.607843%,99.607843%);fill-opacity:1;" d="M 174.054688 343.925781 C 178.53125 343.613281 182.914062 344.015625 187.214844 345.121094 C 188.285156 351.070312 188.285156 357.054688 187.214844 363.066406 C 173.71875 359.304688 163.949219 363.691406 157.90625 376.226562 C 157.308594 394.566406 157.109375 412.90625 157.308594 431.25 C 150.929688 431.25 144.550781 431.25 138.171875 431.25 C 138.171875 402.539062 138.171875 373.828125 138.171875 345.121094 C 142.96875 344.925781 147.753906 345.125 152.523438 345.71875 C 153.925781 349.714844 155.519531 353.503906 157.308594 357.085938 C 162.28125 351.683594 167.863281 347.300781 174.054688 343.925781 Z M 174.054688 343.925781 "/>
<path style=" stroke:none;fill-rule:evenodd;fill:rgb(99.215686%,99.607843%,99.607843%);fill-opacity:1;" d="M 224.300781 343.925781 C 237.308594 341.691406 248.675781 344.875 258.394531 353.496094 C 262.796875 359.523438 265.183594 366.304688 265.570312 373.828125 C 266.171875 392.96875 266.371094 412.109375 266.171875 431.25 C 261.765625 431.449219 257.378906 431.25 253.011719 430.65625 C 251.339844 427.414062 249.34375 424.425781 247.03125 421.679688 C 232.625 433.761719 217.070312 435.554688 200.375 427.066406 C 188.914062 406.105469 194.894531 392.550781 218.320312 386.394531 C 226.960938 384.273438 235.730469 383.078125 244.636719 382.804688 C 248.585938 373.878906 246.589844 366.304688 238.65625 360.074219 C 234.78125 358.441406 230.789062 358.039062 226.691406 358.878906 C 220.179688 361.136719 213.800781 363.730469 207.550781 366.65625 C 203.285156 365.148438 200.496094 362.160156 199.179688 357.679688 C 199.894531 355.761719 201.09375 354.171875 202.765625 352.894531 C 209.636719 348.855469 216.808594 345.863281 224.300781 343.925781 Z M 224.300781 343.925781 "/>
<path style=" stroke:none;fill-rule:evenodd;fill:rgb(99.215686%,99.607843%,99.607843%);fill-opacity:1;" d="M 456.375 343.925781 C 489.230469 342.671875 503.183594 358.023438 498.246094 389.980469 C 480.300781 390.378906 462.355469 390.78125 444.410156 391.179688 C 442.144531 393.339844 441.546875 395.933594 442.613281 398.953125 C 447.304688 413.988281 457.476562 420.171875 473.121094 417.496094 C 477.949219 416.421875 482.339844 414.425781 486.28125 411.515625 C 494.265625 410.328125 498.054688 413.71875 497.644531 421.679688 C 485.011719 430.988281 470.855469 434.378906 455.179688 431.851562 C 438.238281 427.675781 427.675781 417.109375 423.476562 400.148438 C 420.566406 386.25 422.554688 373.089844 429.460938 360.675781 C 436.300781 351.574219 445.273438 345.988281 456.375 343.925781 Z M 456.375 343.925781 "/>
<path style=" stroke:none;fill-rule:evenodd;fill:rgb(10.196078%,63.529412%,81.176471%);fill-opacity:1;" d="M 322.394531 358.28125 C 340.21875 359.589844 346.601562 368.960938 341.535156 386.394531 C 345.984375 403.851562 339.40625 414.019531 321.796875 416.894531 C 315.570312 416.664062 310.785156 413.875 307.441406 408.523438 C 301.550781 394.75 301.949219 381.191406 308.636719 367.851562 C 312.171875 362.886719 316.753906 359.695312 322.394531 358.28125 Z M 322.394531 358.28125 "/>
<path style=" stroke:none;fill-rule:evenodd;fill:rgb(14.117647%,64.705882%,81.568627%);fill-opacity:1;" d="M 458.765625 358.28125 C 472.429688 357.023438 480.203125 363.003906 482.09375 376.226562 C 481.496094 376.820312 480.894531 377.421875 480.300781 378.019531 C 468.734375 378.816406 457.171875 378.816406 445.605469 378.019531 C 444.578125 377.195312 443.785156 376.199219 443.214844 375.03125 C 446.023438 367.039062 451.210938 361.460938 458.765625 358.28125 Z M 458.765625 358.28125 "/>
<path style=" stroke:none;fill-rule:evenodd;fill:rgb(43.529412%,78.039216%,88.627451%);fill-opacity:1;" d="M 117.828125 371.441406 C 118.628906 379.605469 119.03125 387.980469 119.03125 396.558594 C 119.023438 405.375 118.226562 413.746094 116.636719 421.679688 C 117.808594 405.03125 118.210938 388.28125 117.828125 371.441406 Z M 117.828125 371.441406 "/>
<path style=" stroke:none;fill-rule:evenodd;fill:rgb(13.72549%,64.705882%,81.568627%);fill-opacity:1;" d="M 242.246094 394.171875 C 245.25 396.246094 246.445312 399.234375 245.828125 403.140625 C 246.398438 407.078125 245.203125 410.269531 242.246094 412.710938 C 235.109375 418.816406 227.136719 420.410156 218.320312 417.496094 C 211.941406 411.910156 211.941406 406.328125 218.320312 400.75 C 226.128906 397.40625 234.101562 395.210938 242.246094 394.171875 Z M 242.246094 394.171875 "/>
</g>
</svg>
