<?xml version="1.0" encoding="UTF-8"?>
<svg xmlns="http://www.w3.org/2000/svg" xmlns:xlink="http://www.w3.org/1999/xlink" width="512px" height="512px" viewBox="0 0 512 256" version="1.1">
<g id="surface1">
<path style=" stroke:none;fill-rule:nonzero;fill:rgb(34.901961%,40%,42.352941%);fill-opacity:1;" d="M 38.398438 106.097656 L 63.640625 62.382812 L 88.882812 106.097656 L 63.632812 149.882812 Z M 38.398438 106.097656 "/>
<path style=" stroke:none;fill-rule:nonzero;fill:rgb(73.72549%,68.235294%,47.45098%);fill-opacity:1;" d="M 139.390625 106.097656 L 114.132812 62.378906 L 63.660156 62.378906 L 88.898438 106.09375 Z M 139.390625 106.097656 "/>
<path style=" stroke:none;fill-rule:nonzero;fill:rgb(34.901961%,40%,42.352941%);fill-opacity:1;" d="M 164.609375 149.902344 L 139.363281 193.621094 L 114.121094 149.90625 L 139.371094 106.121094 Z M 164.609375 149.902344 "/>
<path style=" stroke:none;fill-rule:nonzero;fill:rgb(73.72549%,68.235294%,47.45098%);fill-opacity:1;" d="M 63.617188 149.902344 L 88.875 193.613281 L 139.347656 193.613281 L 114.109375 149.898438 Z M 63.617188 149.902344 "/>
<path style=" stroke:none;fill-rule:nonzero;fill:rgb(34.901961%,40%,42.352941%);fill-opacity:1;" d="M 193.058594 147.050781 L 199.203125 147.050781 L 199.203125 129.972656 L 217.183594 129.972656 L 217.183594 147.050781 L 223.265625 147.050781 L 223.265625 109.003906 L 217.183594 109.003906 L 217.183594 124.730469 L 199.203125 124.730469 L 199.203125 109.003906 L 193.058594 109.003906 Z M 234.753906 147.050781 L 240.894531 147.050781 L 240.894531 109.003906 L 234.753906 109.003906 Z M 277.6875 135.550781 C 277.6875 131.605469 275.375 127.871094 270.417969 126.875 L 270.417969 126.757812 C 274.308594 125.40625 276.902344 121.96875 276.902344 118.078125 C 276.902344 112.21875 272.617188 108.839844 264.332031 108.839844 L 252.386719 109.007812 L 252.386719 147.054688 L 262.753906 147.226562 C 274.421875 147.226562 277.6875 140.519531 277.6875 135.554688 Z M 270.433594 119.039062 C 270.433594 122.871094 267.449219 125.183594 261.753906 125.183594 C 260.457031 125.183594 259.503906 125.183594 258.488281 125.128906 L 258.488281 113.855469 L 263.277344 113.746094 C 268.6875 113.746094 270.433594 115.941406 270.433594 119.042969 Z M 271.167969 135.667969 C 271.167969 139.5 268.523438 142.203125 262.933594 142.203125 C 260.960938 142.203125 259.433594 142.089844 258.484375 141.921875 L 258.484375 129.804688 C 259.328125 129.75 261.300781 129.75 261.921875 129.75 C 267.277344 129.75 271.164062 131.328125 271.164062 135.667969 Z M 292.863281 114.132812 L 306.785156 114.132812 L 306.785156 109.003906 L 286.71875 109.003906 L 286.71875 147.050781 L 306.785156 147.050781 L 306.785156 141.800781 L 292.90625 141.800781 L 292.90625 129.960938 L 306.152344 129.960938 L 306.152344 124.945312 L 292.90625 124.945312 Z M 342.378906 147.050781 L 332.351562 133.800781 L 329.140625 129.75 C 335.339844 129.074219 339.902344 125.183594 339.902344 119.09375 C 339.902344 111.542969 334.492188 108.777344 326.601562 108.777344 L 316.359375 109.003906 L 316.359375 147.050781 L 322.503906 147.050781 L 322.503906 130.59375 L 322.785156 130.59375 L 334.621094 147.050781 Z M 333.472656 119.769531 C 333.472656 123.546875 330.488281 126.085938 325.523438 126.085938 C 324.527344 126.089844 323.53125 126.054688 322.539062 125.972656 L 322.539062 113.910156 L 325.75 113.800781 C 330.878906 113.800781 333.429688 115.605469 333.429688 119.773438 Z M 333.472656 119.769531 "/>
<path style=" stroke:none;fill-rule:nonzero;fill:rgb(73.72549%,68.235294%,47.45098%);fill-opacity:1;" d="M 380.800781 147.050781 L 380.800781 109.003906 L 374.828125 109.003906 L 374.828125 120.320312 L 375.222656 138.410156 L 370.601562 129.785156 L 358.03125 109.046875 L 349.925781 109.046875 L 349.925781 147.09375 L 355.898438 147.09375 L 355.898438 134.292969 L 355.558594 117.441406 L 359.824219 125.445312 L 372.839844 147.089844 Z M 421.425781 147.050781 L 407.621094 109.003906 L 400.792969 109.003906 L 387.152344 147.050781 L 393.351562 147.050781 L 396.285156 138.652344 L 411.667969 138.652344 L 414.601562 147.050781 Z M 410.042969 133.746094 L 397.867188 133.746094 L 402.152344 121.972656 C 402.882812 119.941406 403.503906 117.859375 403.855469 115.9375 L 403.96875 115.9375 C 404.386719 117.929688 404.949219 119.890625 405.65625 121.800781 Z M 420.125 114.1875 L 430.554688 114.1875 L 430.554688 147.050781 L 436.699219 147.050781 L 436.699219 114.1875 L 447.179688 114.1875 L 447.179688 109.003906 L 420.128906 109.003906 Z M 459.679688 114.132812 L 473.601562 114.132812 L 473.601562 109.003906 L 453.535156 109.003906 L 453.535156 147.050781 L 473.601562 147.050781 L 473.601562 141.800781 L 459.679688 141.800781 L 459.679688 129.960938 L 472.921875 129.960938 L 472.921875 124.945312 L 459.679688 124.945312 Z M 459.679688 114.132812 "/>
</g>
</svg>
