<?xml version="1.0" encoding="UTF-8"?>
<!DOCTYPE svg PUBLIC "-//W3C//DTD SVG 1.1//EN" "http://www.w3.org/Graphics/SVG/1.1/DTD/svg11.dtd">
<svg xmlns="http://www.w3.org/2000/svg" version="1.1" width="512px" height="512px" style="shape-rendering:geometricPrecision; text-rendering:geometricPrecision; image-rendering:optimizeQuality; fill-rule:evenodd; clip-rule:evenodd" xmlns:xlink="http://www.w3.org/1999/xlink">
<g><path style="opacity:0.993" fill="#dc524a" d="M 335.5,34.5 C 335.5,53.5 335.5,72.5 335.5,91.5C 279.833,91.5 224.167,91.5 168.5,91.5C 168.5,95.8333 168.5,100.167 168.5,104.5C 165.876,133.486 163.376,162.486 161,191.5C 159.942,210.519 158.942,229.519 158,248.5C 165.76,253.122 173.593,257.456 181.5,261.5C 211.756,252.57 242.09,252.403 272.5,261C 293.945,270.205 304.945,286.538 305.5,310C 304.278,349.389 283.945,370.223 244.5,372.5C 233.148,372.627 221.815,372.294 210.5,371.5C 190.185,368.505 170.852,362.505 152.5,353.5C 152.44,352.957 152.107,352.624 151.5,352.5C 150.501,368.152 150.167,383.819 150.5,399.5C 150.5,421.833 150.5,444.167 150.5,466.5C 82.662,431.341 40.4954,376.007 24,300.5C 11.7635,225.42 29.4302,158.753 77,100.5C 81.7158,97.4513 85.3824,93.4513 88,88.5C 96.4546,80.4787 105.288,72.9787 114.5,66C 180.614,19.5907 252.614,8.25733 330.5,32C 332.452,32.3661 334.118,33.1995 335.5,34.5 Z"/></g>
<g><path style="opacity:0.992" fill="#25a162" d="M 335.5,34.5 C 395.273,56.7716 439.439,96.4383 468,153.5C 506.038,241.065 497.371,323.399 442,400.5C 438.607,403.229 435.94,406.563 434,410.5C 429.092,413.738 425.259,417.905 422.5,423C 417.573,425.591 413.573,429.258 410.5,434C 406.563,435.94 403.229,438.607 400.5,442C 333.309,491.143 259.642,503.477 179.5,479C 169.807,474.819 160.141,470.652 150.5,466.5C 150.5,444.167 150.5,421.833 150.5,399.5C 150.833,399.5 151.167,399.5 151.5,399.5C 168.864,407.784 187.197,412.95 206.5,415C 240.378,419.183 273.045,414.849 304.5,402C 337.288,383.962 355.121,356.129 358,318.5C 361.132,257.637 332.632,222.471 272.5,213C 252.346,210.573 232.346,211.406 212.5,215.5C 211.167,215.5 209.833,215.5 208.5,215.5C 208.5,212.5 208.5,209.5 208.5,206.5C 210.303,184.806 212.303,163.14 214.5,141.5C 215.404,140.791 215.737,139.791 215.5,138.5C 255.67,138.832 295.67,138.499 335.5,137.5C 335.5,122.5 335.5,107.5 335.5,92.5C 335.5,92.1667 335.5,91.8333 335.5,91.5C 335.5,72.5 335.5,53.5 335.5,34.5 Z"/></g>
<g><path style="opacity:1" fill="#f4ccca" d="M 335.5,91.5 C 335.5,91.8333 335.5,92.1667 335.5,92.5C 280.167,92.5 224.833,92.5 169.5,92.5C 169.817,96.7016 169.483,100.702 168.5,104.5C 168.5,100.167 168.5,95.8333 168.5,91.5C 224.167,91.5 279.833,91.5 335.5,91.5 Z"/></g>
<g><path style="opacity:1" fill="#fefefd" d="M 335.5,92.5 C 335.5,107.5 335.5,122.5 335.5,137.5C 295.167,137.5 254.833,137.5 214.5,137.5C 214.5,138.833 214.5,140.167 214.5,141.5C 212.303,163.14 210.303,184.806 208.5,206.5C 207.521,209.625 207.187,212.958 207.5,216.5C 209.415,216.784 211.081,216.451 212.5,215.5C 232.346,211.406 252.346,210.573 272.5,213C 332.632,222.471 361.132,257.637 358,318.5C 355.121,356.129 337.288,383.962 304.5,402C 273.045,414.849 240.378,419.183 206.5,415C 187.197,412.95 168.864,407.784 151.5,399.5C 151.17,383.991 151.504,368.658 152.5,353.5C 170.852,362.505 190.185,368.505 210.5,371.5C 217.103,372.994 223.936,373.661 231,373.5C 235.68,373.499 240.18,373.166 244.5,372.5C 283.945,370.223 304.278,349.389 305.5,310C 304.945,286.538 293.945,270.205 272.5,261C 242.09,252.403 211.756,252.57 181.5,261.5C 173.593,257.456 165.76,253.122 158,248.5C 158.942,229.519 159.942,210.519 161,191.5C 163.376,162.486 165.876,133.486 168.5,104.5C 169.483,100.702 169.817,96.7016 169.5,92.5C 224.833,92.5 280.167,92.5 335.5,92.5 Z"/></g>
<g><path style="opacity:1" fill="#4ab17c" d="M 335.5,137.5 C 295.67,138.499 255.67,138.832 215.5,138.5C 215.737,139.791 215.404,140.791 214.5,141.5C 214.5,140.167 214.5,138.833 214.5,137.5C 254.833,137.5 295.167,137.5 335.5,137.5 Z"/></g>
<g><path style="opacity:1" fill="#80c8a3" d="M 208.5,206.5 C 208.5,209.5 208.5,212.5 208.5,215.5C 209.833,215.5 211.167,215.5 212.5,215.5C 211.081,216.451 209.415,216.784 207.5,216.5C 207.187,212.958 207.521,209.625 208.5,206.5 Z"/></g>
<g><path style="opacity:1" fill="#f4d0ce" d="M 152.5,353.5 C 151.504,368.658 151.17,383.991 151.5,399.5C 151.167,399.5 150.833,399.5 150.5,399.5C 150.167,383.819 150.501,368.152 151.5,352.5C 152.107,352.624 152.44,352.957 152.5,353.5 Z"/></g>
<g><path style="opacity:1" fill="#eeaca8" d="M 210.5,371.5 C 221.815,372.294 233.148,372.627 244.5,372.5C 240.18,373.166 235.68,373.499 231,373.5C 223.936,373.661 217.103,372.994 210.5,371.5 Z"/></g>
</svg>
