<?xml version="1.0" encoding="UTF-8"?>
<!DOCTYPE svg PUBLIC "-//W3C//DTD SVG 1.1//EN" "http://www.w3.org/Graphics/SVG/1.1/DTD/svg11.dtd">
<svg xmlns="http://www.w3.org/2000/svg" version="1.1" width="512px" height="512px" style="shape-rendering:geometricPrecision; text-rendering:geometricPrecision; image-rendering:optimizeQuality; fill-rule:evenodd; clip-rule:evenodd" xmlns:xlink="http://www.w3.org/1999/xlink">
<g><path style="opacity:1" fill="#d08359" d="M 445.5,20.5 C 444.005,22.345 442.338,22.6783 440.5,21.5C 441.919,20.5489 443.585,20.2155 445.5,20.5 Z"/></g>
<g><path style="opacity:1" fill="#d67644" d="M 452.5,20.5 C 454.621,20.3253 456.621,20.6586 458.5,21.5C 458.5,22.1667 458.5,22.8333 458.5,23.5C 456.801,23.6602 455.134,23.4935 453.5,23C 452.748,22.3292 452.414,21.4959 452.5,20.5 Z"/></g>
<g><path style="opacity:0.694" fill="#526473" d="M 52.5,21.5 C 50.3375,24.4205 47.3375,26.0871 43.5,26.5C 46.0078,24.0764 49.0078,22.4097 52.5,21.5 Z"/></g>
<g><path style="opacity:0.694" fill="#cd8c67" d="M 458.5,21.5 C 464.062,22.7768 468.396,25.7768 471.5,30.5C 467.419,27.7645 463.085,25.4312 458.5,23.5C 458.5,22.8333 458.5,22.1667 458.5,21.5 Z"/></g>
<g><path style="opacity:1" fill="#1f496b" d="M 94.5,40.5 C 97.8333,43.5 101.167,46.5 104.5,49.5C 106.167,50.5 107.5,51.8333 108.5,53.5C 109.08,55.7488 110.413,57.4154 112.5,58.5C 113.5,58.8333 114.167,59.5 114.5,60.5C 115.167,63.1667 116.833,64.8333 119.5,65.5C 119.622,68.2921 120.956,70.2921 123.5,71.5C 124.412,73.5952 125.579,75.5952 127,77.5C 127.816,78.8228 128.983,79.4894 130.5,79.5C 132.047,80.7682 133.047,82.4348 133.5,84.5C 135.854,88.8808 138.354,93.2141 141,97.5C 141.54,99.1346 141.04,100.468 139.5,101.5C 142.344,103.097 144.344,105.43 145.5,108.5C 149.013,109.344 151.68,111.344 153.5,114.5C 152.45,116.102 153.117,116.935 155.5,117C 156.155,119.159 157.488,120.659 159.5,121.5C 161.833,124.167 164.167,126.833 166.5,129.5C 168.587,130.585 169.92,132.251 170.5,134.5C 171.615,138.947 173.948,142.613 177.5,145.5C 177.195,149.227 178.695,151.894 182,153.5C 181.461,158.789 183.628,162.122 188.5,163.5C 190.9,165.296 192.567,167.63 193.5,170.5C 194.828,175.165 197.161,179.165 200.5,182.5C 204.574,190.6 208.241,198.933 211.5,207.5C 212.5,207.5 213.5,207.5 214.5,207.5C 215.428,211.362 216.928,215.029 219,218.5C 219.671,219.252 220.504,219.586 221.5,219.5C 221.5,219.833 221.5,220.167 221.5,220.5C 221.062,220.435 220.728,220.601 220.5,221C 221.066,221.995 221.733,222.828 222.5,223.5C 223.674,224.514 224.34,225.847 224.5,227.5C 226.609,233.393 228.442,239.393 230,245.5C 231.016,246.634 231.683,246.301 232,244.5C 232.278,245.416 232.778,246.082 233.5,246.5C 235.008,248.181 236.008,250.181 236.5,252.5C 238.101,259.03 240.767,265.03 244.5,270.5C 244.5,270.833 244.5,271.167 244.5,271.5C 245.411,275.998 246.911,280.332 249,284.5C 249.417,285.756 250.25,286.423 251.5,286.5C 251.5,286.833 251.5,287.167 251.5,287.5C 250.957,287.56 250.624,287.893 250.5,288.5C 251.154,290.858 252.487,292.525 254.5,293.5C 254.5,294.167 254.833,294.5 255.5,294.5C 255.5,296.167 255.5,297.833 255.5,299.5C 255.5,300.167 255.5,300.833 255.5,301.5C 255.592,306.365 256.925,310.699 259.5,314.5C 259.667,318.673 261,322.34 263.5,325.5C 263.5,326.833 263.5,328.167 263.5,329.5C 265.592,347.185 268.592,364.518 272.5,381.5C 272.182,386.032 272.515,390.366 273.5,394.5C 273.5,395.5 273.5,396.5 273.5,397.5C 275.92,397.292 278.253,397.626 280.5,398.5C 281.429,399.689 281.762,401.022 281.5,402.5C 285.102,402.678 285.102,403.678 281.5,405.5C 283.978,406.722 284.978,408.722 284.5,411.5C 282.243,414.48 280.577,417.813 279.5,421.5C 278.341,423.855 277.341,426.188 276.5,428.5C 275.539,430.265 275.205,432.265 275.5,434.5C 279.833,434.5 284.167,434.5 288.5,434.5C 290.898,434.741 292.898,434.074 294.5,432.5C 295.5,432.5 296.5,432.5 297.5,432.5C 298.791,432.263 299.791,432.596 300.5,433.5C 300.625,437.398 298.958,438.898 295.5,438C 296.089,439.873 295.422,441.54 293.5,443C 289.929,443.52 286.429,444.353 283,445.5C 281.833,445.333 280.667,445.167 279.5,445C 280.433,443.392 279.767,442.559 277.5,442.5C 273.517,442.73 272.851,444.063 275.5,446.5C 276.086,446.291 276.586,445.957 277,445.5C 279.611,446.071 282.111,446.904 284.5,448C 282.326,449.797 279.993,449.964 277.5,448.5C 275.667,449.052 274,449.885 272.5,451C 273.609,451.638 274.775,452.138 276,452.5C 279.124,451.642 282.29,450.975 285.5,450.5C 289.702,452.13 294.035,453.13 298.5,453.5C 299.167,453.833 299.833,454.167 300.5,454.5C 301.856,456.27 303.689,457.603 306,458.5C 307.413,460.652 308.246,462.986 308.5,465.5C 306.167,465.5 303.833,465.5 301.5,465.5C 302.138,463.54 302.138,461.707 301.5,460C 296.288,459.04 291.121,457.874 286,456.5C 285.241,457.646 284.574,458.646 284,459.5C 282.05,458.717 280.217,457.717 278.5,456.5C 273.671,456.175 271.004,458.342 270.5,463C 272.244,468.656 274.41,474.156 277,479.5C 277.497,482.146 277.664,484.813 277.5,487.5C 275.435,487.483 273.435,487.15 271.5,486.5C 270.199,483.899 268.866,481.232 267.5,478.5C 267.472,476.418 268.139,474.584 269.5,473C 267.015,471.513 264.848,469.679 263,467.5C 262.647,466.328 262.813,465.162 263.5,464C 261.429,462.05 261.095,459.883 262.5,457.5C 257.322,457.105 256.322,454.438 259.5,449.5C 258.833,449.167 258.167,448.833 257.5,448.5C 257.833,447.833 258.167,447.167 258.5,446.5C 256.182,441.867 253.182,437.867 249.5,434.5C 248.662,434.158 248.328,433.492 248.5,432.5C 248.244,430.208 248.577,428.041 249.5,426C 248.437,424.812 247.103,424.312 245.5,424.5C 245.104,412.007 240.771,401.34 232.5,392.5C 232.672,391.508 232.338,390.842 231.5,390.5C 231.167,390.5 230.833,390.5 230.5,390.5C 229.492,387.156 228.492,383.823 227.5,380.5C 227.534,375.884 225.867,372.218 222.5,369.5C 219.888,361.327 216.888,353.327 213.5,345.5C 213.961,340.809 213.295,336.142 211.5,331.5C 213.925,330.109 216.091,328.442 218,326.5C 218.333,327.167 218.667,327.833 219,328.5C 219.497,326.19 219.663,323.857 219.5,321.5C 218.167,321.5 216.833,321.5 215.5,321.5C 214.612,324.243 213.445,326.91 212,329.5C 209.954,327.3 208.954,324.633 209,321.5C 208.586,321.957 208.086,322.291 207.5,322.5C 206.52,319.914 206.187,317.247 206.5,314.5C 208.2,314.626 209.7,315.293 211,316.5C 211.5,316.167 212,315.833 212.5,315.5C 211.5,313.833 210.167,312.5 208.5,311.5C 207.808,312.025 207.308,312.692 207,313.5C 202.86,310.866 200.526,307.199 200,302.5C 200.741,301.359 201.575,301.359 202.5,302.5C 203.5,302.167 204.167,301.5 204.5,300.5C 203.045,298.78 202.212,296.78 202,294.5C 201.333,295.833 200.333,296.833 199,297.5C 197.574,295.234 195.74,293.568 193.5,292.5C 191.5,289.167 189.5,285.833 187.5,282.5C 186.596,281.791 186.263,280.791 186.5,279.5C 185.415,275.06 184.082,270.727 182.5,266.5C 181.5,266.5 180.5,266.5 179.5,266.5C 178.83,263.161 178.83,259.661 179.5,256C 174.735,253.696 173.069,250.029 174.5,245C 173.281,240.722 170.948,237.222 167.5,234.5C 167.833,233.833 168.167,233.167 168.5,232.5C 166.532,230.602 165.198,228.269 164.5,225.5C 163.473,226.791 162.473,226.791 161.5,225.5C 159.405,220.973 157.072,216.639 154.5,212.5C 154.414,211.504 154.748,210.671 155.5,210C 153.035,206.893 150.702,203.726 148.5,200.5C 147.32,197.46 145.653,194.794 143.5,192.5C 143.5,192.167 143.5,191.833 143.5,191.5C 142.416,188.996 141.083,186.663 139.5,184.5C 139.34,182.847 138.674,181.514 137.5,180.5C 137.5,179.833 137.5,179.167 137.5,178.5C 137.953,177.542 138.619,176.708 139.5,176C 137.355,172.688 134.688,169.854 131.5,167.5C 130.833,167.667 130.167,167.833 129.5,168C 131.873,172.925 130.873,177.259 126.5,181C 128.769,182.807 130.603,182.307 132,179.5C 134.635,183.739 136.469,188.073 137.5,192.5C 138.274,193.711 139.107,193.711 140,192.5C 140.413,195.232 141.08,197.899 142,200.5C 142.667,201.833 143.333,201.833 144,200.5C 145.092,203.044 145.759,205.711 146,208.5C 147.927,210.895 149.76,213.228 151.5,215.5C 152.222,216.551 153.222,217.218 154.5,217.5C 154.5,218.167 154.833,218.5 155.5,218.5C 156.826,222.49 158.16,226.49 159.5,230.5C 159.913,234.338 161.58,237.338 164.5,239.5C 165.73,241.297 166.396,243.297 166.5,245.5C 166.624,249.748 168.29,253.082 171.5,255.5C 171.5,255.833 171.5,256.167 171.5,256.5C 171.517,258.565 171.85,260.565 172.5,262.5C 174.34,269.01 176.673,275.343 179.5,281.5C 180.478,281.977 181.311,282.643 182,283.5C 183.055,286.543 183.222,289.543 182.5,292.5C 184.03,294.226 185.03,296.226 185.5,298.5C 190.825,302.393 192.991,307.726 192,314.5C 193.833,317 195.667,319.5 197.5,322C 196.391,323.813 197.058,324.646 199.5,324.5C 200.167,324.833 200.833,325.167 201.5,325.5C 201.5,325.833 201.5,326.167 201.5,326.5C 201.343,327.873 201.51,329.207 202,330.5C 204.898,337.069 208.065,343.402 211.5,349.5C 217.614,361.058 222.614,373.058 226.5,385.5C 226.878,387.921 227.545,390.254 228.5,392.5C 228.343,393.873 228.51,395.207 229,396.5C 231.206,400.262 233.373,403.929 235.5,407.5C 237.379,415.362 239.713,423.029 242.5,430.5C 243.5,430.5 244.5,430.5 245.5,430.5C 246.11,431.391 246.443,432.391 246.5,433.5C 245.907,436.596 246.907,438.929 249.5,440.5C 251.274,445.176 253.608,449.509 256.5,453.5C 254.415,455.852 252.915,458.518 252,461.5C 251.086,457.815 250.419,458.148 250,462.5C 247.761,461.131 245.927,461.631 244.5,464C 244.957,464.414 245.291,464.914 245.5,465.5C 244.05,466.85 243.383,468.516 243.5,470.5C 242.075,471.922 241.075,473.589 240.5,475.5C 238.511,478.166 235.844,479.833 232.5,480.5C 232.167,480.5 231.833,480.5 231.5,480.5C 231.5,480.167 231.5,479.833 231.5,479.5C 230.588,473.869 229.921,468.202 229.5,462.5C 231.002,460.137 230.668,457.97 228.5,456C 222.821,455.627 217.155,455.127 211.5,454.5C 209.955,454.511 208.622,454.844 207.5,455.5C 207.167,455.5 206.833,455.5 206.5,455.5C 205.329,454.655 203.995,453.989 202.5,453.5C 201.934,451.922 200.934,450.588 199.5,449.5C 196.122,448.409 192.789,447.409 189.5,446.5C 188.298,444.608 186.965,442.774 185.5,441C 182.144,440.128 179.144,438.628 176.5,436.5C 173.787,434.786 171.787,432.453 170.5,429.5C 168.456,425.715 166.79,421.715 165.5,417.5C 165.59,415.575 166.59,414.408 168.5,414C 165.673,408.749 161.673,404.915 156.5,402.5C 155.833,402.167 155.167,401.833 154.5,401.5C 153.289,397.882 152.122,394.216 151,390.5C 149.989,389.663 148.822,389.33 147.5,389.5C 146.992,386.824 146.825,384.157 147,381.5C 149.568,382.031 152.068,382.364 154.5,382.5C 157.419,384.128 160.419,385.462 163.5,386.5C 165.411,387.075 167.078,388.075 168.5,389.5C 168.953,390.458 169.619,391.292 170.5,392C 176.503,394.652 182.503,396.985 188.5,399C 185.747,396.073 182.414,394.24 178.5,393.5C 178.167,393.5 177.833,393.5 177.5,393.5C 177.5,392.833 177.167,392.5 176.5,392.5C 176.167,391.833 175.833,391.167 175.5,390.5C 174.847,389.193 174.18,387.86 173.5,386.5C 167.919,384.048 163.586,380.215 160.5,375C 158.846,374.392 157.179,373.892 155.5,373.5C 152.833,370.5 150.167,367.5 147.5,364.5C 145.344,362.198 143.677,359.531 142.5,356.5C 139.077,355.308 136.244,353.308 134,350.5C 131.857,345.197 128.524,340.864 124,337.5C 123.449,333.455 121.282,330.788 117.5,329.5C 115.674,327.853 114.34,325.853 113.5,323.5C 112.921,320.669 111.588,318.336 109.5,316.5C 105.069,306.817 101.236,296.817 98,286.5C 96.8321,280.279 97.6655,274.446 100.5,269C 95.164,265.673 91.3306,261.173 89,255.5C 87.7292,254.117 86.2292,253.117 84.5,252.5C 83.8333,252.5 83.5,252.167 83.5,251.5C 83.2283,248.268 81.5616,246.268 78.5,245.5C 78.5,245.167 78.5,244.833 78.5,244.5C 79.29,243.391 79.79,242.058 80,240.5C 81.2051,239.929 82.3717,239.262 83.5,238.5C 81.1593,234.835 78.4926,231.501 75.5,228.5C 75.3996,223.106 74.2329,218.106 72,213.5C 69.2606,210.505 67.094,207.172 65.5,203.5C 66.1627,201.51 66.1627,199.677 65.5,198C 66.3839,196.902 67.3839,196.402 68.5,196.5C 65.0312,194.567 63.3646,191.567 63.5,187.5C 65.2161,187.371 66.8828,187.038 68.5,186.5C 71.1528,187.676 73.8195,188.509 76.5,189C 74.6337,185.946 71.967,184.446 68.5,184.5C 68.5,183.833 68.1667,183.5 67.5,183.5C 67.5,183.167 67.5,182.833 67.5,182.5C 63.7538,176.754 59.0872,172.087 53.5,168.5C 53.5,168.167 53.5,167.833 53.5,167.5C 53.6495,166.448 53.4828,165.448 53,164.5C 49.2961,160.964 45.7961,157.298 42.5,153.5C 40.7497,152.341 39.7497,150.674 39.5,148.5C 37.6635,143.013 34.9968,138.013 31.5,133.5C 26.8024,124.38 23.8024,114.714 22.5,104.5C 23.6408,101.36 23.8075,98.0267 23,94.5C 22.5831,93.244 21.7498,92.5774 20.5,92.5C 20.3335,82.8276 20.5002,73.1609 21,63.5C 21.711,59.6452 22.8777,55.9786 24.5,52.5C 28.0339,48.9271 30.3672,44.5938 31.5,39.5C 33.493,36.8327 36.1597,35.1661 39.5,34.5C 39.281,33.325 39.6143,32.325 40.5,31.5C 46.5461,27.9563 52.7128,24.623 59,21.5C 63.8654,21.0615 68.6987,21.8948 73.5,24C 74.8613,25.5843 75.528,27.4176 75.5,29.5C 78.1667,30.1667 80.8333,30.8333 83.5,31.5C 83.5,32.8333 83.5,34.1667 83.5,35.5C 86.9756,37.4013 90.6423,39.068 94.5,40.5 Z M 147.5,201.5 C 147.833,201.5 148.167,201.5 148.5,201.5C 149.833,204.833 151.167,208.167 152.5,211.5C 152.167,211.5 151.833,211.5 151.5,211.5C 149.609,208.386 148.276,205.052 147.5,201.5 Z M 152.5,211.5 C 153.167,211.833 153.833,212.167 154.5,212.5C 154.649,213.552 154.483,214.552 154,215.5C 153.209,214.255 152.709,212.922 152.5,211.5 Z M 155.5,218.5 C 157.5,221.5 159.5,224.5 161.5,227.5C 162.308,230.45 163.642,233.117 165.5,235.5C 166.042,238.912 167.375,241.912 169.5,244.5C 173.363,251.664 176.696,258.997 179.5,266.5C 181.072,271.315 183.405,275.648 186.5,279.5C 186.263,280.791 186.596,281.791 187.5,282.5C 187.523,284.927 188.023,287.26 189,289.5C 191.941,295.72 195.108,301.72 198.5,307.5C 203.133,320.417 208.133,333.084 213.5,345.5C 216.888,353.327 219.888,361.327 222.5,369.5C 223.61,373.532 225.277,377.198 227.5,380.5C 228.492,383.823 229.492,387.156 230.5,390.5C 228.926,389.016 227.593,387.349 226.5,385.5C 222.614,373.058 217.614,361.058 211.5,349.5C 209.314,341.256 205.981,333.59 201.5,326.5C 201.5,326.167 201.5,325.833 201.5,325.5C 201.204,323.597 200.537,321.93 199.5,320.5C 199.5,320.167 199.5,319.833 199.5,319.5C 198.674,316.515 197.341,313.849 195.5,311.5C 193.738,306.205 191.405,301.205 188.5,296.5C 188.585,293.351 187.585,290.684 185.5,288.5C 183.38,282.26 180.713,276.26 177.5,270.5C 177.88,268.302 177.213,266.635 175.5,265.5C 175.5,265.167 175.5,264.833 175.5,264.5C 174.674,261.515 173.341,258.849 171.5,256.5C 171.5,256.167 171.5,255.833 171.5,255.5C 169.819,252.093 168.153,248.759 166.5,245.5C 166.396,243.297 165.73,241.297 164.5,239.5C 163.59,236.008 161.924,233.008 159.5,230.5C 158.16,226.49 156.826,222.49 155.5,218.5 Z M 172.5,390.5 C 173.5,390.5 174.5,390.5 175.5,390.5C 175.833,391.167 176.167,391.833 176.5,392.5C 174.847,392.34 173.514,391.674 172.5,390.5 Z"/></g>
<g><path style="opacity:1" fill="#e9661f" d="M 445.5,20.5 C 447.833,20.5 450.167,20.5 452.5,20.5C 452.414,21.4959 452.748,22.3292 453.5,23C 455.134,23.4935 456.801,23.6602 458.5,23.5C 463.085,25.4312 467.419,27.7645 471.5,30.5C 472.167,30.5 472.5,30.8333 472.5,31.5C 474.117,34.7843 476.45,37.4509 479.5,39.5C 480.338,39.8417 480.672,40.5084 480.5,41.5C 483.44,47.9115 485.773,54.5781 487.5,61.5C 487.336,64.1873 487.503,66.854 488,69.5C 488.122,71.437 488.955,72.7703 490.5,73.5C 490.5,79.5 490.5,85.5 490.5,91.5C 490.167,91.5 489.833,91.5 489.5,91.5C 488.85,91.8039 488.183,92.1373 487.5,92.5C 486.682,95.1071 486.182,97.7737 486,100.5C 483.086,102.63 482.253,105.296 483.5,108.5C 482.036,115.15 480.703,121.817 479.5,128.5C 478.567,131.927 477.4,135.26 476,138.5C 473.376,142.516 470.876,146.516 468.5,150.5C 467.5,150.5 466.5,150.5 465.5,150.5C 465.5,151.833 465.5,153.167 465.5,154.5C 464.07,154.579 462.736,154.246 461.5,153.5C 461.691,156.14 461.024,158.807 459.5,161.5C 456.946,163.679 454.28,165.679 451.5,167.5C 450.465,169.128 450.465,170.795 451.5,172.5C 447.417,177.918 442.417,182.251 436.5,185.5C 432.805,186.187 431.805,188.187 433.5,191.5C 435.766,191.141 437.599,191.808 439,193.5C 439.689,192.643 440.522,191.977 441.5,191.5C 446.41,195.803 446.577,200.137 442,204.5C 441.503,206.81 441.337,209.143 441.5,211.5C 438.31,221.043 433.644,229.876 427.5,238C 429.203,239.37 430.536,241.036 431.5,243C 429.403,246.768 426.903,250.268 424,253.5C 423.517,254.448 423.351,255.448 423.5,256.5C 420.016,260.092 416.516,263.759 413,267.5C 412.505,269.473 412.338,271.473 412.5,273.5C 412.188,279.879 411.521,286.212 410.5,292.5C 410.66,294.199 410.494,295.866 410,297.5C 407.009,302.983 404.509,308.65 402.5,314.5C 384.588,342.725 362.588,367.558 336.5,389C 335.207,389.49 333.873,389.657 332.5,389.5C 332.719,390.675 332.386,391.675 331.5,392.5C 329.201,393.635 327.034,394.968 325,396.5C 324.312,397.332 324.479,397.998 325.5,398.5C 333.277,396.113 340.277,392.447 346.5,387.5C 347.873,387.657 349.207,387.49 350.5,387C 354.067,383.92 357.733,381.087 361.5,378.5C 362.5,378.5 363.5,378.5 364.5,378.5C 365.714,380.808 365.714,383.141 364.5,385.5C 361.818,390.864 359.151,396.198 356.5,401.5C 352.167,404.5 348.5,408.167 345.5,412.5C 343.108,413.742 343.275,415.075 346,416.5C 346.667,417.833 346.667,419.167 346,420.5C 341.288,425.543 336.955,430.877 333,436.5C 329.956,439.051 326.789,441.384 323.5,443.5C 318.125,443.828 312.792,443.495 307.5,442.5C 306.305,441.033 306.305,439.533 307.5,438C 305.002,435.518 305.002,433.185 307.5,431C 305.667,430.5 304.5,429.333 304,427.5C 301.323,429.041 298.49,430.041 295.5,430.5C 294.833,431.167 294.167,431.833 293.5,432.5C 291.784,432.629 290.117,432.962 288.5,433.5C 284.833,433.5 281.167,433.5 277.5,433.5C 277.998,428.333 279.665,423.666 282.5,419.5C 282.5,418.833 282.5,418.167 282.5,417.5C 284.822,416.198 286.155,414.198 286.5,411.5C 287.5,410.833 288.5,410.167 289.5,409.5C 292.853,405.468 295.853,401.135 298.5,396.5C 302.187,395.131 303.853,392.465 303.5,388.5C 303.747,386.142 303.081,384.142 301.5,382.5C 300.054,381.387 298.387,381.22 296.5,382C 293.721,383.722 290.721,384.889 287.5,385.5C 287.401,382.763 287.735,380.096 288.5,377.5C 288.5,377.167 288.5,376.833 288.5,376.5C 291.18,371.417 293.847,366.417 296.5,361.5C 300.357,362.644 304.19,363.977 308,365.5C 308.667,364.833 308.667,364.167 308,363.5C 305.961,361.126 303.628,359.126 301,357.5C 300.517,356.552 300.351,355.552 300.5,354.5C 301.5,354.5 302.5,354.5 303.5,354.5C 303.966,352.799 303.966,351.299 303.5,350C 304.5,349.667 305.5,349.333 306.5,349C 303.874,345.931 304.207,343.098 307.5,340.5C 308.308,338.577 308.808,336.577 309,334.5C 310.067,333.809 311.234,333.309 312.5,333C 311.941,332.275 311.608,331.442 311.5,330.5C 312.893,328.06 313.727,325.393 314,322.5C 314.75,321.874 315.584,321.374 316.5,321C 315.978,320.439 315.645,319.772 315.5,319C 316.535,318.747 317.535,317.914 318.5,316.5C 317.572,315.232 317.405,313.899 318,312.5C 322.751,308.404 324.584,303.404 323.5,297.5C 329.693,283.77 335.36,269.77 340.5,255.5C 343.868,249.005 347.368,242.338 351,235.5C 356.166,223.168 361.332,210.835 366.5,198.5C 368.444,195.304 370.444,191.97 372.5,188.5C 376.318,183.59 378.151,177.924 378,171.5C 377.667,171.833 377.333,172.167 377,172.5C 375.274,174.591 374.107,176.924 373.5,179.5C 373.5,180.5 373.5,181.5 373.5,182.5C 372.5,182.5 371.5,182.5 370.5,182.5C 368.677,185.163 367.677,188.163 367.5,191.5C 364.703,195.735 361.869,200.068 359,204.5C 357.293,206.909 356.46,209.575 356.5,212.5C 352.448,217.937 349.448,223.937 347.5,230.5C 347.267,232.062 346.6,233.395 345.5,234.5C 341.763,240.856 337.93,247.189 334,253.5C 330.913,262.266 327.747,270.932 324.5,279.5C 323.503,279.47 322.836,279.97 322.5,281C 316.524,293.973 311.024,307.14 306,320.5C 305.333,321.167 304.667,321.833 304,322.5C 302.23,326.696 301.063,331.029 300.5,335.5C 292.635,351.564 285.968,368.23 280.5,385.5C 279.167,385.5 277.833,385.5 276.5,385.5C 276.666,380.821 276.499,376.155 276,371.5C 275.79,369.942 275.29,368.609 274.5,367.5C 273.833,366.833 273.167,366.167 272.5,365.5C 272.5,361.833 272.5,358.167 272.5,354.5C 270.779,347.642 269.446,340.642 268.5,333.5C 267.818,332.757 267.151,332.091 266.5,331.5C 266.664,328.813 266.497,326.146 266,323.5C 263.543,317.668 261.71,311.668 260.5,305.5C 260.489,303.453 260.156,301.453 259.5,299.5C 260.967,296.734 261.8,293.734 262,290.5C 262.414,290.957 262.914,291.291 263.5,291.5C 270.056,290.394 270.056,289.394 263.5,288.5C 264.392,284.211 265.725,280.044 267.5,276C 269.674,270.331 272.674,264.998 276.5,260C 275.594,258.301 275.261,256.467 275.5,254.5C 276.496,254.586 277.329,254.252 278,253.5C 279.762,251.064 281.096,248.398 282,245.5C 285.62,245.216 288.12,243.383 289.5,240C 286.172,240.833 284.839,239.333 285.5,235.5C 287.942,235.646 288.609,234.813 287.5,233C 288.624,232.751 289.624,232.251 290.5,231.5C 289.652,229.591 289.318,227.591 289.5,225.5C 293.748,223.797 296.081,220.963 296.5,217C 297.5,216.667 298.5,216.333 299.5,216C 296.781,211.147 297.947,207.314 303,204.5C 303.707,202.919 304.54,201.419 305.5,200C 307.779,199.527 309.779,198.527 311.5,197C 310.207,196.51 308.873,196.343 307.5,196.5C 307.5,195.5 307.5,194.5 307.5,193.5C 309.776,187.914 312.443,182.58 315.5,177.5C 317.453,172.574 319.787,167.908 322.5,163.5C 344.894,129.114 369.061,95.7802 395,63.5C 400.366,57.304 405.866,51.304 411.5,45.5C 415.812,43.1881 419.145,39.8548 421.5,35.5C 427.281,30.3657 433.281,25.699 439.5,21.5C 439.833,21.5 440.167,21.5 440.5,21.5C 442.338,22.6783 444.005,22.345 445.5,20.5 Z M 364.5,199.5 C 362.288,206.255 359.288,212.588 355.5,218.5C 355.833,216.5 356.167,214.5 356.5,212.5C 359.417,208.334 362.084,204.001 364.5,199.5 Z M 338.5,390.5 C 337.486,391.674 336.153,392.34 334.5,392.5C 335.287,390.896 336.62,390.229 338.5,390.5 Z"/></g>
<g><path style="opacity:0.859" fill="#ce8a66" d="M 439.5,21.5 C 433.281,25.699 427.281,30.3657 421.5,35.5C 421.5,35.1667 421.5,34.8333 421.5,34.5C 426.431,28.6998 432.431,24.3664 439.5,21.5 Z"/></g>
<g><path style="opacity:1" fill="#34526a" d="M 83.5,29.5 C 86.973,33.3946 90.6396,37.0613 94.5,40.5C 90.6423,39.068 86.9756,37.4013 83.5,35.5C 83.5,34.1667 83.5,32.8333 83.5,31.5C 80.8333,30.8333 78.1667,30.1667 75.5,29.5C 75.528,27.4176 74.8613,25.5843 73.5,24C 68.6987,21.8948 63.8654,21.0615 59,21.5C 52.7128,24.623 46.5461,27.9563 40.5,31.5C 39.6143,32.325 39.281,33.325 39.5,34.5C 36.1597,35.1661 33.493,36.8327 31.5,39.5C 31.933,36.7147 33.2663,34.3813 35.5,32.5C 38.4681,30.8603 41.1348,28.8603 43.5,26.5C 47.3375,26.0871 50.3375,24.4205 52.5,21.5C 64.5706,18.0475 74.9039,20.7141 83.5,29.5 Z"/></g>
<g><path style="opacity:0.525" fill="#cb8964" d="M 472.5,31.5 C 476.225,32.8951 478.558,35.5618 479.5,39.5C 476.45,37.4509 474.117,34.7843 472.5,31.5 Z"/></g>
<g><path style="opacity:0.153" fill="#7b8e9c" d="M 83.5,29.5 C 91.7902,34.7897 98.7902,41.4563 104.5,49.5C 101.167,46.5 97.8333,43.5 94.5,40.5C 90.6396,37.0613 86.973,33.3946 83.5,29.5 Z"/></g>
<g><path style="opacity:1" fill="#d56e3b" d="M 421.5,34.5 C 421.5,34.8333 421.5,35.1667 421.5,35.5C 419.145,39.8548 415.812,43.1881 411.5,45.5C 413.833,42.8333 416.167,40.1667 418.5,37.5C 419.167,36.1667 420.167,35.1667 421.5,34.5 Z"/></g>
<g><path style="opacity:0.773" fill="#cc8861" d="M 480.5,41.5 C 482.708,42.8936 484.208,44.8936 485,47.5C 486.801,52.0946 488.301,56.7612 489.5,61.5C 488.833,61.5 488.167,61.5 487.5,61.5C 485.773,54.5781 483.44,47.9115 480.5,41.5 Z"/></g>
<g><path style="opacity:1" fill="#506477" d="M 31.5,39.5 C 30.3672,44.5938 28.0339,48.9271 24.5,52.5C 25.5512,47.3926 27.8846,43.0592 31.5,39.5 Z"/></g>
<g><path style="opacity:0.914" fill="#708391" d="M 108.5,53.5 C 110.587,54.5846 111.92,56.2512 112.5,58.5C 110.413,57.4154 109.08,55.7488 108.5,53.5 Z"/></g>
<g><path style="opacity:0.878" fill="#687b8b" d="M 114.5,60.5 C 116.5,61.8333 118.167,63.5 119.5,65.5C 116.833,64.8333 115.167,63.1667 114.5,60.5 Z"/></g>
<g><path style="opacity:0.91" fill="#cd8964" d="M 418.5,37.5 C 416.167,40.1667 413.833,42.8333 411.5,45.5C 405.866,51.304 400.366,57.304 395,63.5C 369.061,95.7802 344.894,129.114 322.5,163.5C 322.755,160.984 323.589,158.65 325,156.5C 332.593,145.639 339.927,134.639 347,123.5C 355.929,112.208 364.595,100.541 373,88.5C 374,87.8333 375,87.1667 376,86.5C 380.412,79.6357 385.079,72.969 390,66.5C 396.667,59.1667 403.333,51.8333 410,44.5C 412.436,41.5532 415.269,39.2199 418.5,37.5 Z"/></g>
<g><path style="opacity:1" fill="#d6783e" d="M 487.5,61.5 C 488.167,61.5 488.833,61.5 489.5,61.5C 489.5,62.5 489.5,63.5 489.5,64.5C 488.876,64.9169 488.543,65.5836 488.5,66.5C 488.747,67.7133 489.414,68.38 490.5,68.5C 490.5,70.1667 490.5,71.8333 490.5,73.5C 488.955,72.7703 488.122,71.437 488,69.5C 487.503,66.854 487.336,64.1873 487.5,61.5 Z"/></g>
<g><path style="opacity:0.082" fill="#be845e" d="M 489.5,64.5 C 490.434,65.5676 490.768,66.901 490.5,68.5C 489.414,68.38 488.747,67.7133 488.5,66.5C 488.543,65.5836 488.876,64.9169 489.5,64.5 Z"/></g>
<g><path style="opacity:0.941" fill="#76848f" d="M 119.5,65.5 C 121.326,67.1475 122.66,69.1475 123.5,71.5C 120.956,70.2921 119.622,68.2921 119.5,65.5 Z"/></g>
<g><path style="opacity:1" fill="#677c8c" d="M 123.5,71.5 C 126.313,73.8238 128.646,76.4905 130.5,79.5C 128.983,79.4894 127.816,78.8228 127,77.5C 125.579,75.5952 124.412,73.5952 123.5,71.5 Z"/></g>
<g><path style="opacity:0.008" fill="#8798a4" d="M 142.5,95.5 C 143.5,95.8333 144.167,96.5 144.5,97.5C 143.761,97.631 143.094,97.4643 142.5,97C 141.262,96.31 141.262,95.81 142.5,95.5 Z"/></g>
<g><path style="opacity:1" fill="#3e5669" d="M 20.5,92.5 C 21.7498,92.5774 22.5831,93.244 23,94.5C 23.8075,98.0267 23.6408,101.36 22.5,104.5C 21.0109,100.764 20.3442,96.7643 20.5,92.5 Z"/></g>
<g><path style="opacity:0.761" fill="#80939e" d="M 144.5,98.5 C 145.906,98.9731 146.573,99.9731 146.5,101.5C 145.094,101.027 144.427,100.027 144.5,98.5 Z"/></g>
<g><path style="opacity:1" fill="#de6a29" d="M 489.5,91.5 C 487.711,103.788 485.044,115.788 481.5,127.5C 481.5,127.833 481.5,128.167 481.5,128.5C 480.833,128.5 480.167,128.5 479.5,128.5C 480.703,121.817 482.036,115.15 483.5,108.5C 482.253,105.296 483.086,102.63 486,100.5C 486.182,97.7737 486.682,95.1071 487.5,92.5C 488.183,92.1373 488.85,91.8039 489.5,91.5 Z"/></g>
<g><path style="opacity:1" fill="#2c4c67" d="M 133.5,84.5 C 137.196,87.5359 140.196,91.2026 142.5,95.5C 141.262,95.81 141.262,96.31 142.5,97C 143.094,97.4643 143.761,97.631 144.5,97.5C 144.5,97.8333 144.5,98.1667 144.5,98.5C 144.427,100.027 145.094,101.027 146.5,101.5C 148.543,102.579 149.876,104.246 150.5,106.5C 150.351,107.552 150.517,108.552 151,109.5C 153.183,111.907 155.35,114.24 157.5,116.5C 158.167,116.5 158.5,116.833 158.5,117.5C 158.833,118.833 159.167,120.167 159.5,121.5C 157.488,120.659 156.155,119.159 155.5,117C 153.117,116.935 152.45,116.102 153.5,114.5C 151.68,111.344 149.013,109.344 145.5,108.5C 144.344,105.43 142.344,103.097 139.5,101.5C 141.04,100.468 141.54,99.1346 141,97.5C 138.354,93.2141 135.854,88.8808 133.5,84.5 Z"/></g>
<g><path style="opacity:0.878" fill="#c6835d" d="M 489.5,91.5 C 489.833,91.5 490.167,91.5 490.5,91.5C 489.917,104.222 486.917,116.222 481.5,127.5C 485.044,115.788 487.711,103.788 489.5,91.5 Z"/></g>
<g><path style="opacity:0.922" fill="#687e8d" d="M 150.5,106.5 C 154.272,108.79 156.605,112.123 157.5,116.5C 155.35,114.24 153.183,111.907 151,109.5C 150.517,108.552 150.351,107.552 150.5,106.5 Z"/></g>
<g><path style="opacity:0.973" fill="#5b7080" d="M 158.5,117.5 C 162.377,120.707 165.044,124.707 166.5,129.5C 164.167,126.833 161.833,124.167 159.5,121.5C 159.167,120.167 158.833,118.833 158.5,117.5 Z"/></g>
<g><path style="opacity:0.616" fill="#667988" d="M 31.5,133.5 C 34.9968,138.013 37.6635,143.013 39.5,148.5C 35.5446,144.26 32.878,139.26 31.5,133.5 Z"/></g>
<g><path style="opacity:0.165" fill="#546674" d="M 170.5,134.5 C 173.579,137.65 175.913,141.317 177.5,145.5C 173.948,142.613 171.615,138.947 170.5,134.5 Z"/></g>
<g><path style="opacity:0.047" fill="#ca8660" d="M 479.5,128.5 C 480.167,128.5 480.833,128.5 481.5,128.5C 479.967,133.261 478.134,137.928 476,142.5C 472.748,147.334 469.748,152.334 467,157.5C 465.383,159.763 463.55,161.763 461.5,163.5C 461.892,161.821 462.392,160.154 463,158.5C 465.594,156.296 467.428,153.63 468.5,150.5C 470.876,146.516 473.376,142.516 476,138.5C 477.4,135.26 478.567,131.927 479.5,128.5 Z"/></g>
<g><path style="opacity:1" fill="#3b566d" d="M 177.5,145.5 C 181.137,149.983 184.637,154.65 188,159.5C 188.49,160.793 188.657,162.127 188.5,163.5C 183.628,162.122 181.461,158.789 182,153.5C 178.695,151.894 177.195,149.227 177.5,145.5 Z"/></g>
<g><path style="opacity:1" fill="#495f71" d="M 42.5,153.5 C 45.7961,157.298 49.2961,160.964 53,164.5C 53.4828,165.448 53.6495,166.448 53.5,167.5C 48.3769,164.036 44.7102,159.37 42.5,153.5 Z"/></g>
<g><path style="opacity:1" fill="#df6828" d="M 468.5,150.5 C 467.428,153.63 465.594,156.296 463,158.5C 462.392,160.154 461.892,161.821 461.5,163.5C 459.167,163.833 457.833,165.167 457.5,167.5C 455.817,169.514 453.817,171.18 451.5,172.5C 450.465,170.795 450.465,169.128 451.5,167.5C 454.28,165.679 456.946,163.679 459.5,161.5C 461.024,158.807 461.691,156.14 461.5,153.5C 462.736,154.246 464.07,154.579 465.5,154.5C 465.5,153.167 465.5,151.833 465.5,150.5C 466.5,150.5 467.5,150.5 468.5,150.5 Z"/></g>
<g><path style="opacity:0.027" fill="#ce8863" d="M 461.5,163.5 C 461.106,165.71 459.773,167.043 457.5,167.5C 457.833,165.167 459.167,163.833 461.5,163.5 Z"/></g>
<g><path style="opacity:0.57" fill="#405768" d="M 53.5,168.5 C 59.0872,172.087 63.7538,176.754 67.5,182.5C 66.7611,182.631 66.0944,182.464 65.5,182C 60.9559,177.958 56.9559,173.458 53.5,168.5 Z"/></g>
<g><path style="opacity:0.416" fill="#6f808e" d="M 193.5,170.5 C 196.656,173.996 198.989,177.996 200.5,182.5C 197.161,179.165 194.828,175.165 193.5,170.5 Z"/></g>
<g><path style="opacity:1" fill="#638aa7" d="M 137.5,178.5 C 137.5,179.167 137.5,179.833 137.5,180.5C 137.19,181.738 136.69,181.738 136,180.5C 133.929,178.545 133.262,176.212 134,173.5C 135.03,175.346 136.196,177.013 137.5,178.5 Z"/></g>
<g><path style="opacity:0.69" fill="#ca815a" d="M 457.5,167.5 C 457.649,168.552 457.483,169.552 457,170.5C 452.744,175.025 448.244,179.191 443.5,183C 450.08,184.121 452.246,187.955 450,194.5C 449.299,198.109 448.132,201.442 446.5,204.5C 446.857,199.687 447.857,195.02 449.5,190.5C 449.353,187.501 447.853,185.834 445,185.5C 442.236,186.214 439.569,187.214 437,188.5C 436.5,188.333 436,188.167 435.5,188C 436.252,187.329 436.586,186.496 436.5,185.5C 442.417,182.251 447.417,177.918 451.5,172.5C 453.817,171.18 455.817,169.514 457.5,167.5 Z"/></g>
<g><path style="opacity:1" fill="#274b68" d="M 137.5,178.5 C 136.196,177.013 135.03,175.346 134,173.5C 133.262,176.212 133.929,178.545 136,180.5C 136.69,181.738 137.19,181.738 137.5,180.5C 138.674,181.514 139.34,182.847 139.5,184.5C 139.966,186.201 139.966,187.701 139.5,189C 140.078,190.417 141.078,191.25 142.5,191.5C 142.5,192.167 142.833,192.5 143.5,192.5C 143.872,194.562 144.205,196.229 144.5,197.5C 144.5,197.833 144.5,198.167 144.5,198.5C 144.932,199.71 145.599,200.71 146.5,201.5C 146.833,201.5 147.167,201.5 147.5,201.5C 148.276,205.052 149.609,208.386 151.5,211.5C 151.5,212.833 151.5,214.167 151.5,215.5C 149.76,213.228 147.927,210.895 146,208.5C 145.759,205.711 145.092,203.044 144,200.5C 143.333,201.833 142.667,201.833 142,200.5C 141.08,197.899 140.413,195.232 140,192.5C 139.107,193.711 138.274,193.711 137.5,192.5C 136.469,188.073 134.635,183.739 132,179.5C 130.603,182.307 128.769,182.807 126.5,181C 130.873,177.259 131.873,172.925 129.5,168C 130.167,167.833 130.833,167.667 131.5,167.5C 134.688,169.854 137.355,172.688 139.5,176C 138.619,176.708 137.953,177.542 137.5,178.5 Z"/></g>
<g><path style="opacity:0.086" fill="#d2906b" d="M 322.5,163.5 C 319.787,167.908 317.453,172.574 315.5,177.5C 313.484,179.249 311.818,181.249 310.5,183.5C 312.963,175.907 316.963,169.241 322.5,163.5 Z"/></g>
<g><path style="opacity:1" fill="#e37e40" d="M 372.5,188.5 C 373.013,185.791 374.013,183.291 375.5,181C 375.164,179.97 374.497,179.47 373.5,179.5C 374.107,176.924 375.274,174.591 377,172.5C 377.333,172.167 377.667,171.833 378,171.5C 378.151,177.924 376.318,183.59 372.5,188.5 Z"/></g>
<g><path style="opacity:1" fill="#d96c31" d="M 315.5,177.5 C 312.443,182.58 309.776,187.914 307.5,193.5C 306.9,194.9 305.9,195.9 304.5,196.5C 306.279,193.373 307.613,190.04 308.5,186.5C 308.427,184.973 309.094,183.973 310.5,183.5C 311.818,181.249 313.484,179.249 315.5,177.5 Z"/></g>
<g><path style="opacity:0.137" fill="#637e8f" d="M 68.5,184.5 C 71.967,184.446 74.6337,185.946 76.5,189C 73.8195,188.509 71.1528,187.676 68.5,186.5C 68.5,185.833 68.5,185.167 68.5,184.5 Z"/></g>
<g><path style="opacity:0.055" fill="#627788" d="M 139.5,184.5 C 141.083,186.663 142.416,188.996 143.5,191.5C 143.167,191.5 142.833,191.5 142.5,191.5C 141.078,191.25 140.078,190.417 139.5,189C 139.966,187.701 139.966,186.201 139.5,184.5 Z"/></g>
<g><path style="opacity:1" fill="#e26925" d="M 436.5,185.5 C 436.586,186.496 436.252,187.329 435.5,188C 436,188.167 436.5,188.333 437,188.5C 439.569,187.214 442.236,186.214 445,185.5C 447.853,185.834 449.353,187.501 449.5,190.5C 447.857,195.02 446.857,199.687 446.5,204.5C 445.079,207.009 443.412,209.343 441.5,211.5C 441.337,209.143 441.503,206.81 442,204.5C 446.577,200.137 446.41,195.803 441.5,191.5C 440.522,191.977 439.689,192.643 439,193.5C 437.599,191.808 435.766,191.141 433.5,191.5C 431.805,188.187 432.805,186.187 436.5,185.5 Z"/></g>
<g><path style="opacity:1" fill="#4d6476" d="M 200.5,182.5 C 206.444,190.049 211.111,198.382 214.5,207.5C 213.5,207.5 212.5,207.5 211.5,207.5C 208.241,198.933 204.574,190.6 200.5,182.5 Z"/></g>
<g><path style="opacity:1" fill="#ce8359" d="M 373.5,179.5 C 374.497,179.47 375.164,179.97 375.5,181C 374.013,183.291 373.013,185.791 372.5,188.5C 370.444,191.97 368.444,195.304 366.5,198.5C 366.167,197.167 365.833,197.167 365.5,198.5C 364.833,198.5 364.5,198.833 364.5,199.5C 362.084,204.001 359.417,208.334 356.5,212.5C 356.46,209.575 357.293,206.909 359,204.5C 361.869,200.068 364.703,195.735 367.5,191.5C 367.677,188.163 368.677,185.163 370.5,182.5C 371.5,182.5 372.5,182.5 373.5,182.5C 373.5,181.5 373.5,180.5 373.5,179.5 Z"/></g>
<g><path style="opacity:1" fill="#355169" d="M 67.5,183.5 C 68.1667,183.5 68.5,183.833 68.5,184.5C 68.5,185.167 68.5,185.833 68.5,186.5C 66.8828,187.038 65.2161,187.371 63.5,187.5C 63.3646,191.567 65.0312,194.567 68.5,196.5C 67.3839,196.402 66.3839,196.902 65.5,198C 66.1627,199.677 66.1627,201.51 65.5,203.5C 67.094,207.172 69.2606,210.505 72,213.5C 74.2329,218.106 75.3996,223.106 75.5,228.5C 73.5832,225.669 71.9166,222.669 70.5,219.5C 70.9236,215.998 69.5902,213.665 66.5,212.5C 63.9998,205.496 61.9998,198.329 60.5,191C 59.8126,185.491 62.146,182.991 67.5,183.5 Z"/></g>
<g><path style="opacity:1" fill="#cd8e6a" d="M 308.5,186.5 C 307.613,190.04 306.279,193.373 304.5,196.5C 302.833,198.5 301.167,200.5 299.5,202.5C 299.755,199.984 300.589,197.65 302,195.5C 303.699,192.079 305.865,189.079 308.5,186.5 Z"/></g>
<g><path style="opacity:0.02" fill="#738694" d="M 143.5,192.5 C 145.653,194.794 147.32,197.46 148.5,200.5C 148.5,200.833 148.5,201.167 148.5,201.5C 148.167,201.5 147.833,201.5 147.5,201.5C 147.167,200.167 146.833,200.167 146.5,201.5C 145.599,200.71 144.932,199.71 144.5,198.5C 145.833,198.167 145.833,197.833 144.5,197.5C 144.205,196.229 143.872,194.562 143.5,192.5 Z"/></g>
<g><path style="opacity:0.859" fill="#496072" d="M 148.5,200.5 C 150.702,203.726 153.035,206.893 155.5,210C 154.748,210.671 154.414,211.504 154.5,212.5C 153.833,212.167 153.167,211.833 152.5,211.5C 151.167,208.167 149.833,204.833 148.5,201.5C 148.5,201.167 148.5,200.833 148.5,200.5 Z"/></g>
<g><path style="opacity:0.608" fill="#627686" d="M 214.5,207.5 C 217.323,211.136 219.656,215.136 221.5,219.5C 220.504,219.586 219.671,219.252 219,218.5C 216.928,215.029 215.428,211.362 214.5,207.5 Z"/></g>
<g><path style="opacity:1" fill="#df6826" d="M 307.5,193.5 C 307.5,194.5 307.5,195.5 307.5,196.5C 308.873,196.343 310.207,196.51 311.5,197C 309.779,198.527 307.779,199.527 305.5,200C 304.54,201.419 303.707,202.919 303,204.5C 297.947,207.314 296.781,211.147 299.5,216C 298.5,216.333 297.5,216.667 296.5,217C 296.081,220.963 293.748,223.797 289.5,225.5C 289.343,224.127 289.51,222.793 290,221.5C 294.253,215.66 297.42,209.327 299.5,202.5C 301.167,200.5 302.833,198.5 304.5,196.5C 305.9,195.9 306.9,194.9 307.5,193.5 Z"/></g>
<g><path style="opacity:0.745" fill="#637584" d="M 66.5,212.5 C 69.5902,213.665 70.9236,215.998 70.5,219.5C 68.9291,217.365 67.5957,215.032 66.5,212.5 Z"/></g>
<g><path style="opacity:0.141" fill="#6a7d8e" d="M 151.5,211.5 C 151.833,211.5 152.167,211.5 152.5,211.5C 152.709,212.922 153.209,214.255 154,215.5C 154.483,214.552 154.649,213.552 154.5,212.5C 157.072,216.639 159.405,220.973 161.5,225.5C 161.5,226.167 161.5,226.833 161.5,227.5C 159.5,224.5 157.5,221.5 155.5,218.5C 155.539,216.776 155.206,216.443 154.5,217.5C 153.222,217.218 152.222,216.551 151.5,215.5C 151.5,214.167 151.5,212.833 151.5,211.5 Z"/></g>
<g><path style="opacity:0.122" fill="#ca8661" d="M 446.5,204.5 C 445.045,210.353 442.879,216.02 440,221.5C 437.275,227.786 433.442,233.286 428.5,238C 432.113,238.732 433.613,240.899 433,244.5C 430.35,248.975 427.183,252.975 423.5,256.5C 423.351,255.448 423.517,254.448 424,253.5C 426.903,250.268 429.403,246.768 431.5,243C 430.536,241.036 429.203,239.37 427.5,238C 433.644,229.876 438.31,221.043 441.5,211.5C 443.412,209.343 445.079,207.009 446.5,204.5 Z"/></g>
<g><path style="opacity:1" fill="#c9825a" d="M 365.5,198.5 C 365.833,198.5 366.167,198.5 366.5,198.5C 361.332,210.835 356.166,223.168 351,235.5C 347.368,242.338 343.868,249.005 340.5,255.5C 345.217,243.063 350.217,230.73 355.5,218.5C 359.288,212.588 362.288,206.255 364.5,199.5C 365.167,199.5 365.5,199.167 365.5,198.5 Z"/></g>
<g><path style="opacity:1" fill="#cb855a" d="M 356.5,212.5 C 356.167,214.5 355.833,216.5 355.5,218.5C 352.341,222.146 349.674,226.146 347.5,230.5C 349.448,223.937 352.448,217.937 356.5,212.5 Z"/></g>
<g><path style="opacity:0.953" fill="#758995" d="M 221.5,220.5 C 222.404,221.209 222.737,222.209 222.5,223.5C 221.733,222.828 221.066,221.995 220.5,221C 220.728,220.601 221.062,220.435 221.5,220.5 Z"/></g>
<g><path style="opacity:1" fill="#ce8963" d="M 299.5,202.5 C 297.42,209.327 294.253,215.66 290,221.5C 289.51,222.793 289.343,224.127 289.5,225.5C 283.707,234.5 279.041,244.167 275.5,254.5C 273.839,256.489 272.672,258.822 272,261.5C 271.329,262.252 270.496,262.586 269.5,262.5C 278.465,241.904 288.465,221.904 299.5,202.5 Z"/></g>
<g><path style="opacity:0.596" fill="#5e7283" d="M 75.5,228.5 C 78.4926,231.501 81.1593,234.835 83.5,238.5C 82.3717,239.262 81.2051,239.929 80,240.5C 79.79,242.058 79.29,243.391 78.5,244.5C 76.8477,241.375 77.8477,239.208 81.5,238C 80.186,235.688 78.5194,233.688 76.5,232C 76.0109,230.862 75.6775,229.695 75.5,228.5 Z"/></g>
<g><path style="opacity:1" fill="#67798a" d="M 159.5,230.5 C 161.924,233.008 163.59,236.008 164.5,239.5C 161.58,237.338 159.913,234.338 159.5,230.5 Z"/></g>
<g><path style="opacity:1" fill="#335068" d="M 161.5,225.5 C 162.473,226.791 163.473,226.791 164.5,225.5C 165.198,228.269 166.532,230.602 168.5,232.5C 168.167,233.167 167.833,233.833 167.5,234.5C 170.948,237.222 173.281,240.722 174.5,245C 173.069,250.029 174.735,253.696 179.5,256C 178.83,259.661 178.83,263.161 179.5,266.5C 176.696,258.997 173.363,251.664 169.5,244.5C 169.611,243.883 169.944,243.383 170.5,243C 169.182,240.176 167.515,237.676 165.5,235.5C 163.642,233.117 162.308,230.45 161.5,227.5C 161.5,226.833 161.5,226.167 161.5,225.5 Z"/></g>
<g><path style="opacity:0.365" fill="#5e7282" d="M 165.5,235.5 C 167.515,237.676 169.182,240.176 170.5,243C 169.944,243.383 169.611,243.883 169.5,244.5C 167.375,241.912 166.042,238.912 165.5,235.5 Z"/></g>
<g><path style="opacity:1" fill="#e26725" d="M 289.5,225.5 C 289.318,227.591 289.652,229.591 290.5,231.5C 289.624,232.251 288.624,232.751 287.5,233C 288.609,234.813 287.942,235.646 285.5,235.5C 284.839,239.333 286.172,240.833 289.5,240C 288.12,243.383 285.62,245.216 282,245.5C 281.096,248.398 279.762,251.064 278,253.5C 277.329,254.252 276.496,254.586 275.5,254.5C 279.041,244.167 283.707,234.5 289.5,225.5 Z"/></g>
<g><path style="opacity:1" fill="#445b6f" d="M 224.5,227.5 C 228.288,233.412 231.288,239.745 233.5,246.5C 232.778,246.082 232.278,245.416 232,244.5C 231.683,246.301 231.016,246.634 230,245.5C 228.442,239.393 226.609,233.393 224.5,227.5 Z"/></g>
<g><path style="opacity:0.416" fill="#5f7586" d="M 78.5,245.5 C 81.5616,246.268 83.2283,248.268 83.5,251.5C 81.3674,249.909 79.7007,247.909 78.5,245.5 Z"/></g>
<g><path style="opacity:0.71" fill="#556a7a" d="M 166.5,245.5 C 168.153,248.759 169.819,252.093 171.5,255.5C 168.29,253.082 166.624,249.748 166.5,245.5 Z"/></g>
<g><path style="opacity:0.384" fill="#576b7d" d="M 171.5,256.5 C 173.341,258.849 174.674,261.515 175.5,264.5C 174.222,264.218 173.222,263.551 172.5,262.5C 171.85,260.565 171.517,258.565 171.5,256.5 Z"/></g>
<g><path style="opacity:0.314" fill="#6e8190" d="M 236.5,252.5 C 240.225,257.956 242.891,263.956 244.5,270.5C 240.767,265.03 238.101,259.03 236.5,252.5 Z"/></g>
<g><path style="opacity:0.039" fill="#c87e58" d="M 345.5,234.5 C 345.657,235.873 345.49,237.207 345,238.5C 338.013,252.212 331.18,265.879 324.5,279.5C 327.747,270.932 330.913,262.266 334,253.5C 337.93,247.189 341.763,240.856 345.5,234.5 Z"/></g>
<g><path style="opacity:0.639" fill="#c47f57" d="M 423.5,256.5 C 422.03,261.741 418.863,265.741 414,268.5C 413.956,271.475 414.123,274.475 414.5,277.5C 413.833,276.167 413.167,274.833 412.5,273.5C 412.338,271.473 412.505,269.473 413,267.5C 416.516,263.759 420.016,260.092 423.5,256.5 Z"/></g>
<g><path style="opacity:0.055" fill="#62737f" d="M 175.5,265.5 C 177.213,266.635 177.88,268.302 177.5,270.5C 176.399,269.152 175.399,267.652 174.5,266C 174.728,265.601 175.062,265.435 175.5,265.5 Z"/></g>
<g><path style="opacity:1" fill="#475e71" d="M 179.5,266.5 C 180.5,266.5 181.5,266.5 182.5,266.5C 184.082,270.727 185.415,275.06 186.5,279.5C 183.405,275.648 181.072,271.315 179.5,266.5 Z"/></g>
<g><path style="opacity:1" fill="#586c7e" d="M 244.5,271.5 C 247.616,276.07 249.95,281.07 251.5,286.5C 250.25,286.423 249.417,285.756 249,284.5C 246.911,280.332 245.411,275.998 244.5,271.5 Z"/></g>
<g><path style="opacity:0.9" fill="#cb8863" d="M 269.5,263.5 C 270.043,263.56 270.376,263.893 270.5,264.5C 265.448,275.986 260.781,287.653 256.5,299.5C 256.167,299.5 255.833,299.5 255.5,299.5C 255.5,297.833 255.5,296.167 255.5,294.5C 260.142,285.543 263.975,276.21 267,266.5C 267.852,265.429 268.685,264.429 269.5,263.5 Z"/></g>
<g><path style="opacity:1" fill="#5d717f" d="M 187.5,282.5 C 189.5,285.833 191.5,289.167 193.5,292.5C 193.968,295.738 195.302,298.571 197.5,301C 198.287,303.099 198.62,305.266 198.5,307.5C 195.108,301.72 191.941,295.72 189,289.5C 188.023,287.26 187.523,284.927 187.5,282.5 Z"/></g>
<g><path style="opacity:1" fill="#da6b30" d="M 412.5,273.5 C 413.167,274.833 413.833,276.167 414.5,277.5C 413.886,281.135 413.552,284.802 413.5,288.5C 413.768,290.099 413.434,291.432 412.5,292.5C 411.833,292.5 411.167,292.5 410.5,292.5C 411.521,286.212 412.188,279.879 412.5,273.5 Z"/></g>
<g><path style="opacity:0.808" fill="#c68761" d="M 414.5,277.5 C 415.603,281.24 415.27,284.906 413.5,288.5C 413.552,284.802 413.886,281.135 414.5,277.5 Z"/></g>
<g><path style="opacity:1" fill="#df6828" d="M 275.5,254.5 C 275.261,256.467 275.594,258.301 276.5,260C 272.674,264.998 269.674,270.331 267.5,276C 265.725,280.044 264.392,284.211 263.5,288.5C 270.056,289.394 270.056,290.394 263.5,291.5C 262.914,291.291 262.414,290.957 262,290.5C 261.8,293.734 260.967,296.734 259.5,299.5C 260.156,301.453 260.489,303.453 260.5,305.5C 259.833,305.167 259.167,304.833 258.5,304.5C 257.833,302.833 257.167,301.167 256.5,299.5C 260.781,287.653 265.448,275.986 270.5,264.5C 270.376,263.893 270.043,263.56 269.5,263.5C 269.5,263.167 269.5,262.833 269.5,262.5C 270.496,262.586 271.329,262.252 272,261.5C 272.672,258.822 273.839,256.489 275.5,254.5 Z"/></g>
<g><path style="opacity:0.235" fill="#c47951" d="M 340.5,255.5 C 335.36,269.77 329.693,283.77 323.5,297.5C 323.167,297.5 322.833,297.5 322.5,297.5C 324.216,290.064 327.05,283.064 331,276.5C 333.083,268.946 336.25,261.946 340.5,255.5 Z"/></g>
<g><path style="opacity:0.247" fill="#617988" d="M 251.5,287.5 C 253.008,289.181 254.008,291.181 254.5,293.5C 252.487,292.525 251.154,290.858 250.5,288.5C 250.624,287.893 250.957,287.56 251.5,287.5 Z"/></g>
<g><path style="opacity:1" fill="#4b5f6e" d="M 185.5,288.5 C 187.585,290.684 188.585,293.351 188.5,296.5C 186.941,294.392 185.608,292.059 184.5,289.5C 184.624,288.893 184.957,288.56 185.5,288.5 Z"/></g>
<g><path style="opacity:1" fill="#3e5668" d="M 84.5,252.5 C 86.2292,253.117 87.7292,254.117 89,255.5C 91.3306,261.173 95.164,265.673 100.5,269C 97.6655,274.446 96.8321,280.279 98,286.5C 101.236,296.817 105.069,306.817 109.5,316.5C 100.833,305.979 96.1665,293.812 95.5,280C 95.7301,276.408 96.7301,273.075 98.5,270C 92.2657,265.334 87.599,259.501 84.5,252.5 Z"/></g>
<g><path style="opacity:1" fill="#2d4c64" d="M 172.5,262.5 C 173.222,263.551 174.222,264.218 175.5,264.5C 175.5,264.833 175.5,265.167 175.5,265.5C 175.062,265.435 174.728,265.601 174.5,266C 175.399,267.652 176.399,269.152 177.5,270.5C 180.713,276.26 183.38,282.26 185.5,288.5C 184.957,288.56 184.624,288.893 184.5,289.5C 185.608,292.059 186.941,294.392 188.5,296.5C 191.405,301.205 193.738,306.205 195.5,311.5C 195.292,315.085 196.625,317.751 199.5,319.5C 199.5,319.833 199.5,320.167 199.5,320.5C 198.646,321.632 198.646,322.965 199.5,324.5C 197.058,324.646 196.391,323.813 197.5,322C 195.667,319.5 193.833,317 192,314.5C 192.991,307.726 190.825,302.393 185.5,298.5C 185.03,296.226 184.03,294.226 182.5,292.5C 183.222,289.543 183.055,286.543 182,283.5C 181.311,282.643 180.478,281.977 179.5,281.5C 176.673,275.343 174.34,269.01 172.5,262.5 Z"/></g>
<g><path style="opacity:1" fill="#926047" d="M 255.5,299.5 C 255.833,299.5 256.167,299.5 256.5,299.5C 257.167,301.167 257.833,302.833 258.5,304.5C 259.15,306.435 259.483,308.435 259.5,310.5C 258.167,307.5 256.833,304.5 255.5,301.5C 255.5,300.833 255.5,300.167 255.5,299.5 Z"/></g>
<g><path style="opacity:0.384" fill="#cb835c" d="M 410.5,292.5 C 411.167,292.5 411.833,292.5 412.5,292.5C 411.323,300.852 407.989,308.185 402.5,314.5C 404.509,308.65 407.009,302.983 410,297.5C 410.494,295.866 410.66,294.199 410.5,292.5 Z"/></g>
<g><path style="opacity:0.22" fill="#c98058" d="M 324.5,279.5 C 323.94,281.801 323.44,284.134 323,286.5C 315.195,302.774 307.695,319.107 300.5,335.5C 301.063,331.029 302.23,326.696 304,322.5C 304.667,321.833 305.333,321.167 306,320.5C 311.024,307.14 316.524,293.973 322.5,281C 322.836,279.97 323.503,279.47 324.5,279.5 Z"/></g>
<g><path style="opacity:1" fill="#404349" d="M 255.5,301.5 C 256.833,304.5 258.167,307.5 259.5,310.5C 259.5,311.833 259.5,313.167 259.5,314.5C 256.925,310.699 255.592,306.365 255.5,301.5 Z"/></g>
<g><path style="opacity:1" fill="#284b68" d="M 193.5,292.5 C 195.74,293.568 197.574,295.234 199,297.5C 200.333,296.833 201.333,295.833 202,294.5C 202.212,296.78 203.045,298.78 204.5,300.5C 204.167,301.5 203.5,302.167 202.5,302.5C 201.575,301.359 200.741,301.359 200,302.5C 200.526,307.199 202.86,310.866 207,313.5C 207.308,312.692 207.808,312.025 208.5,311.5C 210.167,312.5 211.5,313.833 212.5,315.5C 212,315.833 211.5,316.167 211,316.5C 209.7,315.293 208.2,314.626 206.5,314.5C 206.187,317.247 206.52,319.914 207.5,322.5C 208.086,322.291 208.586,321.957 209,321.5C 208.954,324.633 209.954,327.3 212,329.5C 213.445,326.91 214.612,324.243 215.5,321.5C 216.833,321.5 218.167,321.5 219.5,321.5C 219.663,323.857 219.497,326.19 219,328.5C 218.667,327.833 218.333,327.167 218,326.5C 216.091,328.442 213.925,330.109 211.5,331.5C 213.295,336.142 213.961,340.809 213.5,345.5C 208.133,333.084 203.133,320.417 198.5,307.5C 198.62,305.266 198.287,303.099 197.5,301C 195.302,298.571 193.968,295.738 193.5,292.5 Z"/></g>
<g><path style="opacity:1" fill="#875945" d="M 259.5,310.5 C 261.074,312.102 261.741,314.102 261.5,316.5C 260.833,315.833 260.167,315.167 259.5,314.5C 259.5,313.167 259.5,311.833 259.5,310.5 Z"/></g>
<g><path style="opacity:1" fill="#667886" d="M 195.5,311.5 C 197.341,313.849 198.674,316.515 199.5,319.5C 196.625,317.751 195.292,315.085 195.5,311.5 Z"/></g>
<g><path style="opacity:1" fill="#627888" d="M 109.5,316.5 C 111.588,318.336 112.921,320.669 113.5,323.5C 110.549,322.191 109.216,319.857 109.5,316.5 Z"/></g>
<g><path style="opacity:1" fill="#4d4446" d="M 259.5,314.5 C 260.167,315.167 260.833,315.833 261.5,316.5C 262.578,319.402 263.244,322.402 263.5,325.5C 261,322.34 259.667,318.673 259.5,314.5 Z"/></g>
<g><path style="opacity:1" fill="#c56b3c" d="M 258.5,304.5 C 259.167,304.833 259.833,305.167 260.5,305.5C 261.71,311.668 263.543,317.668 266,323.5C 266.497,326.146 266.664,328.813 266.5,331.5C 265.5,329.5 264.5,327.5 263.5,325.5C 263.244,322.402 262.578,319.402 261.5,316.5C 261.741,314.102 261.074,312.102 259.5,310.5C 259.483,308.435 259.15,306.435 258.5,304.5 Z"/></g>
<g><path style="opacity:0.004" fill="#637382" d="M 199.5,320.5 C 200.537,321.93 201.204,323.597 201.5,325.5C 200.833,325.167 200.167,324.833 199.5,324.5C 198.646,322.965 198.646,321.632 199.5,320.5 Z"/></g>
<g><path style="opacity:1" fill="#694c45" d="M 263.5,325.5 C 264.5,327.5 265.5,329.5 266.5,331.5C 266.5,332.833 266.5,334.167 266.5,335.5C 265.5,333.5 264.5,331.5 263.5,329.5C 263.5,328.167 263.5,326.833 263.5,325.5 Z"/></g>
<g><path style="opacity:1" fill="#c76b3a" d="M 266.5,331.5 C 267.151,332.091 267.818,332.757 268.5,333.5C 269.446,340.642 270.779,347.642 272.5,354.5C 271.833,354.5 271.167,354.5 270.5,354.5C 269.784,349.651 268.784,344.985 267.5,340.5C 267.634,338.708 267.301,337.042 266.5,335.5C 266.5,334.167 266.5,332.833 266.5,331.5 Z"/></g>
<g><path style="opacity:0.69" fill="#43586a" d="M 117.5,329.5 C 121.282,330.788 123.449,333.455 124,337.5C 128.524,340.864 131.857,345.197 134,350.5C 136.244,353.308 139.077,355.308 142.5,356.5C 143.677,359.531 145.344,362.198 147.5,364.5C 146.833,364.5 146.167,364.5 145.5,364.5C 141.203,359.702 136.703,355.035 132,350.5C 126.951,343.623 122.117,336.623 117.5,329.5 Z"/></g>
<g><path style="opacity:0.267" fill="#596e7c" d="M 201.5,326.5 C 205.981,333.59 209.314,341.256 211.5,349.5C 208.065,343.402 204.898,337.069 202,330.5C 201.51,329.207 201.343,327.873 201.5,326.5 Z"/></g>
<g><path style="opacity:1" fill="#e16824" d="M 322.5,297.5 C 322.833,297.5 323.167,297.5 323.5,297.5C 324.584,303.404 322.751,308.404 318,312.5C 317.405,313.899 317.572,315.232 318.5,316.5C 317.535,317.914 316.535,318.747 315.5,319C 315.645,319.772 315.978,320.439 316.5,321C 315.584,321.374 314.75,321.874 314,322.5C 313.727,325.393 312.893,328.06 311.5,330.5C 311.608,331.442 311.941,332.275 312.5,333C 311.234,333.309 310.067,333.809 309,334.5C 308.808,336.577 308.308,338.577 307.5,340.5C 304.207,343.098 303.874,345.931 306.5,349C 305.5,349.333 304.5,349.667 303.5,350C 303.966,351.299 303.966,352.799 303.5,354.5C 302.5,354.5 301.5,354.5 300.5,354.5C 300.351,355.552 300.517,356.552 301,357.5C 303.628,359.126 305.961,361.126 308,363.5C 308.667,364.167 308.667,364.833 308,365.5C 304.19,363.977 300.357,362.644 296.5,361.5C 303.86,341.925 312.026,322.592 321,303.5C 321.49,302.207 321.657,300.873 321.5,299.5C 321.328,298.508 321.662,297.842 322.5,297.5 Z"/></g>
<g><path style="opacity:1" fill="#484449" d="M 267.5,340.5 C 268.784,344.985 269.784,349.651 270.5,354.5C 270.5,355.833 270.5,357.167 270.5,358.5C 269.223,357.306 268.556,355.64 268.5,353.5C 267.918,349.182 267.585,344.849 267.5,340.5 Z"/></g>
<g><path style="opacity:1" fill="#ab6644" d="M 270.5,354.5 C 271.167,354.5 271.833,354.5 272.5,354.5C 272.5,358.167 272.5,361.833 272.5,365.5C 271.833,363.167 271.167,360.833 270.5,358.5C 270.5,357.167 270.5,355.833 270.5,354.5 Z"/></g>
<g><path style="opacity:0.608" fill="#c78058" d="M 321.5,299.5 C 321.657,300.873 321.49,302.207 321,303.5C 312.026,322.592 303.86,341.925 296.5,361.5C 293.847,366.417 291.18,371.417 288.5,376.5C 288.523,374.073 289.023,371.74 290,369.5C 294.121,361.797 297.454,353.797 300,345.5C 307.099,329.987 314.266,314.654 321.5,299.5 Z"/></g>
<g><path style="opacity:0.443" fill="#798c99" d="M 145.5,364.5 C 146.167,364.5 146.833,364.5 147.5,364.5C 150.167,367.5 152.833,370.5 155.5,373.5C 155.5,373.833 155.5,374.167 155.5,374.5C 151.758,371.425 148.425,368.091 145.5,364.5 Z"/></g>
<g><path style="opacity:1" fill="#304558" d="M 263.5,329.5 C 264.5,331.5 265.5,333.5 266.5,335.5C 267.301,337.042 267.634,338.708 267.5,340.5C 267.585,344.849 267.918,349.182 268.5,353.5C 268.556,355.64 269.223,357.306 270.5,358.5C 271.057,366.177 271.724,373.844 272.5,381.5C 268.592,364.518 265.592,347.185 263.5,329.5 Z"/></g>
<g><path style="opacity:0.537" fill="#cb8058" d="M 402.5,314.5 C 402.005,316.482 401.505,318.482 401,320.5C 383.067,346.59 362.234,369.923 338.5,390.5C 341.355,389.883 344.022,388.883 346.5,387.5C 340.277,392.447 333.277,396.113 325.5,398.5C 324.479,397.998 324.312,397.332 325,396.5C 327.034,394.968 329.201,393.635 331.5,392.5C 332.386,391.675 332.719,390.675 332.5,389.5C 333.873,389.657 335.207,389.49 336.5,389C 362.588,367.558 384.588,342.725 402.5,314.5 Z M 338.5,390.5 C 337.486,391.674 336.153,392.34 334.5,392.5C 335.287,390.896 336.62,390.229 338.5,390.5 Z"/></g>
<g><path style="opacity:1" fill="#415a6c" d="M 155.5,373.5 C 157.179,373.892 158.846,374.392 160.5,375C 163.586,380.215 167.919,384.048 173.5,386.5C 174.18,387.86 174.847,389.193 175.5,390.5C 174.5,390.5 173.5,390.5 172.5,390.5C 167.066,384.944 161.399,379.611 155.5,374.5C 155.5,374.167 155.5,373.833 155.5,373.5 Z"/></g>
<g><path style="opacity:0.533" fill="#617382" d="M 222.5,369.5 C 225.867,372.218 227.534,375.884 227.5,380.5C 225.277,377.198 223.61,373.532 222.5,369.5 Z"/></g>
<g><path style="opacity:1" fill="#d56c32" d="M 274.5,367.5 C 275.29,368.609 275.79,369.942 276,371.5C 276.499,376.155 276.666,380.821 276.5,385.5C 277.833,385.5 279.167,385.5 280.5,385.5C 279.275,386.937 278.275,388.604 277.5,390.5C 276.817,390.137 276.15,389.804 275.5,389.5C 275.5,387.833 275.5,386.167 275.5,384.5C 275.24,378.828 274.907,373.161 274.5,367.5 Z"/></g>
<g><path style="opacity:1" fill="#556777" d="M 154.5,380.5 C 150.816,379.272 147.15,379.272 143.5,380.5C 144.315,378.698 145.815,377.698 148,377.5C 150.609,377.838 152.776,378.838 154.5,380.5 Z"/></g>
<g><path style="opacity:1" fill="#36526a" d="M 154.5,380.5 C 154.5,381.167 154.5,381.833 154.5,382.5C 152.068,382.364 149.568,382.031 147,381.5C 146.825,384.157 146.992,386.824 147.5,389.5C 148.822,389.33 149.989,389.663 151,390.5C 152.122,394.216 153.289,397.882 154.5,401.5C 153.624,401.631 152.957,401.298 152.5,400.5C 150.333,396.833 148.167,393.167 146,389.5C 144.092,386.794 143.259,383.794 143.5,380.5C 147.15,379.272 150.816,379.272 154.5,380.5 Z"/></g>
<g><path style="opacity:1" fill="#b36a44" d="M 272.5,365.5 C 273.167,366.167 273.833,366.833 274.5,367.5C 274.907,373.161 275.24,378.828 275.5,384.5C 274.833,381.833 274.167,379.167 273.5,376.5C 273.448,372.802 273.114,369.135 272.5,365.5 Z"/></g>
<g><path style="opacity:1" fill="#79574c" d="M 273.5,376.5 C 274.167,379.167 274.833,381.833 275.5,384.5C 275.5,386.167 275.5,387.833 275.5,389.5C 275.121,392.567 276.121,393.567 278.5,392.5C 278.833,392.5 279.167,392.5 279.5,392.5C 278.491,395.166 276.824,395.833 274.5,394.5C 274.167,388.5 273.833,382.5 273.5,376.5 Z"/></g>
<g><path style="opacity:1" fill="#c77e56" d="M 300.5,335.5 C 300.579,338.271 300.079,340.937 299,343.5C 296,350.167 293,356.833 290,363.5C 287.386,372.721 284.219,381.721 280.5,390.5C 279.833,390.5 279.5,390.833 279.5,391.5C 278.833,391.5 278.5,391.833 278.5,392.5C 276.121,393.567 275.121,392.567 275.5,389.5C 276.15,389.804 276.817,390.137 277.5,390.5C 278.275,388.604 279.275,386.937 280.5,385.5C 285.968,368.23 292.635,351.564 300.5,335.5 Z"/></g>
<g><path style="opacity:0.486" fill="#5c7280" d="M 154.5,380.5 C 157.709,382.265 160.709,384.265 163.5,386.5C 160.419,385.462 157.419,384.128 154.5,382.5C 154.5,381.833 154.5,381.167 154.5,380.5 Z"/></g>
<g><path style="opacity:0.847" fill="#b97b58" d="M 286.5,380.5 C 286.534,383.199 285.867,385.699 284.5,388C 285.094,388.464 285.761,388.631 286.5,388.5C 286.5,388.833 286.5,389.167 286.5,389.5C 284.965,390.354 283.632,390.354 282.5,389.5C 283.597,386.314 284.93,383.314 286.5,380.5 Z"/></g>
<g><path style="opacity:0.796" fill="#ce835e" d="M 361.5,378.5 C 357.733,381.087 354.067,383.92 350.5,387C 349.207,387.49 347.873,387.657 346.5,387.5C 350.098,384.687 353.765,381.853 357.5,379C 358.793,378.51 360.127,378.343 361.5,378.5 Z"/></g>
<g><path style="opacity:0.541" fill="#626e7c" d="M 226.5,385.5 C 227.593,387.349 228.926,389.016 230.5,390.5C 230.833,391.833 231.167,391.833 231.5,390.5C 232.338,390.842 232.672,391.508 232.5,392.5C 231.833,392.833 231.167,393.167 230.5,393.5C 229.833,393.167 229.167,392.833 228.5,392.5C 227.545,390.254 226.878,387.921 226.5,385.5 Z"/></g>
<g><path style="opacity:1" fill="#c96c3b" d="M 288.5,377.5 C 287.735,380.096 287.401,382.763 287.5,385.5C 290.721,384.889 293.721,383.722 296.5,382C 298.387,381.22 300.054,381.387 301.5,382.5C 298.284,382.345 295.617,383.345 293.5,385.5C 290.881,385.925 288.547,386.925 286.5,388.5C 285.761,388.631 285.094,388.464 284.5,388C 285.867,385.699 286.534,383.199 286.5,380.5C 286.427,378.973 287.094,377.973 288.5,377.5 Z"/></g>
<g><path style="opacity:1" fill="#5e4541" d="M 301.5,382.5 C 303.081,384.142 303.747,386.142 303.5,388.5C 302.833,389.167 302.167,389.833 301.5,390.5C 301.5,388.5 301.5,386.5 301.5,384.5C 298.763,384.401 296.096,384.735 293.5,385.5C 295.617,383.345 298.284,382.345 301.5,382.5 Z"/></g>
<g><path style="opacity:1" fill="#654c41" d="M 293.5,385.5 C 291.434,387.199 289.1,388.532 286.5,389.5C 286.5,389.167 286.5,388.833 286.5,388.5C 288.547,386.925 290.881,385.925 293.5,385.5 Z"/></g>
<g><path style="opacity:1" fill="#3e434d" d="M 270.5,358.5 C 271.167,360.833 271.833,363.167 272.5,365.5C 273.114,369.135 273.448,372.802 273.5,376.5C 273.833,382.5 274.167,388.5 274.5,394.5C 274.167,394.5 273.833,394.5 273.5,394.5C 272.515,390.366 272.182,386.032 272.5,381.5C 271.724,373.844 271.057,366.177 270.5,358.5 Z"/></g>
<g><path style="opacity:0.584" fill="#5c7587" d="M 168.5,389.5 C 169.833,389.833 171.167,390.167 172.5,390.5C 173.514,391.674 174.847,392.34 176.5,392.5C 177.167,392.5 177.5,392.833 177.5,393.5C 177.833,394.833 178.167,394.833 178.5,393.5C 182.414,394.24 185.747,396.073 188.5,399C 182.503,396.985 176.503,394.652 170.5,392C 169.619,391.292 168.953,390.458 168.5,389.5 Z"/></g>
<g><path style="opacity:1" fill="#ba6940" d="M 303.5,388.5 C 303.853,392.465 302.187,395.131 298.5,396.5C 298.557,395.391 298.89,394.391 299.5,393.5C 300.167,392.5 300.833,391.5 301.5,390.5C 302.167,389.833 302.833,389.167 303.5,388.5 Z"/></g>
<g><path style="opacity:0.486" fill="#ca8761" d="M 364.5,378.5 C 365.5,378.5 366.5,378.5 367.5,378.5C 367.663,380.857 367.497,383.19 367,385.5C 364.222,391.412 360.722,396.745 356.5,401.5C 359.151,396.198 361.818,390.864 364.5,385.5C 365.714,383.141 365.714,380.808 364.5,378.5 Z"/></g>
<g><path style="opacity:1" fill="#274864" d="M 301.5,390.5 C 300.833,391.5 300.167,392.5 299.5,393.5C 296.294,396.197 293.294,399.197 290.5,402.5C 289.05,403.85 288.383,405.516 288.5,407.5C 287.4,408.605 286.733,409.938 286.5,411.5C 286.167,411.5 285.833,411.5 285.5,411.5C 285.167,411.5 284.833,411.5 284.5,411.5C 284.978,408.722 283.978,406.722 281.5,405.5C 285.102,403.678 285.102,402.678 281.5,402.5C 281.762,401.022 281.429,399.689 280.5,398.5C 278.253,397.626 275.92,397.292 273.5,397.5C 273.5,396.5 273.5,395.5 273.5,394.5C 273.833,394.5 274.167,394.5 274.5,394.5C 276.824,395.833 278.491,395.166 279.5,392.5C 279.5,392.167 279.5,391.833 279.5,391.5C 280.167,391.5 280.5,391.167 280.5,390.5C 281.167,390.167 281.833,389.833 282.5,389.5C 283.632,390.354 284.965,390.354 286.5,389.5C 289.1,388.532 291.434,387.199 293.5,385.5C 296.096,384.735 298.763,384.401 301.5,384.5C 301.5,386.5 301.5,388.5 301.5,390.5 Z"/></g>
<g><path style="opacity:1" fill="#6a4c44" d="M 299.5,393.5 C 298.89,394.391 298.557,395.391 298.5,396.5C 295.098,399.895 292.098,403.562 289.5,407.5C 289.167,407.5 288.833,407.5 288.5,407.5C 288.383,405.516 289.05,403.85 290.5,402.5C 293.294,399.197 296.294,396.197 299.5,393.5 Z"/></g>
<g><path style="opacity:1" fill="#4b474d" d="M 228.5,392.5 C 229.167,392.833 229.833,393.167 230.5,393.5C 232.547,397.97 234.213,402.636 235.5,407.5C 233.373,403.929 231.206,400.262 229,396.5C 228.51,395.207 228.343,393.873 228.5,392.5 Z"/></g>
<g><path style="opacity:1" fill="#c96b3a" d="M 298.5,396.5 C 295.853,401.135 292.853,405.468 289.5,409.5C 289.5,408.833 289.5,408.167 289.5,407.5C 292.098,403.562 295.098,399.895 298.5,396.5 Z"/></g>
<g><path style="opacity:1" fill="#2f455d" d="M 232.5,392.5 C 240.771,401.34 245.104,412.007 245.5,424.5C 247.103,424.312 248.437,424.812 249.5,426C 248.577,428.041 248.244,430.208 248.5,432.5C 245.167,424.833 241.833,417.167 238.5,409.5C 237.333,403.507 235.333,397.84 232.5,392.5 Z"/></g>
<g><path style="opacity:0.71" fill="#788896" d="M 154.5,401.5 C 155.167,401.833 155.833,402.167 156.5,402.5C 158.193,405.184 159.86,407.851 161.5,410.5C 158.027,408.363 155.694,405.363 154.5,401.5 Z"/></g>
<g><path style="opacity:1" fill="#8b6c5f" d="M 232.5,392.5 C 235.333,397.84 237.333,403.507 238.5,409.5C 238.672,410.492 238.338,411.158 237.5,411.5C 237.34,409.847 236.674,408.514 235.5,407.5C 234.213,402.636 232.547,397.97 230.5,393.5C 231.167,393.167 231.833,392.833 232.5,392.5 Z"/></g>
<g><path style="opacity:1" fill="#a96746" d="M 288.5,407.5 C 288.833,407.5 289.167,407.5 289.5,407.5C 289.5,408.167 289.5,408.833 289.5,409.5C 288.5,410.167 287.5,410.833 286.5,411.5C 286.733,409.938 287.4,408.605 288.5,407.5 Z"/></g>
<g><path style="opacity:0.745" fill="#c77d56" d="M 356.5,401.5 C 354.386,406.737 350.719,410.404 345.5,412.5C 348.5,408.167 352.167,404.5 356.5,401.5 Z"/></g>
<g><path style="opacity:1" fill="#976249" d="M 285.5,411.5 C 285.833,411.5 286.167,411.5 286.5,411.5C 286.155,414.198 284.822,416.198 282.5,417.5C 283.471,415.517 284.471,413.517 285.5,411.5 Z"/></g>
<g><path style="opacity:1" fill="#504749" d="M 284.5,411.5 C 284.833,411.5 285.167,411.5 285.5,411.5C 284.471,413.517 283.471,415.517 282.5,417.5C 282.5,418.167 282.5,418.833 282.5,419.5C 281.5,420.167 280.5,420.833 279.5,421.5C 280.577,417.813 282.243,414.48 284.5,411.5 Z"/></g>
<g><path style="opacity:1" fill="#395266" d="M 156.5,402.5 C 161.673,404.915 165.673,408.749 168.5,414C 166.59,414.408 165.59,415.575 165.5,417.5C 166.79,421.715 168.456,425.715 170.5,429.5C 165.869,425.908 163.702,421.241 164,415.5C 164.692,414.975 165.192,414.308 165.5,413.5C 164.148,412.476 162.815,411.476 161.5,410.5C 159.86,407.851 158.193,405.184 156.5,402.5 Z"/></g>
<g><path style="opacity:1" fill="#b06844" d="M 282.5,419.5 C 279.665,423.666 277.998,428.333 277.5,433.5C 276.549,432.081 276.216,430.415 276.5,428.5C 277.341,426.188 278.341,423.855 279.5,421.5C 280.5,420.833 281.5,420.167 282.5,419.5 Z"/></g>
<g><path style="opacity:1" fill="#68646a" d="M 238.5,409.5 C 241.833,417.167 245.167,424.833 248.5,432.5C 248.328,433.492 248.662,434.158 249.5,434.5C 249.649,435.552 249.483,436.552 249,437.5C 248.392,435.934 247.558,434.6 246.5,433.5C 246.443,432.391 246.11,431.391 245.5,430.5C 242.832,424.162 240.165,417.828 237.5,411.5C 238.338,411.158 238.672,410.492 238.5,409.5 Z"/></g>
<g><path style="opacity:1" fill="#3a4655" d="M 235.5,407.5 C 236.674,408.514 237.34,409.847 237.5,411.5C 240.165,417.828 242.832,424.162 245.5,430.5C 244.5,430.5 243.5,430.5 242.5,430.5C 239.713,423.029 237.379,415.362 235.5,407.5 Z"/></g>
<g><path style="opacity:1" fill="#835045" d="M 295.5,430.5 C 297.735,430.205 299.735,430.539 301.5,431.5C 299.901,431.232 298.568,431.566 297.5,432.5C 296.5,432.5 295.5,432.5 294.5,432.5C 294.167,432.5 293.833,432.5 293.5,432.5C 294.167,431.833 294.833,431.167 295.5,430.5 Z"/></g>
<g><path style="opacity:1" fill="#8f5b45" d="M 276.5,428.5 C 276.216,430.415 276.549,432.081 277.5,433.5C 281.167,433.5 284.833,433.5 288.5,433.5C 288.5,433.833 288.5,434.167 288.5,434.5C 284.167,434.5 279.833,434.5 275.5,434.5C 275.205,432.265 275.539,430.265 276.5,428.5 Z"/></g>
<g><path style="opacity:1" fill="#534840" d="M 293.5,432.5 C 293.833,432.5 294.167,432.5 294.5,432.5C 292.898,434.074 290.898,434.741 288.5,434.5C 288.5,434.167 288.5,433.833 288.5,433.5C 290.117,432.962 291.784,432.629 293.5,432.5 Z"/></g>
<g><path style="opacity:1" fill="#ae663f" d="M 301.5,431.5 C 303.722,431.559 304.722,432.725 304.5,435C 304.316,436.376 303.649,437.209 302.5,437.5C 302.675,435.379 302.341,433.379 301.5,431.5 Z"/></g>
<g><path style="opacity:0.402" fill="#c78157" d="M 345.5,412.5 C 348.32,416.598 348.153,420.598 345,424.5C 340.548,430.953 335.381,436.786 329.5,442C 327.183,444.157 324.516,445.657 321.5,446.5C 322.167,445.5 322.833,444.5 323.5,443.5C 326.789,441.384 329.956,439.051 333,436.5C 336.955,430.877 341.288,425.543 346,420.5C 346.667,419.167 346.667,417.833 346,416.5C 343.275,415.075 343.108,413.742 345.5,412.5 Z"/></g>
<g><path style="opacity:1" fill="#4f4140" d="M 297.5,432.5 C 298.568,431.566 299.901,431.232 301.5,431.5C 302.341,433.379 302.675,435.379 302.5,437.5C 302.573,439.027 301.906,440.027 300.5,440.5C 301.623,438.021 301.623,435.688 300.5,433.5C 299.791,432.596 298.791,432.263 297.5,432.5 Z"/></g>
<g><path style="opacity:1" fill="#304c66" d="M 246.5,433.5 C 247.558,434.6 248.392,435.934 249,437.5C 249.483,436.552 249.649,435.552 249.5,434.5C 253.182,437.867 256.182,441.867 258.5,446.5C 258.167,447.167 257.833,447.833 257.5,448.5C 258.167,448.833 258.833,449.167 259.5,449.5C 256.322,454.438 257.322,457.105 262.5,457.5C 261.095,459.883 261.429,462.05 263.5,464C 262.813,465.162 262.647,466.328 263,467.5C 264.848,469.679 267.015,471.513 269.5,473C 268.139,474.584 267.472,476.418 267.5,478.5C 267.167,478.5 266.833,478.5 266.5,478.5C 263.866,473.232 261.199,467.899 258.5,462.5C 259.867,460.907 259.534,459.574 257.5,458.5C 256.575,459.357 255.908,460.357 255.5,461.5C 254.395,462.6 253.062,463.267 251.5,463.5C 248.911,464.419 246.911,466.086 245.5,468.5C 244.662,468.842 244.328,469.508 244.5,470.5C 244.167,470.5 243.833,470.5 243.5,470.5C 243.383,468.516 244.05,466.85 245.5,465.5C 245.291,464.914 244.957,464.414 244.5,464C 245.927,461.631 247.761,461.131 250,462.5C 250.419,458.148 251.086,457.815 252,461.5C 252.915,458.518 254.415,455.852 256.5,453.5C 253.608,449.509 251.274,445.176 249.5,440.5C 246.907,438.929 245.907,436.596 246.5,433.5 Z"/></g>
<g><path style="opacity:1" fill="#475d6f" d="M 176.5,436.5 C 179.144,438.628 182.144,440.128 185.5,441C 186.965,442.774 188.298,444.608 189.5,446.5C 184.021,444.692 179.688,441.358 176.5,436.5 Z"/></g>
<g><path style="opacity:1" fill="#e36723" d="M 323.5,443.5 C 322.833,444.5 322.167,445.5 321.5,446.5C 319.821,446.285 318.821,446.952 318.5,448.5C 316.517,448.157 315.183,448.824 314.5,450.5C 309.985,451.982 305.319,452.648 300.5,452.5C 299.833,452.5 299.167,452.5 298.5,452.5C 296.526,451.094 294.526,449.594 292.5,448C 293.756,447.583 294.423,446.75 294.5,445.5C 296.38,445.771 297.713,445.104 298.5,443.5C 299.167,442.5 299.833,441.5 300.5,440.5C 301.906,440.027 302.573,439.027 302.5,437.5C 303.649,437.209 304.316,436.376 304.5,435C 304.722,432.725 303.722,431.559 301.5,431.5C 299.735,430.539 297.735,430.205 295.5,430.5C 298.49,430.041 301.323,429.041 304,427.5C 304.5,429.333 305.667,430.5 307.5,431C 305.002,433.185 305.002,435.518 307.5,438C 306.305,439.533 306.305,441.033 307.5,442.5C 312.792,443.495 318.125,443.828 323.5,443.5 Z"/></g>
<g><path style="opacity:1" fill="#294761" d="M 300.5,433.5 C 301.623,435.688 301.623,438.021 300.5,440.5C 299.833,441.5 299.167,442.5 298.5,443.5C 296.847,443.66 295.514,444.326 294.5,445.5C 289.496,446.363 289.162,448.196 293.5,451C 295.154,451.608 296.821,452.108 298.5,452.5C 298.5,452.833 298.5,453.167 298.5,453.5C 294.035,453.13 289.702,452.13 285.5,450.5C 282.29,450.975 279.124,451.642 276,452.5C 274.775,452.138 273.609,451.638 272.5,451C 274,449.885 275.667,449.052 277.5,448.5C 279.993,449.964 282.326,449.797 284.5,448C 282.111,446.904 279.611,446.071 277,445.5C 276.586,445.957 276.086,446.291 275.5,446.5C 272.851,444.063 273.517,442.73 277.5,442.5C 279.767,442.559 280.433,443.392 279.5,445C 280.667,445.167 281.833,445.333 283,445.5C 286.429,444.353 289.929,443.52 293.5,443C 295.422,441.54 296.089,439.873 295.5,438C 298.958,438.898 300.625,437.398 300.5,433.5 Z"/></g>
<g><path style="opacity:1" fill="#a16646" d="M 298.5,443.5 C 297.713,445.104 296.38,445.771 294.5,445.5C 295.514,444.326 296.847,443.66 298.5,443.5 Z"/></g>
<g><path style="opacity:1" fill="#a36448" d="M 294.5,445.5 C 294.423,446.75 293.756,447.583 292.5,448C 294.526,449.594 296.526,451.094 298.5,452.5C 296.821,452.108 295.154,451.608 293.5,451C 289.162,448.196 289.496,446.363 294.5,445.5 Z"/></g>
<g><path style="opacity:0.2" fill="#d5936f" d="M 321.5,446.5 C 321.027,447.906 320.027,448.573 318.5,448.5C 318.821,446.952 319.821,446.285 321.5,446.5 Z"/></g>
<g><path style="opacity:0.871" fill="#d28559" d="M 318.5,448.5 C 317.486,449.674 316.153,450.34 314.5,450.5C 315.183,448.824 316.517,448.157 318.5,448.5 Z"/></g>
<g><path style="opacity:1" fill="#3a5469" d="M 189.5,446.5 C 192.789,447.409 196.122,448.409 199.5,449.5C 200.934,450.588 201.934,451.922 202.5,453.5C 197.68,451.926 193.347,449.593 189.5,446.5 Z"/></g>
<g><path style="opacity:1" fill="#cf7347" d="M 314.5,450.5 C 311.63,452.794 308.297,454.128 304.5,454.5C 303.167,453.833 301.833,453.167 300.5,452.5C 305.319,452.648 309.985,451.982 314.5,450.5 Z"/></g>
<g><path style="opacity:0.129" fill="#ab7e6b" d="M 298.5,453.5 C 298.5,453.167 298.5,452.833 298.5,452.5C 299.167,452.5 299.833,452.5 300.5,452.5C 301.833,453.167 303.167,453.833 304.5,454.5C 304.5,454.833 304.5,455.167 304.5,455.5C 303.167,455.167 301.833,454.833 300.5,454.5C 299.833,454.167 299.167,453.833 298.5,453.5 Z"/></g>
<g><path style="opacity:1" fill="#404650" d="M 207.5,455.5 C 208.622,454.844 209.955,454.511 211.5,454.5C 217.155,455.127 222.821,455.627 228.5,456C 230.668,457.97 231.002,460.137 229.5,462.5C 229.5,461.833 229.167,461.5 228.5,461.5C 228.773,459.549 228.107,458.049 226.5,457C 220.165,456.444 213.832,455.944 207.5,455.5 Z"/></g>
<g><path style="opacity:1" fill="#e56722" d="M 206.5,456.5 C 212.162,456.969 217.829,457.469 223.5,458C 227.363,459.814 227.03,460.98 222.5,461.5C 218.695,462.835 214.695,463.668 210.5,464C 208.881,464.236 207.881,465.069 207.5,466.5C 206.662,466.842 206.328,467.508 206.5,468.5C 205.833,468.5 205.167,468.5 204.5,468.5C 203.737,467.732 202.737,467.232 201.5,467C 200.941,466.275 200.608,465.442 200.5,464.5C 202.106,461.557 204.106,458.891 206.5,456.5 Z"/></g>
<g><path style="opacity:1" fill="#2b4b67" d="M 301.5,465.5 C 300.508,465.328 299.842,465.662 299.5,466.5C 294.118,465.373 288.784,464.039 283.5,462.5C 283.027,461.094 282.027,460.427 280.5,460.5C 278.052,459.527 275.385,459.194 272.5,459.5C 272.232,461.099 272.566,462.432 273.5,463.5C 273.861,467.915 275.194,471.915 277.5,475.5C 277.66,477.153 278.326,478.486 279.5,479.5C 279.813,483.042 279.479,486.375 278.5,489.5C 277.313,488.568 275.98,488.568 274.5,489.5C 272.825,489.132 271.825,488.132 271.5,486.5C 273.435,487.15 275.435,487.483 277.5,487.5C 277.664,484.813 277.497,482.146 277,479.5C 274.41,474.156 272.244,468.656 270.5,463C 271.004,458.342 273.671,456.175 278.5,456.5C 280.217,457.717 282.05,458.717 284,459.5C 284.574,458.646 285.241,457.646 286,456.5C 291.121,457.874 296.288,459.04 301.5,460C 302.138,461.707 302.138,463.54 301.5,465.5 Z"/></g>
<g><path style="opacity:1" fill="#66504f" d="M 280.5,460.5 C 278.167,460.5 275.833,460.5 273.5,460.5C 273.5,461.5 273.5,462.5 273.5,463.5C 272.566,462.432 272.232,461.099 272.5,459.5C 275.385,459.194 278.052,459.527 280.5,460.5 Z"/></g>
<g><path style="opacity:0.827" fill="#bd734d" d="M 206.5,456.5 C 206.5,456.167 206.5,455.833 206.5,455.5C 206.833,455.5 207.167,455.5 207.5,455.5C 213.832,455.944 220.165,456.444 226.5,457C 228.107,458.049 228.773,459.549 228.5,461.5C 227.833,461.5 227.5,461.833 227.5,462.5C 224.673,462.584 222.006,463.25 219.5,464.5C 220.1,463.1 221.1,462.1 222.5,461.5C 227.03,460.98 227.363,459.814 223.5,458C 217.829,457.469 212.162,456.969 206.5,456.5 Z"/></g>
<g><path style="opacity:0.369" fill="#9c7a70" d="M 258.5,462.5 C 257.391,462.443 256.391,462.11 255.5,461.5C 255.908,460.357 256.575,459.357 257.5,458.5C 259.534,459.574 259.867,460.907 258.5,462.5 Z"/></g>
<g><path style="opacity:1" fill="#ce6d3a" d="M 280.5,460.5 C 281.414,463.728 281.747,467.061 281.5,470.5C 281.5,470.833 281.5,471.167 281.5,471.5C 280.566,472.568 280.232,473.901 280.5,475.5C 279.5,475.5 278.5,475.5 277.5,475.5C 277.5,474.5 277.5,473.5 277.5,472.5C 276.167,469.5 274.833,466.5 273.5,463.5C 273.5,462.5 273.5,461.5 273.5,460.5C 275.833,460.5 278.167,460.5 280.5,460.5 Z"/></g>
<g><path style="opacity:0.996" fill="#c98763" d="M 206.5,456.5 C 204.106,458.891 202.106,461.557 200.5,464.5C 200.608,465.442 200.941,466.275 201.5,467C 202.737,467.232 203.737,467.732 204.5,468.5C 202.833,468.5 201.167,468.5 199.5,468.5C 197.776,461.931 200.109,457.931 206.5,456.5 Z"/></g>
<g><path style="opacity:1" fill="#db7339" d="M 222.5,461.5 C 221.1,462.1 220.1,463.1 219.5,464.5C 215.981,465.964 212.314,466.964 208.5,467.5C 208.5,466.833 208.167,466.5 207.5,466.5C 207.881,465.069 208.881,464.236 210.5,464C 214.695,463.668 218.695,462.835 222.5,461.5 Z"/></g>
<g><path style="opacity:0.676" fill="#5e7180" d="M 228.5,461.5 C 229.167,461.5 229.5,461.833 229.5,462.5C 229.921,468.202 230.588,473.869 231.5,479.5C 230.883,479.389 230.383,479.056 230,478.5C 229.487,473.103 228.653,467.77 227.5,462.5C 227.5,461.833 227.833,461.5 228.5,461.5 Z"/></g>
<g><path style="opacity:1" fill="#2f4a60" d="M 300.5,454.5 C 301.833,454.833 303.167,455.167 304.5,455.5C 309.165,457.17 311.499,460.504 311.5,465.5C 309.588,466.799 307.588,467.799 305.5,468.5C 305.167,468.5 304.833,468.5 304.5,468.5C 303.9,467.1 302.9,466.1 301.5,465.5C 303.833,465.5 306.167,465.5 308.5,465.5C 308.246,462.986 307.413,460.652 306,458.5C 303.689,457.603 301.856,456.27 300.5,454.5 Z"/></g>
<g><path style="opacity:1" fill="#7a5243" d="M 273.5,463.5 C 274.833,466.5 276.167,469.5 277.5,472.5C 277.5,473.5 277.5,474.5 277.5,475.5C 275.194,471.915 273.861,467.915 273.5,463.5 Z"/></g>
<g><path style="opacity:0.012" fill="#cc8e6b" d="M 207.5,466.5 C 208.167,466.5 208.5,466.833 208.5,467.5C 208.158,468.338 207.492,468.672 206.5,468.5C 206.328,467.508 206.662,466.842 207.5,466.5 Z"/></g>
<g><path style="opacity:0.557" fill="#9f8171" d="M 251.5,463.5 C 251.25,465.674 250.25,467.341 248.5,468.5C 247.5,468.5 246.5,468.5 245.5,468.5C 246.911,466.086 248.911,464.419 251.5,463.5 Z"/></g>
<g><path style="opacity:0.62" fill="#c18a6b" d="M 280.5,460.5 C 282.027,460.427 283.027,461.094 283.5,462.5C 283.037,465.33 282.371,467.997 281.5,470.5C 281.747,467.061 281.414,463.728 280.5,460.5 Z"/></g>
<g><path style="opacity:0.051" fill="#617282" d="M 301.5,465.5 C 302.9,466.1 303.9,467.1 304.5,468.5C 302.447,468.598 300.78,467.931 299.5,466.5C 299.842,465.662 300.508,465.328 301.5,465.5 Z"/></g>
<g><path style="opacity:0.582" fill="#7b8d98" d="M 311.5,465.5 C 311.5,466.5 311.5,467.5 311.5,468.5C 309.5,468.5 307.5,468.5 305.5,468.5C 307.588,467.799 309.588,466.799 311.5,465.5 Z"/></g>
<g><path style="opacity:1" fill="#c07956" d="M 245.5,468.5 C 246.5,468.5 247.5,468.5 248.5,468.5C 248.293,471.241 247.293,473.574 245.5,475.5C 245.5,474.167 244.833,473.5 243.5,473.5C 244.11,472.609 244.443,471.609 244.5,470.5C 244.328,469.508 244.662,468.842 245.5,468.5 Z"/></g>
<g><path style="opacity:1" fill="#de6926" d="M 277.5,472.5 C 277.384,469.14 277.051,465.807 276.5,462.5C 279.734,462.237 281.068,463.737 280.5,467C 280.884,469.742 279.884,471.575 277.5,472.5 Z"/></g>
<g><path style="opacity:1" fill="#664e46" d="M 243.5,470.5 C 243.833,470.5 244.167,470.5 244.5,470.5C 244.443,471.609 244.11,472.609 243.5,473.5C 242.5,474.167 241.5,474.833 240.5,475.5C 241.075,473.589 242.075,471.922 243.5,470.5 Z"/></g>
<g><path style="opacity:1" fill="#bc8166" d="M 281.5,471.5 C 281.889,474.553 281.223,477.22 279.5,479.5C 278.326,478.486 277.66,477.153 277.5,475.5C 278.5,475.5 279.5,475.5 280.5,475.5C 280.232,473.901 280.566,472.568 281.5,471.5 Z"/></g>
<g><path style="opacity:1" fill="#a16342" d="M 243.5,473.5 C 241.536,478.458 237.87,481.125 232.5,481.5C 232.5,481.167 232.5,480.833 232.5,480.5C 235.844,479.833 238.511,478.166 240.5,475.5C 241.5,474.833 242.5,474.167 243.5,473.5 Z"/></g>
<g><path style="opacity:1" fill="#d56d32" d="M 243.5,473.5 C 244.833,473.5 245.5,474.167 245.5,475.5C 242.752,478.732 240.752,482.398 239.5,486.5C 239.5,484.833 239.5,483.167 239.5,481.5C 237.5,481.833 235.5,482.167 233.5,482.5C 233.5,484.167 233.5,485.833 233.5,487.5C 232.539,485.735 232.205,483.735 232.5,481.5C 237.87,481.125 241.536,478.458 243.5,473.5 Z"/></g>
<g><path style="opacity:0.561" fill="#637585" d="M 266.5,478.5 C 266.833,478.5 267.167,478.5 267.5,478.5C 268.866,481.232 270.199,483.899 271.5,486.5C 271.825,488.132 272.825,489.132 274.5,489.5C 275.98,488.568 277.313,488.568 278.5,489.5C 276.372,490.629 274.039,490.796 271.5,490C 268.962,486.553 267.295,482.72 266.5,478.5 Z"/></g>
<g><path style="opacity:0.082" fill="#ca8860" d="M 245.5,475.5 C 244.459,480.747 242.459,485.58 239.5,490C 237.098,490.814 234.765,490.647 232.5,489.5C 231.593,486.579 231.26,483.579 231.5,480.5C 231.833,480.5 232.167,480.5 232.5,480.5C 232.5,480.833 232.5,481.167 232.5,481.5C 232.205,483.735 232.539,485.735 233.5,487.5C 235.863,490.168 237.863,489.835 239.5,486.5C 240.752,482.398 242.752,478.732 245.5,475.5 Z"/></g>
<g><path style="opacity:1" fill="#e46823" d="M 239.5,486.5 C 237.863,489.835 235.863,490.168 233.5,487.5C 233.5,485.833 233.5,484.167 233.5,482.5C 235.5,482.167 237.5,481.833 239.5,481.5C 239.5,483.167 239.5,484.833 239.5,486.5 Z"/></g>
</svg>
