<?xml version="1.0" encoding="UTF-8"?>
<svg xmlns="http://www.w3.org/2000/svg" xmlns:xlink="http://www.w3.org/1999/xlink" width="512px" height="146px" viewBox="0 0 511 146" version="1.1">
<g id="surface1">
<path style=" stroke:none;fill-rule:evenodd;fill:rgb(46.27451%,67.058824%,18.431373%);fill-opacity:1;" d="M 297.785156 8.109375 C 297.1875 24.976562 297.785156 41.800781 299.582031 58.582031 C 301.019531 57.757812 301.617188 56.554688 301.382812 54.976562 C 308.273438 47.769531 314.871094 40.257812 321.175781 32.445312 C 333.269531 27.519531 338.367188 31.425781 336.46875 44.160156 C 332.308594 49.832031 327.808594 55.238281 322.972656 60.382812 C 329.269531 71.796875 335.570312 83.214844 341.867188 94.628906 C 343.625 100.609375 342.125 105.414062 337.367188 109.050781 C 334.367188 109.050781 331.371094 109.050781 328.371094 109.050781 C 324.859375 107.640625 322.160156 105.234375 320.273438 101.839844 C 316.136719 93.796875 311.636719 85.984375 306.78125 78.40625 C 304.414062 79.871094 302.316406 81.675781 300.480469 83.816406 C 299.882812 90.425781 299.28125 97.03125 298.683594 103.640625 C 298.003906 106.242188 296.507812 108.042969 294.183594 109.050781 C 291.183594 109.050781 288.1875 109.050781 285.1875 109.050781 C 283.464844 108.234375 281.964844 107.03125 280.691406 105.445312 C 279.488281 73 279.488281 40.554688 280.691406 8.109375 C 286.375 1.046875 292.074219 1.046875 297.785156 8.109375 Z M 297.785156 8.109375 "/>
<path style=" stroke:none;fill-rule:evenodd;fill:rgb(14.901961%,14.901961%,14.901961%);fill-opacity:1;" d="M 357.160156 2.703125 C 368.445312 2.5 372.945312 7.90625 370.65625 18.925781 C 361.066406 29.503906 353.570312 28 348.164062 14.417969 C 349.574219 9.125 352.570312 5.21875 357.160156 2.703125 Z M 357.160156 2.703125 "/>
<path style=" stroke:none;fill-rule:evenodd;fill:rgb(8.235294%,8.235294%,8.235294%);fill-opacity:1;" d="M 412.9375 107.246094 C 405.742188 109.648438 398.542969 109.648438 391.347656 107.246094 C 384.257812 105.226562 380.960938 100.417969 381.449219 92.828125 C 380.550781 77.21875 380.253906 61.597656 380.550781 45.964844 C 378.75 45.964844 376.953125 45.964844 375.152344 45.964844 C 372.320312 43.054688 371.121094 39.449219 371.554688 35.148438 C 373.597656 32.058594 376.597656 30.859375 380.550781 31.542969 C 379.984375 25.273438 380.882812 19.265625 383.25 13.519531 C 389.246094 8.710938 395.246094 8.710938 401.242188 13.519531 C 402.140625 19.496094 402.441406 25.503906 402.144531 31.542969 C 409.800781 29.660156 414.597656 32.363281 416.535156 39.65625 C 416.070312 41.929688 414.871094 43.730469 412.9375 45.0625 C 409.386719 45.953125 405.789062 46.253906 402.144531 45.964844 C 401.84375 60.394531 402.144531 74.816406 403.042969 89.222656 C 407.078125 91.875 411.578125 93.675781 416.535156 94.628906 C 418.984375 99.886719 417.789062 104.089844 412.9375 107.246094 Z M 412.9375 107.246094 "/>
<path style=" stroke:none;fill-rule:evenodd;fill:rgb(60.784314%,75.686275%,39.215686%);fill-opacity:1;" d="M 297.785156 8.109375 C 298.984375 23.734375 300.183594 39.355469 301.382812 54.976562 C 301.617188 56.554688 301.019531 57.757812 299.582031 58.582031 C 297.785156 41.800781 297.1875 24.976562 297.785156 8.109375 Z M 297.785156 8.109375 "/>
<path style=" stroke:none;fill-rule:evenodd;fill:rgb(46.666667%,67.058824%,18.823529%);fill-opacity:1;" d="M 117.855469 109.050781 C 114.855469 109.050781 111.855469 109.050781 108.855469 109.050781 C 107.113281 107.589844 105.613281 105.789062 104.359375 103.640625 C 103.757812 87.417969 103.160156 71.199219 102.558594 54.976562 C 99.515625 48.285156 94.417969 46.179688 87.265625 48.667969 C 83.691406 51.042969 81.589844 54.347656 80.96875 58.582031 C 80.367188 74.203125 79.769531 89.824219 79.167969 105.445312 C 77.894531 107.03125 76.394531 108.234375 74.671875 109.050781 C 71.671875 109.050781 68.671875 109.050781 65.675781 109.050781 C 63.949219 108.234375 62.449219 107.03125 61.175781 105.445312 C 60.578125 89.222656 59.976562 73 59.375 56.777344 C 57.4375 48.460938 52.339844 45.753906 44.082031 48.667969 C 40.507812 51.042969 38.40625 54.347656 37.785156 58.582031 C 37.183594 74.203125 36.585938 89.824219 35.984375 105.445312 C 34.710938 107.03125 33.210938 108.234375 31.488281 109.050781 C 28.488281 109.050781 25.488281 109.050781 22.492188 109.050781 C 20.765625 108.234375 19.265625 107.03125 17.992188 105.445312 C 16.792969 81.410156 16.792969 57.378906 17.992188 33.34375 C 25.773438 27.816406 32.371094 29.015625 37.785156 36.949219 C 51.796875 24.519531 64.992188 25.121094 77.371094 38.753906 C 91.871094 24.390625 106.261719 24.390625 120.554688 38.753906 C 122.304688 42.164062 123.503906 45.769531 124.152344 49.566406 C 125.351562 66.992188 125.351562 84.414062 124.152344 101.839844 C 122.964844 105.125 120.863281 107.53125 117.855469 109.050781 Z M 117.855469 109.050781 "/>
<path style=" stroke:none;fill-rule:evenodd;fill:rgb(47.45098%,67.45098%,19.607843%);fill-opacity:1;" d="M 204.21875 63.988281 C 204.21875 68.191406 204.21875 72.398438 204.21875 76.605469 C 203.617188 91.671875 196.421875 101.886719 182.628906 107.246094 C 171.832031 109.648438 161.035156 109.648438 150.242188 107.246094 C 134.117188 100.523438 126.320312 88.207031 126.851562 70.296875 C 129.601562 36.300781 147.59375 23.082031 180.828125 30.640625 C 195.5 36.898438 203.296875 48.015625 204.21875 63.988281 Z M 159.238281 47.765625 C 170.917969 44.78125 178.414062 48.988281 181.730469 60.382812 C 183.710938 70.324219 182.210938 79.636719 177.230469 88.320312 C 159.234375 95.917969 149.636719 89.609375 148.441406 69.394531 C 149.269531 60.527344 152.867188 53.316406 159.238281 47.765625 Z M 159.238281 47.765625 "/>
<path style=" stroke:none;fill-rule:evenodd;fill:rgb(47.843137%,67.843137%,20.784314%);fill-opacity:1;" d="M 252.800781 109.050781 C 243.691406 109.457031 234.695312 108.855469 225.8125 107.246094 C 220.15625 106.105469 215.65625 103.101562 212.316406 98.234375 C 208.667969 91.148438 205.96875 83.9375 204.21875 76.605469 C 204.21875 72.398438 204.21875 68.191406 204.21875 63.988281 C 205.273438 48.199219 213.070312 37.085938 227.609375 30.640625 C 241.015625 26.839844 253.609375 28.640625 265.394531 36.050781 C 272.703125 42.5625 273.902344 49.773438 268.996094 57.679688 C 264.796875 58.878906 260.597656 58.878906 256.398438 57.679688 C 252.621094 52.046875 247.523438 48.742188 241.105469 47.765625 C 234.230469 48.03125 230.035156 51.636719 228.511719 58.582031 C 227.308594 65.789062 227.308594 73 228.511719 80.210938 C 231.214844 90.226562 237.515625 93.53125 247.402344 90.125 C 251.050781 86.46875 254.648438 82.863281 258.199219 79.308594 C 271.503906 77.960938 275.402344 83.667969 269.894531 96.433594 C 265.425781 102.421875 259.730469 106.628906 252.800781 109.050781 Z M 252.800781 109.050781 "/>
<path style=" stroke:none;fill-rule:evenodd;fill:rgb(8.627451%,8.627451%,8.627451%);fill-opacity:1;" d="M 470.515625 107.246094 C 459.695312 109.5625 448.902344 109.5625 438.128906 107.246094 C 422.003906 100.523438 414.207031 88.207031 414.738281 70.296875 C 417.492188 36.300781 435.484375 23.082031 468.714844 30.640625 C 480.585938 34.722656 488.085938 42.832031 491.207031 54.976562 C 495.914062 74.265625 491.414062 90.789062 477.714844 104.542969 C 475.472656 105.96875 473.074219 106.871094 470.515625 107.246094 Z M 447.125 47.765625 C 458.804688 44.78125 466.300781 48.988281 469.617188 60.382812 C 471.597656 70.324219 470.097656 79.636719 465.117188 88.320312 C 447.121094 95.917969 437.527344 89.609375 436.328125 69.394531 C 437.15625 60.527344 440.753906 53.316406 447.125 47.765625 Z M 447.125 47.765625 "/>
<path style=" stroke:none;fill-rule:evenodd;fill:rgb(3.137255%,3.137255%,3.137255%);fill-opacity:1;" d="M 367.957031 33.34375 C 369.6875 56.085938 370.285156 78.917969 369.753906 101.839844 C 369.886719 104.589844 368.6875 106.394531 366.15625 107.246094 C 361.957031 109.648438 357.757812 109.648438 353.5625 107.246094 C 352.453125 107.046875 351.550781 106.445312 350.863281 105.445312 C 349.664062 81.410156 349.664062 57.378906 350.863281 33.34375 C 356.765625 28.585938 362.460938 28.585938 367.957031 33.34375 Z M 367.957031 33.34375 "/>
<path style=" stroke:none;fill-rule:evenodd;fill:rgb(71.372549%,71.372549%,71.372549%);fill-opacity:1;" d="M 367.957031 33.34375 C 369.15625 33.945312 370.355469 34.546875 371.554688 35.148438 C 371.121094 39.449219 372.320312 43.054688 375.152344 45.964844 C 372.171875 64.214844 370.371094 82.839844 369.753906 101.839844 C 370.285156 78.917969 369.6875 56.085938 367.957031 33.34375 Z M 367.957031 33.34375 "/>
<path style=" stroke:none;fill-rule:evenodd;fill:rgb(88.627451%,88.627451%,87.843137%);fill-opacity:1;" d="M 150.242188 107.246094 C 161.035156 109.648438 171.832031 109.648438 182.628906 107.246094 C 182.429688 108.359375 181.828125 109.261719 180.828125 109.949219 C 188.925781 110.746094 196.125 113.449219 202.421875 118.0625 C 202.421875 119.863281 202.421875 121.667969 202.421875 123.46875 C 195.640625 123.929688 189.042969 123.328125 182.628906 121.667969 C 170.695312 114.078125 159.300781 114.679688 148.441406 123.46875 C 141.476562 124.035156 134.878906 123.4375 128.648438 121.667969 C 128.667969 118.929688 129.867188 116.828125 132.25 115.359375 C 138.46875 112.214844 145.066406 110.414062 152.039062 109.949219 C 151.039062 109.261719 150.441406 108.359375 150.242188 107.246094 Z M 150.242188 107.246094 "/>
<path style=" stroke:none;fill-rule:evenodd;fill:rgb(86.666667%,86.666667%,86.666667%);fill-opacity:1;" d="M 438.128906 107.246094 C 448.902344 109.5625 459.695312 109.5625 470.515625 107.246094 C 470.316406 108.359375 469.71875 109.261719 468.714844 109.949219 C 476.8125 110.746094 484.011719 113.449219 490.308594 118.0625 C 490.308594 119.863281 490.308594 121.667969 490.308594 123.46875 C 483.527344 123.929688 476.929688 123.328125 470.515625 121.667969 C 461.609375 116.046875 452.015625 114.84375 441.726562 118.0625 C 435.101562 118.359375 428.507812 118.058594 421.933594 117.160156 C 422.933594 116.472656 423.535156 115.570312 423.734375 114.457031 C 428.597656 111.820312 433.996094 110.316406 439.929688 109.949219 C 438.925781 109.261719 438.328125 108.359375 438.128906 107.246094 Z M 438.128906 107.246094 "/>
<path style=" stroke:none;fill-rule:evenodd;fill:rgb(92.54902%,92.54902%,92.54902%);fill-opacity:1;" d="M 285.1875 109.050781 C 288.1875 109.050781 291.183594 109.050781 294.183594 109.050781 C 295.460938 110.679688 297.261719 111.28125 299.582031 110.851562 C 298.542969 116.347656 300.644531 119.953125 305.878906 121.667969 C 313.1875 116.667969 320.683594 112.460938 328.371094 109.050781 C 331.371094 109.050781 334.367188 109.050781 337.367188 109.050781 C 338.644531 110.679688 340.441406 111.28125 342.765625 110.851562 C 343.160156 112.96875 342.5625 114.773438 340.964844 116.257812 C 335.570312 119.863281 330.171875 123.46875 324.773438 127.074219 C 341.804688 135.34375 340.605469 138.648438 321.175781 136.988281 C 313.960938 134.980469 307.066406 132.277344 300.480469 128.875 C 299.59375 131.820312 299.292969 134.824219 299.582031 137.890625 C 292.984375 137.890625 286.386719 137.890625 279.789062 137.890625 C 279.789062 128.875 279.789062 119.863281 279.789062 110.851562 C 282.113281 111.28125 283.914062 110.679688 285.1875 109.050781 Z M 285.1875 109.050781 "/>
<path style=" stroke:none;fill-rule:evenodd;fill:rgb(93.72549%,93.72549%,93.72549%);fill-opacity:1;" d="M 353.5625 107.246094 C 357.757812 109.648438 361.957031 109.648438 366.15625 107.246094 C 365.957031 108.359375 365.359375 109.261719 364.355469 109.949219 C 366.636719 110.507812 368.734375 111.410156 370.65625 112.65625 C 371.554688 119.234375 371.851562 125.84375 371.554688 132.480469 C 374.554688 132.480469 377.550781 132.480469 380.550781 132.480469 C 380.253906 126.445312 380.554688 120.433594 381.449219 114.457031 C 385.011719 112.207031 388.3125 109.800781 391.347656 107.246094 C 398.542969 109.648438 405.742188 109.648438 412.9375 107.246094 C 414.25 109.433594 416.050781 111.234375 418.335938 112.65625 C 417.960938 113.710938 417.359375 114.613281 416.535156 115.359375 C 411.777344 116.253906 406.976562 116.554688 402.144531 116.257812 C 402.144531 121.667969 402.144531 127.074219 402.144531 132.480469 C 407.355469 131.804688 412.152344 132.707031 416.535156 135.183594 C 415.335938 135.785156 414.136719 136.386719 412.9375 136.988281 C 392.378906 137.601562 371.988281 137.601562 351.761719 136.988281 C 350.019531 128.449219 349.417969 119.738281 349.964844 110.851562 C 354.449219 111.515625 355.648438 110.316406 353.5625 107.246094 Z M 353.5625 107.246094 "/>
<path style=" stroke:none;fill-rule:evenodd;fill:rgb(93.72549%,93.72549%,93.72549%);fill-opacity:1;" d="M 22.492188 109.050781 C 25.488281 109.050781 28.488281 109.050781 31.488281 109.050781 C 32.761719 110.679688 34.5625 111.28125 36.886719 110.851562 C 34.128906 130.03125 41.625 136.039062 59.375 128.875 C 60.273438 122.898438 60.574219 116.890625 60.277344 110.851562 C 62.597656 111.28125 64.398438 110.679688 65.675781 109.050781 C 68.671875 109.050781 71.671875 109.050781 74.671875 109.050781 C 75.945312 110.679688 77.746094 111.28125 80.070312 110.851562 C 77.234375 129.996094 84.730469 136.007812 102.558594 128.875 C 103.457031 122.898438 103.757812 116.890625 103.460938 110.851562 C 105.78125 111.28125 107.582031 110.679688 108.855469 109.050781 C 111.855469 109.050781 114.855469 109.050781 117.855469 109.050781 C 119.707031 110.398438 121.808594 111.601562 124.152344 112.65625 C 129.238281 133.996094 120.839844 142.40625 98.960938 137.890625 C 72.203125 138.03125 45.515625 137.730469 18.894531 136.988281 C 17.148438 128.449219 16.550781 119.738281 17.09375 110.851562 C 19.417969 111.28125 21.214844 110.679688 22.492188 109.050781 Z M 22.492188 109.050781 "/>
<path style=" stroke:none;fill-rule:evenodd;fill:rgb(94.901961%,94.901961%,94.509804%);fill-opacity:1;" d="M 225.8125 107.246094 C 234.695312 108.855469 243.691406 109.457031 252.800781 109.050781 C 258.765625 110.574219 264.765625 112.679688 270.792969 115.359375 C 273.191406 117.160156 273.191406 118.964844 270.792969 120.765625 C 260.699219 122.480469 251.101562 120.976562 242.003906 116.257812 C 238.40625 117.160156 234.808594 118.0625 231.210938 118.964844 C 226.410156 122.566406 226.410156 126.171875 231.210938 129.777344 C 234.265625 131.503906 237.566406 132.40625 241.105469 132.480469 C 248.386719 131.050781 255.585938 129.25 262.695312 127.074219 C 275.417969 130.261719 275.117188 133.566406 261.796875 136.988281 C 248.003906 138.1875 234.207031 138.1875 220.414062 136.988281 C 213.328125 136.601562 208.230469 133.296875 205.121094 127.074219 C 201.039062 132.882812 195.34375 136.1875 188.027344 136.988281 C 173.03125 138.1875 158.039062 138.1875 143.042969 136.988281 C 135.109375 135.75 129.710938 131.546875 126.851562 124.371094 C 126.976562 122.992188 127.574219 122.089844 128.648438 121.667969 C 134.878906 123.4375 141.476562 124.035156 148.441406 123.46875 C 152.484375 129.855469 158.480469 132.859375 166.433594 132.480469 C 170.792969 132.3125 174.992188 131.410156 179.03125 129.777344 C 181.796875 127.777344 182.992188 125.074219 182.628906 121.667969 C 189.042969 123.328125 195.640625 123.929688 202.421875 123.46875 C 202.421875 121.667969 202.421875 119.863281 202.421875 118.0625 C 203.71875 118.8125 204.621094 120.015625 205.121094 121.667969 C 205.957031 119.085938 207.457031 116.984375 209.617188 115.359375 C 215.28125 112.464844 221.277344 110.664062 227.609375 109.949219 C 226.609375 109.261719 226.011719 108.359375 225.8125 107.246094 Z M 225.8125 107.246094 "/>
<path style=" stroke:none;fill-rule:evenodd;fill:rgb(96.470588%,96.470588%,96.470588%);fill-opacity:1;" d="M 423.734375 114.457031 C 423.535156 115.570312 422.933594 116.472656 421.933594 117.160156 C 428.507812 118.058594 435.101562 118.359375 441.726562 118.0625 C 434.734375 124.890625 436.535156 129.398438 447.125 131.582031 C 453.890625 132.910156 460.488281 132.308594 466.917969 129.777344 C 469.683594 127.777344 470.882812 125.074219 470.515625 121.667969 C 476.929688 123.328125 483.527344 123.929688 490.308594 123.46875 C 490.308594 121.667969 490.308594 119.863281 490.308594 118.0625 C 494.292969 126.375 491.894531 132.085938 483.109375 135.183594 C 465.828125 137.992188 448.433594 138.59375 430.929688 136.988281 C 422.996094 135.75 417.597656 131.546875 414.738281 124.371094 C 415.628906 118.980469 418.625 115.675781 423.734375 114.457031 Z M 423.734375 114.457031 "/>
</g>
</svg>
