<?xml version="1.0" encoding="UTF-8"?>
<!DOCTYPE svg PUBLIC "-//W3C//DTD SVG 1.1//EN" "http://www.w3.org/Graphics/SVG/1.1/DTD/svg11.dtd">
<svg xmlns="http://www.w3.org/2000/svg" version="1.1" width="512px" height="512px" style="shape-rendering:geometricPrecision; text-rendering:geometricPrecision; image-rendering:optimizeQuality; fill-rule:evenodd; clip-rule:evenodd" xmlns:xlink="http://www.w3.org/1999/xlink">
<g><path style="opacity:1" fill="#345f41" d="M 489.5,234.5 C 452.658,199.993 416.658,164.326 381.5,127.5C 380.5,126.833 379.5,126.167 378.5,125.5C 321.542,124.508 264.542,124.175 207.5,124.5C 215.604,112.609 223.937,100.942 232.5,89.5C 232.392,88.5581 232.059,87.7247 231.5,87C 216.486,76.8725 200.486,75.2059 183.5,82C 166.513,91.4955 158.18,105.996 158.5,125.5C 149.494,125.334 140.494,125.5 131.5,126C 129.604,127.808 129.104,129.975 130,132.5C 168.755,186.353 207.255,240.353 245.5,294.5C 245.828,339.572 245.494,384.572 244.5,429.5C 225.326,429.17 206.326,429.503 187.5,430.5C 181.973,432.221 180.14,435.888 182,441.5C 183.059,443.659 184.559,445.326 186.5,446.5C 199.102,459.607 212.269,472.94 226,486.5C 226.464,487.094 226.631,487.761 226.5,488.5C 156.059,478.497 100.559,444.497 60,386.5C 21.061,325.012 11.061,259.012 30,188.5C 59.2323,100.934 118.732,46.4336 208.5,25C 302.447,9.66564 379.947,38.1656 441,110.5C 469.084,147.027 485.251,188.361 489.5,234.5 Z"/></g>
<g><path style="opacity:1" fill="#35c771" d="M 207.5,124.5 C 198.777,135.586 190.277,146.92 182,158.5C 178.587,161.256 175.42,160.923 172.5,157.5C 168.808,152.975 165.308,148.308 162,143.5C 160.194,137.613 159.028,131.613 158.5,125.5C 158.18,105.996 166.513,91.4955 183.5,82C 200.486,75.2059 216.486,76.8725 231.5,87C 232.059,87.7247 232.392,88.5581 232.5,89.5C 223.937,100.942 215.604,112.609 207.5,124.5 Z"/></g>
<g><path style="opacity:1" fill="#bcf495" d="M 202.5,93.5 C 206.509,93.8583 210.509,94.3583 214.5,95C 216.223,95.5232 217.556,96.5232 218.5,98C 215.095,103.909 211.095,109.409 206.5,114.5C 204.796,107.575 203.463,100.575 202.5,93.5 Z"/></g>
<g><path style="opacity:1" fill="#bbf495" d="M 193.5,94.5 C 194.496,94.4142 195.329,94.7476 196,95.5C 197.125,102.569 198.125,109.569 199,116.5C 193.149,112.305 187.649,107.805 182.5,103C 183.101,101.395 184.101,100.062 185.5,99C 188.391,97.7258 191.058,96.2258 193.5,94.5 Z"/></g>
<g><path style="opacity:1" fill="#b7f394" d="M 177.5,108.5 C 183.057,113.553 189.057,118.053 195.5,122C 188.272,124.038 180.938,125.538 173.5,126.5C 172.746,119.992 174.079,113.992 177.5,108.5 Z"/></g>
<g><path style="opacity:1" fill="#ebefef" d="M 207.5,124.5 C 264.542,124.175 321.542,124.508 378.5,125.5C 337.67,126.499 296.67,126.832 255.5,126.5C 255.5,148.167 255.5,169.833 255.5,191.5C 233.157,191.167 210.823,191.5 188.5,192.5C 188.624,193.107 188.957,193.44 189.5,193.5C 211.656,223.807 233.322,254.474 254.5,285.5C 255.495,339.095 255.829,392.762 255.5,446.5C 233.5,446.5 211.5,446.5 189.5,446.5C 188.5,446.5 187.5,446.5 186.5,446.5C 184.559,445.326 183.059,443.659 182,441.5C 180.14,435.888 181.973,432.221 187.5,430.5C 207.5,430.5 227.5,430.5 247.5,430.5C 247.832,384.997 247.499,339.664 246.5,294.5C 246.167,294.5 245.833,294.5 245.5,294.5C 207.255,240.353 168.755,186.353 130,132.5C 129.104,129.975 129.604,127.808 131.5,126C 140.494,125.5 149.494,125.334 158.5,125.5C 159.028,131.613 160.194,137.613 162,143.5C 165.308,148.308 168.808,152.975 172.5,157.5C 175.42,160.923 178.587,161.256 182,158.5C 190.277,146.92 198.777,135.586 207.5,124.5 Z"/></g>
<g><path style="opacity:1" fill="#e4e5e4" d="M 378.5,125.5 C 379.5,126.167 380.5,126.833 381.5,127.5C 381.66,129.199 381.494,130.866 381,132.5C 342.333,186.5 303.667,240.5 265,294.5C 264.5,339.499 264.333,384.499 264.5,429.5C 284.503,429.333 304.503,429.5 324.5,430C 329.153,432.942 330.653,437.109 329,442.5C 327.269,444.617 325.102,446.117 322.5,447C 277.998,447.831 233.665,447.665 189.5,446.5C 211.5,446.5 233.5,446.5 255.5,446.5C 255.829,392.762 255.495,339.095 254.5,285.5C 255.492,285.672 256.158,285.338 256.5,284.5C 278.563,254.439 300.23,224.106 321.5,193.5C 322.043,193.44 322.376,193.107 322.5,192.5C 300.177,191.5 277.843,191.167 255.5,191.5C 255.5,169.833 255.5,148.167 255.5,126.5C 296.67,126.832 337.67,126.499 378.5,125.5 Z"/></g>
<g><path style="opacity:1" fill="#bbf495" d="M 193.5,128.5 C 195.028,128.517 195.528,129.184 195,130.5C 191.24,135.683 187.24,140.683 183,145.5C 179.385,141.881 176.551,137.714 174.5,133C 180.999,131.671 187.332,130.171 193.5,128.5 Z"/></g>
<g><path style="opacity:1" fill="#1e4426" d="M 381.5,127.5 C 416.658,164.326 452.658,199.993 489.5,234.5C 494.787,335.593 454.12,411.76 367.5,463C 323.138,486.087 276.138,494.587 226.5,488.5C 226.631,487.761 226.464,487.094 226,486.5C 212.269,472.94 199.102,459.607 186.5,446.5C 187.5,446.5 188.5,446.5 189.5,446.5C 233.665,447.665 277.998,447.831 322.5,447C 325.102,446.117 327.269,444.617 329,442.5C 330.653,437.109 329.153,432.942 324.5,430C 304.503,429.5 284.503,429.333 264.5,429.5C 264.333,384.499 264.5,339.499 265,294.5C 303.667,240.5 342.333,186.5 381,132.5C 381.494,130.866 381.66,129.199 381.5,127.5 Z"/></g>
<g><path style="opacity:1" fill="#d6eacc" d="M 255.5,191.5 C 277.843,191.167 300.177,191.5 322.5,192.5C 322.376,193.107 322.043,193.44 321.5,193.5C 299.673,192.503 277.673,192.169 255.5,192.5C 233.327,192.169 211.327,192.503 189.5,193.5C 188.957,193.44 188.624,193.107 188.5,192.5C 210.823,191.5 233.157,191.167 255.5,191.5 Z"/></g>
<g><path style="opacity:1" fill="#c0f697" d="M 255.5,192.5 C 255.182,223.573 255.515,254.24 256.5,284.5C 256.158,285.338 255.492,285.672 254.5,285.5C 233.322,254.474 211.656,223.807 189.5,193.5C 211.327,192.503 233.327,192.169 255.5,192.5 Z"/></g>
<g><path style="opacity:1" fill="#a0d67b" d="M 255.5,192.5 C 277.673,192.169 299.673,192.503 321.5,193.5C 300.23,224.106 278.563,254.439 256.5,284.5C 255.515,254.24 255.182,223.573 255.5,192.5 Z"/></g>
<g><path style="opacity:1" fill="#355e35" d="M 245.5,294.5 C 245.833,294.5 246.167,294.5 246.5,294.5C 247.162,339.846 246.495,384.846 244.5,429.5C 245.494,384.572 245.828,339.572 245.5,294.5 Z"/></g>
<g><path style="opacity:1" fill="#bddab0" d="M 246.5,294.5 C 247.499,339.664 247.832,384.997 247.5,430.5C 227.5,430.5 207.5,430.5 187.5,430.5C 206.326,429.503 225.326,429.17 244.5,429.5C 246.495,384.846 247.162,339.846 246.5,294.5 Z"/></g>
</svg>
