<?xml version="1.0" encoding="UTF-8"?>
<svg xmlns="http://www.w3.org/2000/svg" xmlns:xlink="http://www.w3.org/1999/xlink" width="512px" height="512px" viewBox="0 0 512 346" version="1.1">
<g id="surface1">
<path style=" stroke:none;fill-rule:nonzero;fill:rgb(42.745098%,70.196078%,24.705882%);fill-opacity:1;" d="M 171.195312 281.605469 C 167.574219 286.042969 161.035156 286.71875 156.585938 283.109375 C 152.132812 279.503906 151.453125 272.980469 155.066406 268.535156 C 158.679688 264.089844 165.214844 263.40625 169.671875 267.007812 C 171.816406 268.742188 173.183594 271.253906 173.46875 273.992188 C 173.753906 276.730469 172.933594 279.46875 171.195312 281.605469 Z M 336.242188 245.273438 C 306.144531 285.15625 242.101562 271.722656 201.128906 273.628906 C 201.128906 273.628906 193.847656 274.046875 186.5 275.242188 C 186.5 275.242188 189.285156 274.082031 192.8125 272.855469 C 221.582031 262.90625 235.207031 260.90625 252.910156 251.894531 C 285.820312 235.070312 318.605469 198.414062 325.273438 160.308594 C 312.585938 196.996094 274.464844 228.480469 239.738281 241.300781 C 215.984375 250.023438 173.003906 258.546875 173.003906 258.546875 L 171.257812 257.644531 C 142.132812 243.464844 141.191406 180.136719 194.269531 159.921875 C 217.535156 151.007812 239.800781 155.917969 264.949219 149.941406 C 291.777344 143.484375 322.84375 123.492188 335.5 97.238281 C 349.640625 139.15625 366.664062 204.714844 336.144531 245.4375 Z M 336.242188 245.273438 "/>
<path style=" stroke:none;fill-rule:nonzero;fill:rgb(42.745098%,70.196078%,24.705882%);fill-opacity:1;" d="M 396.375 346 L 129.25 346 C 61.828125 346.050781 5.785156 294.195312 0.746094 227.101562 C -4.292969 160.011719 43.382812 100.402344 110.058594 90.421875 C 126.695312 67.429688 147.472656 41.59375 177.632812 23.960938 C 240.695312 -12.859375 320.023438 -6.824219 376.761719 39.109375 L 377.085938 39.398438 C 391.140625 51.429688 403.820312 64.980469 414.886719 79.800781 C 424.539062 92.066406 431.824219 106.019531 436.375 120.941406 C 436.664062 122.007812 436.921875 122.621094 437.054688 123.007812 C 437.699219 123.332031 438.832031 123.816406 439.738281 124.203125 L 443.203125 125.722656 C 460.414062 133.5625 475.476562 145.425781 487.117188 160.308594 C 514.210938 194.914062 519.171875 241.902344 499.90625 281.382812 C 480.640625 320.867188 440.511719 345.941406 396.503906 346 Z M 266.113281 25.835938 C 239.609375 25.855469 213.589844 32.898438 190.707031 46.246094 C 164.65625 61.488281 145.851562 85 130.933594 105.699219 L 130.320312 106.601562 C 127.511719 111.492188 122.582031 114.796875 116.984375 115.546875 C 62.851562 121.9375 23.105469 169.347656 26.371094 223.648438 C 29.632812 277.945312 74.773438 320.28125 129.285156 320.164062 L 396.40625 320.164062 C 430.542969 320.15625 461.683594 300.722656 476.640625 270.105469 C 491.597656 239.484375 487.75 203.035156 466.730469 176.195312 C 460.746094 168.558594 453.589844 161.914062 445.53125 156.496094 C 441.417969 153.726562 437.089844 151.285156 432.585938 149.199219 L 429.707031 147.941406 C 425.972656 146.621094 422.511719 144.640625 419.480469 142.09375 C 415.5 138.238281 412.726562 133.3125 411.488281 127.917969 C 407.785156 116.019531 401.890625 104.914062 394.109375 95.171875 C 384.210938 81.953125 372.890625 69.855469 360.355469 59.097656 C 333.714844 37.515625 300.425781 25.765625 266.113281 25.835938 Z M 266.113281 25.835938 "/>
</g>
</svg>
