<?xml version="1.0" encoding="UTF-8"?>
<svg xmlns="http://www.w3.org/2000/svg" xmlns:xlink="http://www.w3.org/1999/xlink" width="512px" height="512px" viewBox="0 0 512 359" version="1.1">
<g id="surface1">
<path style=" stroke:none;fill-rule:nonzero;fill:rgb(42.745098%,70.196078%,24.705882%);fill-opacity:1;" d="M 313.425781 7.992188 L 160.914062 160.097656 L 135.082031 134.332031 L 135.082031 224.046875 L 225.03125 224.046875 L 199.199219 197.96875 L 332.410156 65.109375 L 446.949219 179.34375 L 332.410156 293.582031 L 306.890625 268.125 L 268.917969 306.308594 L 313.425781 350.699219 C 324.007812 361.253906 341.125 361.253906 351.707031 350.699219 L 504.21875 198.589844 C 514.800781 188.035156 514.800781 170.964844 504.21875 160.410156 L 351.398438 7.992188 C 340.816406 -2.253906 324.007812 -2.253906 313.425781 7.992188 Z M 313.425781 7.992188 "/>
<path style=" stroke:none;fill-rule:nonzero;fill:rgb(42.745098%,70.196078%,24.705882%);fill-opacity:1;" d="M 198.886719 350.699219 L 351.085938 198.902344 L 376.917969 224.667969 L 376.917969 134.953125 L 286.96875 134.953125 L 312.800781 160.71875 L 179.589844 293.582031 L 65.050781 179.34375 L 179.589844 65.109375 L 205.109375 90.5625 L 243.394531 52.382812 L 198.886719 7.992188 C 188.304688 -2.5625 171.183594 -2.5625 160.601562 7.992188 L 7.78125 160.410156 C -2.800781 170.964844 -2.800781 188.035156 7.78125 198.589844 L 160.601562 351.007812 C 171.183594 361.253906 188.304688 361.253906 198.886719 350.699219 Z M 198.886719 350.699219 "/>
</g>
</svg>
