<?xml version="1.0" encoding="UTF-8"?>
<svg xmlns="http://www.w3.org/2000/svg" xmlns:xlink="http://www.w3.org/1999/xlink" width="512px" height="512px" viewBox="0 0 512 528" version="1.1">
<g id="surface1">
<path style=" stroke:none;fill-rule:nonzero;fill:rgb(42.745098%,70.196078%,24.705882%);fill-opacity:1;" d="M 504.910156 219.914062 C 505.585938 225.660156 505.585938 231.738281 505.585938 238.15625 C 505.585938 298.289062 435.195312 444.558594 293.734375 444.558594 L 281.210938 444.558594 L 281.210938 476.652344 L 211.835938 394.226562 L 281.210938 311.800781 L 281.210938 343.890625 L 293.734375 343.890625 C 401.351562 343.890625 486.296875 269.574219 487.648438 162.488281 C 449.070312 72.96875 360.066406 10.132812 256.167969 10.132812 C 116.738281 10.132812 3.707031 122.964844 3.707031 261.804688 C 3.707031 276.667969 5.058594 291.53125 7.429688 306.058594 C 6.753906 299.640625 6.414062 292.882812 6.414062 285.789062 C 6.414062 225.660156 76.804688 79.386719 218.265625 79.386719 L 230.789062 79.386719 L 230.789062 47.292969 L 300.164062 129.71875 L 230.789062 212.144531 L 230.789062 180.054688 L 218.265625 180.054688 C 110.308594 180.054688 25.367188 254.371094 24.351562 361.796875 C 63.269531 451.316406 152.273438 513.8125 256.167969 513.8125 C 395.597656 513.8125 508.292969 400.984375 508.292969 261.804688 C 508.292969 247.617188 506.941406 233.765625 504.910156 219.914062 Z M 504.910156 219.914062 "/>
</g>
</svg>
