<?xml version="1.0" encoding="UTF-8"?>
<svg xmlns="http://www.w3.org/2000/svg" xmlns:xlink="http://www.w3.org/1999/xlink" width="512px" height="512px" viewBox="0 0 512 715" version="1.1">
<g id="surface1">
<path style=" stroke:none;fill-rule:nonzero;fill:rgb(41.960784%,70.196078%,26.666667%);fill-opacity:1;" d="M 512 61.847656 L 255.808594 0.335938 L 0 61.847656 L 0 258.679688 L 135.816406 258.679688 C 134.625 268.105469 134.625 277.644531 135.816406 287.070312 L 0 287.070312 L 0 379.527344 C 0 591.785156 255.808594 714.804688 255.808594 714.804688 C 255.808594 714.804688 511.621094 591.785156 511.621094 379.667969 L 511.621094 287.164062 L 376.136719 287.164062 C 377.390625 277.742188 377.390625 268.195312 376.136719 258.773438 L 512 258.773438 Z M 255.808594 365.378906 C 204.710938 365.273438 163.363281 323.832031 163.433594 272.796875 C 163.503906 221.761719 204.964844 180.433594 256.0625 180.46875 C 307.160156 180.503906 348.566406 221.886719 348.566406 272.921875 C 348.566406 297.476562 338.789062 321.019531 321.386719 338.367188 C 303.988281 355.710938 280.394531 365.429688 255.808594 365.378906 Z M 255.808594 365.378906 "/>
<path style=" stroke:none;fill-rule:nonzero;fill:rgb(41.960784%,70.196078%,26.666667%);fill-opacity:1;" d="M 255.808594 229.0625 C 244.738281 229.046875 235.097656 236.609375 232.488281 247.355469 C 229.875 258.101562 234.972656 269.238281 244.820312 274.292969 L 244.820312 280.492188 L 251.878906 287.542969 L 251.878906 292.273438 L 256.617188 297.007812 L 256.617188 301.738281 L 252.445312 305.902344 L 256.898438 313.234375 L 256.898438 317.96875 L 252.164062 323.597656 L 258.796875 330.222656 L 266.136719 322.886719 L 266.136719 274.769531 C 276.445312 270.054688 282.035156 258.773438 279.539062 247.730469 C 277.042969 236.6875 267.144531 228.898438 255.808594 229.0625 Z M 255.808594 253.949219 C 250.890625 253.949219 246.90625 249.964844 246.90625 245.054688 C 246.90625 240.140625 250.890625 236.160156 255.808594 236.160156 C 260.730469 236.160156 264.714844 240.140625 264.714844 245.054688 C 264.714844 249.964844 260.730469 253.949219 255.808594 253.949219 Z M 255.808594 253.949219 "/>
</g>
</svg>
