<?xml version="1.0" encoding="UTF-8"?>
<svg xmlns="http://www.w3.org/2000/svg" xmlns:xlink="http://www.w3.org/1999/xlink" width="512px" height="512px" viewBox="0 0 512 459" version="1.1">
<g id="surface1">
<path style=" stroke:none;fill-rule:nonzero;fill:rgb(42.745098%,70.196078%,24.705882%);fill-opacity:1;" d="M 505.472656 201.941406 L 404.582031 27.660156 C 395.847656 12.527344 374.363281 0.101562 356.792969 0.101562 L 155.207031 0.101562 C 137.738281 0.101562 116.152344 12.527344 107.417969 27.660156 L 6.625 201.941406 C -2.109375 217.074219 -2.109375 241.828125 6.625 256.960938 L 107.417969 431.339844 C 116.152344 446.472656 137.636719 458.898438 155.207031 458.898438 L 356.894531 458.898438 C 374.363281 458.898438 395.847656 446.472656 404.679688 431.339844 L 505.472656 256.960938 C 514.207031 241.828125 514.207031 217.074219 505.472656 201.941406 Z M 234.214844 96.511719 C 234.214844 85.085938 243.550781 75.765625 254.996094 75.765625 C 266.441406 75.765625 275.777344 85.085938 275.777344 96.511719 L 275.777344 220.480469 C 275.777344 231.90625 266.441406 241.226562 254.996094 241.226562 C 243.550781 241.226562 234.214844 231.90625 234.214844 220.480469 Z M 254.996094 361.1875 C 177.292969 361.1875 114.046875 298.050781 114.046875 220.480469 C 114.144531 175.984375 135.226562 134.191406 170.96875 107.535156 C 179.199219 101.421875 190.746094 103.125 196.867188 111.34375 C 202.992188 119.558594 201.285156 131.085938 193.054688 137.199219 C 146.972656 171.375 137.335938 236.414062 171.570312 282.414062 C 205.804688 328.414062 270.957031 338.035156 317.039062 303.863281 C 343.441406 284.320312 359.003906 253.351562 359.003906 220.480469 C 358.902344 187.507812 343.242188 156.542969 316.636719 136.898438 C 308.40625 130.886719 306.699219 119.261719 312.722656 111.042969 C 318.746094 102.824219 330.390625 101.121094 338.621094 107.132812 C 374.664062 133.691406 395.847656 175.78125 395.945312 220.480469 C 395.945312 298.148438 332.699219 361.1875 254.996094 361.1875 Z M 254.996094 361.1875 "/>
</g>
</svg>
