<?xml version="1.0" encoding="UTF-8"?>
<svg xmlns="http://www.w3.org/2000/svg" xmlns:xlink="http://www.w3.org/1999/xlink" width="512px" height="512px" viewBox="0 0 512 338" version="1.1">
<g id="surface1">
<path style=" stroke:none;fill-rule:nonzero;fill:rgb(41.960784%,70.196078%,26.666667%);fill-opacity:1;" d="M 266.5 13.363281 C 337.847656 13.363281 403.742188 63.183594 419.835938 129.347656 L 421.667969 136.898438 L 429.183594 139.011719 C 470.292969 150.691406 498.660156 188.148438 498.695312 230.792969 C 498.792969 255.824219 488.753906 279.832031 470.851562 297.367188 C 452.894531 315.015625 428.660156 324.847656 403.457031 324.714844 L 124.480469 324.714844 C 62.125 324.714844 13.40625 276.980469 13.40625 216.023438 C 13.40625 159.039062 57.085938 112.359375 115.027344 107.414062 L 122.777344 106.742188 L 125.953125 99.527344 C 148.246094 48.828125 206.03125 13.441406 266.449219 13.441406 M 266.449219 0.140625 C 200.707031 0.0625 137.914062 39.316406 113.8125 94.113281 C 50.035156 99.527344 0 150.917969 0 215.949219 C 0 284.558594 55.769531 337.9375 124.53125 337.9375 L 403.507812 337.9375 C 432.171875 338.164062 459.742188 326.972656 480.109375 306.847656 C 500.472656 286.71875 511.953125 259.316406 512 230.714844 C 511.984375 182.105469 479.640625 139.40625 432.777344 126.125 C 414.617188 51.613281 341.722656 0.0625 266.5 0.0625 Z M 266.449219 0.140625 "/>
<path style=" stroke:none;fill-rule:nonzero;fill:rgb(41.960784%,70.196078%,26.666667%);fill-opacity:1;" d="M 162.011719 261.542969 C 167 261.542969 169.402344 262.136719 171.339844 263.9375 C 173.921875 266.335938 176.195312 271.054688 176.195312 284.144531 C 176.195312 297.238281 174 301.90625 171.339844 304.378906 C 169.402344 306.105469 167 306.75 162.011719 306.75 L 151.472656 306.75 C 146.488281 306.75 144.164062 306.105469 142.226562 304.378906 C 139.515625 301.800781 137.371094 297.1875 137.371094 284.144531 C 137.371094 271.105469 139.515625 266.335938 142.226562 263.9375 C 144.164062 262.136719 146.488281 261.542969 151.472656 261.542969 Z M 153.800781 269.894531 C 151.421875 269.894531 150.648438 270.152344 150.105469 270.589844 C 149.5625 271.027344 148.375 272.984375 148.375 284.144531 C 148.375 295.304688 149.40625 297.035156 150.105469 297.652344 C 150.800781 298.269531 151.421875 298.375 153.800781 298.375 L 159.6875 298.375 C 162.273438 298.375 162.867188 298.167969 163.460938 297.652344 C 164.054688 297.136719 165.191406 295.332031 165.191406 284.144531 C 165.191406 272.960938 164.15625 271.257812 163.460938 270.589844 C 162.761719 269.917969 162.140625 269.894531 159.6875 269.894531 Z M 153.800781 269.894531 "/>
<path style=" stroke:none;fill-rule:nonzero;fill:rgb(41.960784%,70.196078%,26.666667%);fill-opacity:1;" d="M 201.921875 297.058594 L 201.921875 265.125 L 195.492188 267.339844 L 193.164062 260.511719 L 203.886719 256.515625 L 211.300781 256.515625 L 211.300781 297.058594 Z M 201.921875 297.058594 "/>
<path style=" stroke:none;fill-rule:nonzero;fill:rgb(41.960784%,70.196078%,26.666667%);fill-opacity:1;" d="M 252.035156 247.1875 C 255.78125 247.1875 257.589844 247.625 259.0625 248.964844 C 261.050781 250.769531 262.703125 254.324219 262.703125 264.195312 C 262.703125 274.070312 261.050781 277.574219 259.0625 279.402344 C 257.050781 280.90625 254.523438 281.554688 252.035156 281.207031 L 244.105469 281.207031 C 240.332031 281.207031 238.578125 280.71875 237.128906 279.402344 C 235.089844 277.574219 233.460938 274.015625 233.460938 264.195312 C 233.460938 254.378906 235.089844 250.769531 237.128906 248.964844 C 238.578125 247.625 240.332031 247.1875 244.105469 247.1875 Z M 245.835938 253.449219 C 244.054688 253.449219 243.457031 253.628906 243.070312 253.992188 C 242.683594 254.351562 241.753906 255.769531 241.753906 264.300781 C 241.753906 272.832031 242.527344 274.015625 243.070312 274.457031 C 243.613281 274.894531 244.054688 274.996094 245.835938 274.996094 L 250.277344 274.996094 C 252.136719 274.996094 252.679688 274.839844 253.121094 274.457031 C 253.558594 274.070312 254.410156 272.703125 254.410156 264.300781 C 254.410156 255.898438 253.636719 254.582031 253.121094 253.992188 C 252.601562 253.398438 252.136719 253.449219 250.277344 253.449219 Z M 245.835938 253.449219 "/>
<path style=" stroke:none;fill-rule:nonzero;fill:rgb(41.960784%,70.196078%,26.666667%);fill-opacity:1;" d="M 283.160156 264.6875 L 283.160156 240.511719 L 278.304688 242.1875 L 276.546875 237.03125 L 284.660156 233.988281 L 290.265625 233.988281 L 290.265625 264.6875 Z M 283.160156 264.6875 "/>
<path style=" stroke:none;fill-rule:nonzero;fill:rgb(41.960784%,70.196078%,26.666667%);fill-opacity:1;" d="M 311.316406 247.289062 L 311.316406 225.070312 L 306.824219 226.617188 L 305.222656 221.851562 L 312.6875 219.144531 L 317.851562 219.144531 L 317.851562 247.289062 Z M 311.316406 247.289062 "/>
<path style=" stroke:none;fill-rule:nonzero;fill:rgb(41.960784%,70.196078%,26.666667%);fill-opacity:1;" d="M 341.230469 201.332031 C 342.851562 201.085938 344.507812 201.511719 345.800781 202.519531 C 347.09375 203.679688 348.179688 206 348.179688 212.417969 C 348.179688 218.835938 347.09375 221.101562 345.800781 222.3125 C 344.492188 223.285156 342.847656 223.703125 341.230469 223.472656 L 336.0625 223.472656 C 334.460938 223.699219 332.835938 223.285156 331.542969 222.3125 C 330.199219 221.101562 329.167969 218.808594 329.167969 212.417969 C 329.167969 206.023438 330.199219 203.679688 331.542969 202.519531 C 332.820312 201.515625 334.457031 201.085938 336.0625 201.332031 Z M 337.199219 205.433594 C 336.039062 205.433594 335.652344 205.433594 335.417969 205.765625 C 335.183594 206.101562 334.539062 206.953125 334.539062 212.417969 C 334.539062 217.878906 335.054688 218.730469 335.417969 219.015625 C 335.78125 219.296875 336.039062 219.375 337.199219 219.375 L 340.09375 219.375 C 341.308594 219.375 341.644531 219.375 341.925781 219.015625 C 342.210938 218.652344 342.78125 217.878906 342.78125 212.417969 C 342.78125 206.953125 342.289062 206.078125 341.925781 205.765625 C 341.566406 205.457031 341.308594 205.433594 340.09375 205.433594 Z M 337.199219 205.433594 "/>
<path style=" stroke:none;fill-rule:nonzero;fill:rgb(41.960784%,70.196078%,26.666667%);fill-opacity:1;" d="M 361.457031 179.914062 C 362.789062 179.730469 364.144531 180.074219 365.226562 180.867188 C 366.3125 181.847656 367.191406 183.753906 367.191406 189.089844 C 367.191406 194.425781 366.3125 196.28125 365.226562 197.289062 C 364.144531 198.082031 362.789062 198.425781 361.457031 198.242188 L 357.167969 198.242188 C 355.84375 198.417969 354.5 198.078125 353.421875 197.289062 C 352.3125 196.28125 351.433594 194.375 351.433594 189.089844 C 351.433594 183.808594 352.3125 181.847656 353.421875 180.867188 C 354.488281 180.058594 355.839844 179.714844 357.167969 179.914062 Z M 358.125 183.292969 C 357.140625 183.292969 356.832031 183.292969 356.625 183.574219 C 356.417969 183.859375 355.902344 184.554688 355.902344 189.089844 C 355.902344 193.628906 356.316406 194.246094 356.625 194.554688 C 356.933594 194.863281 357.140625 194.839844 358.125 194.839844 L 360.5 194.839844 C 361.507812 194.839844 361.792969 194.839844 362.023438 194.554688 C 362.257812 194.273438 362.722656 193.601562 362.722656 189.089844 C 362.722656 184.582031 362.308594 183.9375 362.023438 183.574219 C 361.738281 183.214844 361.507812 183.292969 360.5 183.292969 Z M 358.125 183.292969 "/>
<path style=" stroke:none;fill-rule:nonzero;fill:rgb(41.960784%,70.196078%,26.666667%);fill-opacity:1;" d="M 376.023438 159.863281 C 376.992188 159.722656 377.980469 159.972656 378.761719 160.558594 C 379.5625 161.28125 380.210938 162.671875 380.210938 166.539062 C 380.210938 170.40625 379.5625 171.695312 378.761719 172.492188 C 377.984375 173.089844 376.996094 173.347656 376.023438 173.214844 L 372.898438 173.214844 C 371.933594 173.34375 370.957031 173.085938 370.1875 172.492188 C 369.386719 171.769531 368.738281 170.378906 368.738281 166.539062 C 368.738281 162.699219 369.386719 161.382812 370.1875 160.558594 C 370.960938 159.976562 371.9375 159.726562 372.898438 159.863281 Z M 373.597656 162.3125 C 372.898438 162.3125 372.667969 162.3125 372.511719 162.519531 C 372.355469 162.722656 371.996094 163.238281 371.996094 166.539062 C 371.996094 169.835938 372.304688 170.351562 372.511719 170.507812 C 372.71875 170.664062 372.898438 170.714844 373.597656 170.714844 L 375.328125 170.714844 C 376.050781 170.714844 376.28125 170.714844 376.4375 170.507812 C 376.59375 170.300781 376.953125 169.835938 376.953125 166.539062 C 376.953125 163.238281 376.644531 162.722656 376.4375 162.519531 C 376.230469 162.3125 376.050781 162.3125 375.328125 162.3125 Z M 373.597656 162.3125 "/>
<path style=" stroke:none;fill-rule:nonzero;fill:rgb(41.960784%,70.196078%,26.666667%);fill-opacity:1;" d="M 408.726562 20.375 C 394.027344 62.875 342.445312 96.148438 300.648438 106.074219 C 261.464844 115.375 226.796875 107.746094 190.53125 121.535156 C 120.398438 148.445312 115.621094 214.324219 139.308594 252.546875 C 141.140625 255.535156 232.300781 248.292969 277.21875 229.117188 C 336.890625 203.601562 372.511719 155.457031 381.757812 137.515625 C 383.441406 135.742188 386.027344 135.140625 388.320312 135.996094 C 390.75 136.589844 392.40625 138.839844 392.246094 141.332031 C 380.464844 193.332031 347.597656 238.128906 301.476562 265.046875 C 269.960938 283.605469 245.808594 292.753906 228.167969 297.546875 C 225.195312 298.347656 225.324219 300.539062 228.710938 300.511719 C 271.925781 300.179688 370.496094 306.464844 411.542969 254.429688 C 459.070312 191.4375 433.964844 91.898438 408.726562 20.375 Z M 408.726562 20.375 "/>
</g>
</svg>
