<?xml version="1.0" encoding="UTF-8"?>
<svg xmlns="http://www.w3.org/2000/svg" xmlns:xlink="http://www.w3.org/1999/xlink" width="512px" height="512px" viewBox="0 0 512 528" version="1.1">
<g id="surface1">
<path style=" stroke:none;fill-rule:evenodd;fill:rgb(42.745098%,70.196078%,24.705882%);fill-opacity:1;" d="M 256.507812 44.929688 C 258.539062 44.929688 260.570312 44.929688 262.597656 44.929688 C 340.773438 46.28125 411.84375 74.320312 457.53125 121.949219 C 485.957031 151.675781 501.863281 186.132812 503.894531 222.617188 C 507.957031 211.46875 509.984375 199.984375 510.324219 187.824219 C 512.355469 104.722656 419.964844 35.808594 303.886719 33.78125 C 269.367188 33.105469 236.878906 38.511719 207.773438 48.644531 C 224.019531 45.941406 240.261719 44.929688 256.507812 44.929688 Z M 256.507812 44.929688 "/>
<path style=" stroke:none;fill-rule:evenodd;fill:rgb(42.745098%,70.196078%,24.705882%);fill-opacity:1;" d="M 223.003906 74.65625 C 225.035156 74.65625 227.066406 74.65625 229.09375 74.65625 C 294.074219 76.007812 354.648438 96.953125 400 133.773438 C 446.699219 171.609375 471.742188 221.605469 470.730469 274.304688 C 470.730469 281.734375 469.714844 289.167969 468.699219 296.597656 C 480.203125 277.003906 486.972656 255.722656 487.648438 232.753906 C 489.679688 140.53125 388.832031 63.847656 262.597656 61.480469 C 215.558594 60.46875 171.5625 70.265625 135.015625 87.15625 C 162.085938 79.386719 191.867188 74.65625 223.003906 74.65625 Z M 223.003906 74.65625 "/>
<path style=" stroke:none;fill-rule:evenodd;fill:rgb(42.745098%,70.196078%,24.705882%);fill-opacity:1;" d="M 233.496094 91.546875 C 107.261719 89.183594 3.367188 166.542969 1.335938 264.84375 C 0.660156 298.964844 12.503906 331.054688 33.148438 358.757812 C 69.023438 405.035156 29.765625 484.085938 29.765625 484.085938 L 145.503906 434.089844 C 170.546875 441.859375 197.621094 446.585938 226.050781 447.261719 C 352.28125 449.628906 456.175781 371.929688 458.207031 273.628906 C 460.574219 175.664062 359.726562 93.910156 233.496094 91.546875 Z M 132.308594 297.949219 C 116.738281 297.949219 104.21875 285.449219 104.21875 269.910156 C 104.21875 254.371094 116.738281 241.875 132.308594 241.875 C 147.875 241.875 160.394531 254.371094 160.394531 269.910156 C 160.394531 285.113281 147.875 297.949219 132.308594 297.949219 Z M 226.050781 297.949219 C 210.480469 297.949219 197.960938 285.449219 197.960938 269.910156 C 197.960938 254.371094 210.480469 241.875 226.050781 241.875 C 241.617188 241.875 254.140625 254.371094 254.140625 269.910156 C 254.476562 285.113281 241.617188 297.949219 226.050781 297.949219 Z M 320.132812 297.949219 C 304.5625 297.949219 292.042969 285.449219 292.042969 269.910156 C 292.042969 254.371094 304.5625 241.875 320.132812 241.875 C 335.699219 241.875 348.21875 254.371094 348.21875 269.910156 C 348.21875 285.113281 335.699219 297.949219 320.132812 297.949219 Z M 320.132812 297.949219 "/>
</g>
</svg>
