<?xml version="1.0" encoding="UTF-8"?>
<svg xmlns="http://www.w3.org/2000/svg" xmlns:xlink="http://www.w3.org/1999/xlink" width="512px" height="512px" viewBox="0 0 512 528" version="1.1">
<g id="surface1">
<path style=" stroke:none;fill-rule:nonzero;fill:rgb(42.745098%,70.196078%,24.705882%);fill-opacity:1;" d="M 476.820312 83.101562 L 314.039062 83.101562 C 264.96875 83.101562 204.730469 114.519531 176.976562 155.054688 L 78.835938 296.261719 L 48.714844 339.839844 C 20.964844 341.527344 -0.015625 365.511719 1.675781 393.214844 C 3.367188 420.914062 27.394531 441.859375 55.148438 440.167969 C 81.882812 438.480469 102.527344 416.523438 102.1875 389.835938 C 102.1875 384.769531 101.171875 379.699219 99.816406 374.972656 L 129.9375 331.394531 C 146.183594 307.746094 187.46875 286.125 216.234375 286.125 L 290.351562 286.125 C 307.609375 284.4375 319.792969 268.898438 318.101562 252.007812 C 316.410156 237.480469 304.902344 225.996094 290.351562 224.308594 L 216.234375 224.308594 C 212.175781 224.308594 207.773438 224.984375 203.375 225.320312 L 227.742188 190.1875 C 243.984375 166.542969 285.273438 144.921875 314.039062 144.921875 L 477.160156 144.921875 C 494.417969 146.273438 509.308594 133.4375 510.664062 116.207031 C 512.015625 98.980469 499.15625 84.113281 481.898438 82.765625 C 480.203125 82.765625 478.511719 82.765625 476.820312 83.101562 Z M 476.820312 83.101562 "/>
<path style=" stroke:none;fill-rule:nonzero;fill:rgb(42.745098%,70.196078%,24.705882%);fill-opacity:1;" d="M 373.261719 219.238281 C 353.296875 219.238281 337.390625 235.453125 337.390625 255.046875 C 337.390625 274.980469 353.632812 290.855469 373.261719 290.855469 C 392.890625 290.855469 409.136719 274.640625 409.136719 255.046875 C 409.136719 235.453125 393.230469 219.238281 373.261719 219.238281 Z M 373.261719 219.238281 "/>
</g>
</svg>
