<?xml version="1.0" encoding="UTF-8"?>
<svg xmlns="http://www.w3.org/2000/svg" xmlns:xlink="http://www.w3.org/1999/xlink" width="512px" height="512px" viewBox="0 0 512 528" version="1.1">
<g id="surface1">
<path style=" stroke:none;fill-rule:nonzero;fill:rgb(42.745098%,70.196078%,24.705882%);fill-opacity:1;" d="M 510.324219 168.566406 C 510.324219 187.785156 494.71875 203.363281 475.464844 203.363281 C 456.214844 203.363281 440.609375 187.785156 440.609375 168.566406 C 440.609375 149.351562 456.214844 133.773438 475.464844 133.773438 C 494.71875 133.773438 510.324219 149.351562 510.324219 168.566406 Z M 510.324219 168.566406 "/>
<path style=" stroke:none;fill-rule:nonzero;fill:rgb(42.745098%,70.196078%,24.705882%);fill-opacity:1;" d="M 510.324219 355.039062 C 510.324219 374.257812 494.71875 389.835938 475.464844 389.835938 C 456.214844 389.835938 440.609375 374.257812 440.609375 355.039062 C 440.609375 335.824219 456.214844 320.246094 475.464844 320.246094 C 494.71875 320.246094 510.324219 335.824219 510.324219 355.039062 Z M 510.324219 355.039062 "/>
<path style=" stroke:none;fill-rule:nonzero;fill:rgb(42.745098%,70.196078%,24.705882%);fill-opacity:1;" d="M 325.546875 132.421875 L 325.546875 163.5 C 353.296875 166.878906 377.324219 181.40625 393.230469 202.6875 L 420.304688 187.148438 C 418.273438 181.40625 417.257812 175.324219 417.257812 168.90625 C 417.257812 150.664062 425.71875 134.449219 438.917969 123.976562 C 419.628906 106.410156 396.613281 92.898438 371.234375 84.789062 C 367.511719 108.4375 349.234375 127.355469 325.546875 132.421875 Z M 325.546875 132.421875 "/>
<path style=" stroke:none;fill-rule:nonzero;fill:rgb(42.745098%,70.196078%,24.705882%);fill-opacity:1;" d="M 432.148438 207.078125 L 405.074219 222.617188 C 410.152344 234.777344 413.195312 247.953125 413.195312 261.804688 C 413.195312 275.65625 410.488281 288.828125 405.074219 300.992188 L 432.148438 316.53125 C 442.976562 304.367188 458.207031 296.9375 475.464844 296.9375 C 482.910156 296.9375 489.679688 298.289062 496.449219 300.652344 C 499.15625 288.152344 500.511719 274.980469 500.511719 261.464844 C 500.511719 247.953125 499.15625 235.117188 496.449219 222.28125 C 490.019531 224.644531 482.910156 226.332031 475.464844 226.332031 C 458.207031 226.671875 442.640625 218.902344 432.148438 207.078125 Z M 432.148438 207.078125 "/>
<path style=" stroke:none;fill-rule:nonzero;fill:rgb(42.745098%,70.196078%,24.705882%);fill-opacity:1;" d="M 417.597656 355.039062 C 417.597656 348.621094 418.613281 342.542969 420.640625 336.796875 L 393.570312 321.257812 C 377.664062 342.542969 353.296875 357.066406 325.882812 360.445312 L 325.882812 391.523438 C 349.574219 396.253906 367.847656 415.507812 371.570312 439.492188 C 396.953125 431.386719 419.964844 417.875 439.253906 400.308594 C 425.71875 389.496094 417.597656 373.28125 417.597656 355.039062 Z M 417.597656 355.039062 "/>
<path style=" stroke:none;fill-rule:nonzero;fill:rgb(42.745098%,70.196078%,24.705882%);fill-opacity:1;" d="M 348.558594 448.277344 C 348.558594 467.492188 332.953125 483.070312 313.699219 483.070312 C 294.449219 483.070312 278.84375 467.492188 278.84375 448.277344 C 278.84375 429.058594 294.449219 413.480469 313.699219 413.480469 C 332.953125 413.480469 348.558594 429.058594 348.558594 448.277344 Z M 348.558594 448.277344 "/>
<path style=" stroke:none;fill-rule:nonzero;fill:rgb(42.745098%,70.196078%,24.705882%);fill-opacity:1;" d="M 302.195312 391.1875 L 302.195312 360.109375 C 256.507812 354.703125 219.957031 318.21875 215.21875 272.277344 C 162.765625 254.371094 117.078125 224.984375 92.035156 204.039062 C 118.429688 221.265625 164.457031 234.777344 216.574219 241.875 C 225.035156 200.660156 259.554688 168.566406 302.195312 163.5 L 302.195312 132.421875 C 277.828125 127.355469 258.539062 107.085938 255.832031 81.75 C 184.421875 97.964844 97.109375 135.800781 1.335938 52.359375 C 1.335938 239.507812 101.171875 415.171875 255.832031 443.886719 C 257.859375 417.875 277.152344 396.589844 302.195312 391.1875 Z M 302.195312 391.1875 "/>
<path style=" stroke:none;fill-rule:nonzero;fill:rgb(42.745098%,70.196078%,24.705882%);fill-opacity:1;" d="M 389.507812 261.804688 C 389.507812 220.011719 355.566406 186.132812 313.699219 186.132812 C 271.835938 186.132812 237.894531 220.011719 237.894531 261.804688 C 237.894531 303.59375 271.835938 337.472656 313.699219 337.472656 C 355.566406 337.472656 389.507812 303.59375 389.507812 261.804688 Z M 389.507812 261.804688 "/>
<path style=" stroke:none;fill-rule:nonzero;fill:rgb(42.745098%,70.196078%,24.705882%);fill-opacity:1;" d="M 348.558594 75.332031 C 348.558594 94.546875 332.953125 110.125 313.699219 110.125 C 294.449219 110.125 278.84375 94.546875 278.84375 75.332031 C 278.84375 56.117188 294.449219 40.539062 313.699219 40.539062 C 332.953125 40.539062 348.558594 56.117188 348.558594 75.332031 Z M 348.558594 75.332031 "/>
</g>
</svg>
