<?xml version="1.0" encoding="UTF-8"?>
<svg xmlns="http://www.w3.org/2000/svg" xmlns:xlink="http://www.w3.org/1999/xlink" width="512px" height="512px" viewBox="0 0 512 528" version="1.1">
<g id="surface1">
<path style=" stroke:none;fill-rule:evenodd;fill:rgb(42.745098%,70.196078%,24.705882%);fill-opacity:1;" d="M 95.757812 420.914062 C 43.640625 420.914062 1.335938 377.671875 1.335938 324.976562 C 1.335938 284.777344 25.703125 250.65625 60.222656 236.46875 C 70.035156 188.835938 111.664062 153.027344 161.75 153.027344 C 177.992188 153.027344 193.5625 156.746094 207.097656 163.5 C 229.773438 122.964844 272.75 95.601562 322.160156 95.601562 C 395.261719 95.601562 454.144531 155.730469 454.144531 229.710938 C 454.144531 232.414062 454.144531 235.117188 453.808594 237.480469 C 487.3125 252.34375 510.664062 286.125 510.664062 325.3125 C 510.664062 378.011719 468.699219 420.914062 416.242188 420.914062 Z M 95.757812 420.914062 "/>
<path style=" stroke:none;fill-rule:nonzero;fill:rgb(100%,100%,100%);fill-opacity:1;" d="M 279.859375 355.378906 L 363.789062 355.378906 L 363.789062 377.671875 L 279.859375 377.671875 Z M 279.859375 355.378906 "/>
<path style=" stroke:none;fill-rule:evenodd;fill:rgb(100%,100%,100%);fill-opacity:1;" d="M 257.523438 282.75 L 171.5625 332.070312 L 160.734375 313.488281 L 227.066406 275.316406 L 160.394531 233.089844 L 171.902344 215.1875 L 257.859375 269.574219 Z M 257.523438 282.75 "/>
</g>
</svg>
