<?xml version="1.0" encoding="UTF-8"?>
<svg xmlns="http://www.w3.org/2000/svg" xmlns:xlink="http://www.w3.org/1999/xlink" width="512px" height="512px" viewBox="0 0 512 512" version="1.1">
<g id="surface1">
<path style=" stroke:none;fill-rule:nonzero;fill:rgb(42.745098%,70.196078%,24.705882%);fill-opacity:1;" d="M 408.328125 157.628906 C 408.308594 156.511719 408.390625 155.390625 408.574219 154.285156 L 267.777344 73 C 260.914062 78.515625 251.15625 78.582031 244.21875 73.160156 L 103.105469 154.625 C 103.214844 155.398438 103.277344 156.179688 103.289062 156.964844 C 103.460938 164.851562 98.683594 172.007812 91.328125 174.875 L 91.328125 337.300781 C 98.285156 340.15625 102.867188 346.882812 102.984375 354.402344 C 103.003906 355.695312 102.894531 356.984375 102.65625 358.257812 L 243.675781 439.675781 C 250.789062 433.710938 261.1875 433.8125 268.183594 439.910156 L 408.699219 358.785156 C 406.917969 349.605469 412.121094 340.507812 420.933594 337.386719 L 420.933594 175.097656 C 413.492188 172.488281 408.460938 165.515625 408.328125 157.628906 Z M 159.628906 334.558594 C 152.09375 334.691406 145.875 328.691406 145.742188 321.152344 C 145.605469 313.617188 151.605469 307.398438 159.144531 307.261719 C 166.683594 307.128906 172.902344 313.128906 173.035156 320.667969 C 173.167969 328.203125 167.167969 334.421875 159.628906 334.558594 Z M 341.867188 303.582031 C 302.554688 349.347656 215.542969 309.253906 183.054688 329.847656 C 186.980469 327.128906 193.925781 323.019531 202.074219 321.152344 C 230.820312 314.507812 243.742188 312.273438 261.191406 304.726562 C 293.921875 290.472656 327.859375 257.203125 336.613281 220.914062 C 322.242188 255.453125 283.597656 283.46875 249.296875 293.617188 C 225.992188 300.558594 178.164062 305.75 177.925781 305.75 C 177.507812 305.378906 177.066406 305.035156 176.597656 304.726562 C 149.367188 289.207031 152.566406 228.21875 204.917969 211.917969 C 227.859375 204.730469 254.734375 211.3125 279.367188 207.085938 C 305.578125 202.675781 336.730469 185.226562 350.5625 160.710938 C 361.554688 202.015625 373.8125 266.324219 341.867188 303.582031 Z M 408.328125 157.628906 C 408.308594 156.511719 408.390625 155.390625 408.574219 154.285156 L 267.777344 73 C 260.914062 78.515625 251.15625 78.582031 244.21875 73.160156 L 103.105469 154.625 C 103.214844 155.398438 103.277344 156.179688 103.289062 156.964844 C 103.460938 164.851562 98.683594 172.007812 91.328125 174.875 L 91.328125 337.300781 C 98.285156 340.15625 102.867188 346.882812 102.984375 354.402344 C 103.003906 355.695312 102.894531 356.984375 102.65625 358.257812 L 243.675781 439.675781 C 250.789062 433.710938 261.1875 433.8125 268.183594 439.910156 L 408.699219 358.785156 C 406.917969 349.605469 412.121094 340.507812 420.933594 337.386719 L 420.933594 175.097656 C 413.492188 172.488281 408.460938 165.515625 408.328125 157.628906 Z M 159.628906 334.558594 C 152.09375 334.691406 145.875 328.691406 145.742188 321.152344 C 145.605469 313.617188 151.605469 307.398438 159.144531 307.261719 C 166.683594 307.128906 172.902344 313.128906 173.035156 320.667969 C 173.167969 328.203125 167.167969 334.421875 159.628906 334.558594 Z M 341.867188 303.582031 C 302.554688 349.347656 215.542969 309.253906 183.054688 329.847656 C 186.980469 327.128906 193.925781 323.019531 202.074219 321.152344 C 230.820312 314.507812 243.742188 312.273438 261.191406 304.726562 C 293.921875 290.472656 327.859375 257.203125 336.613281 220.914062 C 322.242188 255.453125 283.597656 283.46875 249.296875 293.617188 C 225.992188 300.558594 178.164062 305.75 177.925781 305.75 C 177.507812 305.378906 177.066406 305.035156 176.597656 304.726562 C 149.367188 289.207031 152.566406 228.21875 204.917969 211.917969 C 227.859375 204.730469 254.734375 211.3125 279.367188 207.085938 C 305.578125 202.675781 336.730469 185.226562 350.5625 160.710938 C 361.554688 202.015625 373.8125 266.324219 341.867188 303.582031 Z M 408.328125 157.628906 C 408.308594 156.511719 408.390625 155.390625 408.574219 154.285156 L 267.777344 73 C 260.914062 78.515625 251.15625 78.582031 244.21875 73.160156 L 103.105469 154.625 C 103.214844 155.398438 103.277344 156.179688 103.289062 156.964844 C 103.460938 164.851562 98.683594 172.007812 91.328125 174.875 L 91.328125 337.300781 C 98.285156 340.15625 102.867188 346.882812 102.984375 354.402344 C 103.003906 355.695312 102.894531 356.984375 102.65625 358.257812 L 243.675781 439.675781 C 250.789062 433.710938 261.1875 433.8125 268.183594 439.910156 L 408.699219 358.785156 C 406.917969 349.605469 412.121094 340.507812 420.933594 337.386719 L 420.933594 175.097656 C 413.492188 172.488281 408.460938 165.515625 408.328125 157.628906 Z M 159.628906 334.558594 C 152.09375 334.691406 145.875 328.691406 145.742188 321.152344 C 145.605469 313.617188 151.605469 307.398438 159.144531 307.261719 C 166.683594 307.128906 172.902344 313.128906 173.035156 320.667969 C 173.167969 328.203125 167.167969 334.421875 159.628906 334.558594 Z M 341.867188 303.582031 C 302.554688 349.347656 215.542969 309.253906 183.054688 329.847656 C 186.980469 327.128906 193.925781 323.019531 202.074219 321.152344 C 230.820312 314.507812 243.742188 312.273438 261.191406 304.726562 C 293.921875 290.472656 327.859375 257.203125 336.613281 220.914062 C 322.242188 255.453125 283.597656 283.46875 249.296875 293.617188 C 225.992188 300.558594 178.164062 305.75 177.925781 305.75 C 177.507812 305.378906 177.066406 305.035156 176.597656 304.726562 C 149.367188 289.207031 152.566406 228.21875 204.917969 211.917969 C 227.859375 204.730469 254.734375 211.3125 279.367188 207.085938 C 305.578125 202.675781 336.730469 185.226562 350.5625 160.710938 C 361.554688 202.015625 373.8125 266.324219 341.867188 303.582031 Z M 255.488281 7.277344 L 39.894531 131.753906 L 39.894531 380.699219 L 255.488281 505.175781 L 471.085938 380.699219 L 471.085938 131.753906 Z M 427.582031 374.011719 C 423.289062 374.121094 419.09375 372.742188 415.703125 370.109375 L 274.46875 451.644531 C 274.5625 452.355469 274.617188 453.070312 274.625 453.785156 C 274.769531 460.914062 270.878906 467.507812 264.574219 470.835938 C 258.273438 474.164062 250.628906 473.648438 244.828125 469.511719 C 239.023438 465.375 236.050781 458.316406 237.144531 451.273438 L 95.742188 369.632812 C 90.09375 374.003906 82.46875 374.816406 76.023438 371.734375 C 69.582031 368.65625 65.425781 362.207031 65.28125 355.066406 C 65.152344 346.894531 70.292969 339.5625 78.023438 336.902344 L 78.023438 175.039062 C 70.925781 172.464844 66.042969 165.902344 65.621094 158.363281 C 65.199219 150.824219 69.3125 143.757812 76.078125 140.40625 C 82.84375 137.050781 90.957031 138.058594 96.703125 142.960938 L 96.707031 142.960938 L 237.332031 61.769531 C 235.957031 54.359375 239.121094 46.839844 245.386719 42.648438 C 251.648438 38.457031 259.808594 38.398438 266.132812 42.496094 C 272.457031 46.597656 275.730469 54.066406 274.460938 61.496094 L 415.203125 142.75 C 420.9375 138.039062 428.90625 137.132812 435.554688 140.429688 C 442.203125 143.730469 446.300781 150.625 446.015625 158.042969 C 445.734375 165.460938 441.125 172.023438 434.242188 174.808594 L 434.242188 337.664062 C 442.558594 341.007812 447.367188 349.742188 445.753906 358.558594 C 444.136719 367.371094 436.542969 373.832031 427.582031 374.011719 Z M 408.332031 157.628906 C 408.3125 156.511719 408.394531 155.390625 408.574219 154.285156 L 267.777344 73 C 260.914062 78.515625 251.15625 78.582031 244.21875 73.160156 L 103.105469 154.625 C 103.214844 155.398438 103.277344 156.179688 103.289062 156.964844 C 103.460938 164.851562 98.683594 172.007812 91.328125 174.875 L 91.328125 337.300781 C 98.285156 340.15625 102.867188 346.882812 102.984375 354.402344 C 103.003906 355.695312 102.894531 356.984375 102.65625 358.257812 L 243.675781 439.675781 C 250.789062 433.710938 261.1875 433.8125 268.183594 439.910156 L 408.699219 358.785156 C 406.917969 349.605469 412.121094 340.507812 420.933594 337.386719 L 420.933594 175.097656 C 413.492188 172.488281 408.460938 165.515625 408.328125 157.628906 Z M 159.632812 334.558594 C 152.09375 334.691406 145.875 328.691406 145.742188 321.152344 C 145.605469 313.617188 151.609375 307.398438 159.144531 307.261719 C 166.683594 307.128906 172.902344 313.128906 173.035156 320.667969 C 173.167969 328.203125 167.167969 334.421875 159.628906 334.558594 Z M 341.867188 303.582031 C 302.554688 349.347656 215.542969 309.253906 183.054688 329.847656 C 186.980469 327.128906 193.925781 323.019531 202.074219 321.152344 C 230.820312 314.507812 243.742188 312.273438 261.191406 304.726562 C 293.925781 290.472656 327.859375 257.203125 336.613281 220.914062 C 322.242188 255.453125 283.597656 283.46875 249.296875 293.617188 C 225.992188 300.558594 178.164062 305.75 177.925781 305.75 C 177.507812 305.378906 177.066406 305.035156 176.597656 304.726562 C 149.367188 289.207031 152.566406 228.21875 204.917969 211.917969 C 227.859375 204.730469 254.734375 211.3125 279.367188 207.085938 C 305.578125 202.675781 336.730469 185.226562 350.5625 160.710938 C 361.554688 202.015625 373.8125 266.324219 341.867188 303.582031 Z M 408.332031 157.628906 C 408.3125 156.511719 408.394531 155.390625 408.574219 154.285156 L 267.777344 73 C 260.914062 78.515625 251.15625 78.582031 244.21875 73.160156 L 103.105469 154.625 C 103.214844 155.398438 103.277344 156.179688 103.289062 156.964844 C 103.460938 164.851562 98.683594 172.007812 91.328125 174.875 L 91.328125 337.300781 C 98.285156 340.15625 102.867188 346.882812 102.984375 354.402344 C 103.003906 355.695312 102.894531 356.984375 102.65625 358.257812 L 243.675781 439.675781 C 250.789062 433.710938 261.1875 433.8125 268.183594 439.910156 L 408.699219 358.785156 C 406.917969 349.605469 412.121094 340.507812 420.933594 337.386719 L 420.933594 175.097656 C 413.492188 172.488281 408.460938 165.515625 408.328125 157.628906 Z M 159.632812 334.558594 C 152.09375 334.691406 145.875 328.691406 145.742188 321.152344 C 145.605469 313.617188 151.609375 307.398438 159.144531 307.261719 C 166.683594 307.128906 172.902344 313.128906 173.035156 320.667969 C 173.167969 328.203125 167.167969 334.421875 159.628906 334.558594 Z M 341.867188 303.582031 C 302.554688 349.347656 215.542969 309.253906 183.054688 329.847656 C 186.980469 327.128906 193.925781 323.019531 202.074219 321.152344 C 230.820312 314.507812 243.742188 312.273438 261.191406 304.726562 C 293.925781 290.472656 327.859375 257.203125 336.613281 220.914062 C 322.242188 255.453125 283.597656 283.46875 249.296875 293.617188 C 225.992188 300.558594 178.164062 305.75 177.925781 305.75 C 177.507812 305.378906 177.066406 305.035156 176.597656 304.726562 C 149.367188 289.207031 152.566406 228.21875 204.917969 211.917969 C 227.859375 204.730469 254.734375 211.3125 279.367188 207.085938 C 305.578125 202.675781 336.730469 185.226562 350.5625 160.710938 C 361.554688 202.015625 373.8125 266.324219 341.867188 303.582031 Z M 408.332031 157.628906 C 408.3125 156.511719 408.394531 155.390625 408.574219 154.285156 L 267.777344 73 C 260.914062 78.515625 251.15625 78.582031 244.21875 73.160156 L 103.105469 154.625 C 103.214844 155.398438 103.277344 156.179688 103.289062 156.964844 C 103.460938 164.851562 98.683594 172.007812 91.328125 174.875 L 91.328125 337.300781 C 98.285156 340.15625 102.867188 346.882812 102.984375 354.402344 C 103.003906 355.695312 102.894531 356.984375 102.65625 358.257812 L 243.675781 439.675781 C 250.789062 433.710938 261.1875 433.8125 268.183594 439.910156 L 408.699219 358.785156 C 406.917969 349.605469 412.121094 340.507812 420.933594 337.386719 L 420.933594 175.097656 C 413.492188 172.488281 408.460938 165.515625 408.328125 157.628906 Z M 159.632812 334.558594 C 152.09375 334.691406 145.875 328.691406 145.742188 321.152344 C 145.605469 313.617188 151.609375 307.398438 159.144531 307.261719 C 166.683594 307.128906 172.902344 313.128906 173.035156 320.667969 C 173.167969 328.203125 167.167969 334.421875 159.628906 334.558594 Z M 341.867188 303.582031 C 302.554688 349.347656 215.542969 309.253906 183.054688 329.847656 C 186.980469 327.128906 193.925781 323.019531 202.074219 321.152344 C 230.820312 314.507812 243.742188 312.273438 261.191406 304.726562 C 293.925781 290.472656 327.859375 257.203125 336.613281 220.914062 C 322.242188 255.453125 283.597656 283.46875 249.296875 293.617188 C 225.992188 300.558594 178.164062 305.75 177.925781 305.75 C 177.507812 305.378906 177.066406 305.035156 176.597656 304.726562 C 149.367188 289.207031 152.566406 228.21875 204.917969 211.917969 C 227.859375 204.730469 254.734375 211.3125 279.367188 207.085938 C 305.578125 202.675781 336.730469 185.226562 350.5625 160.710938 C 361.554688 202.015625 373.8125 266.324219 341.867188 303.582031 Z M 408.332031 157.628906 C 408.3125 156.511719 408.394531 155.390625 408.574219 154.285156 L 267.777344 73 C 260.914062 78.515625 251.15625 78.582031 244.21875 73.160156 L 103.105469 154.625 C 103.214844 155.398438 103.277344 156.179688 103.289062 156.964844 C 103.460938 164.851562 98.683594 172.007812 91.328125 174.875 L 91.328125 337.300781 C 98.285156 340.15625 102.867188 346.882812 102.984375 354.402344 C 103.003906 355.695312 102.894531 356.984375 102.65625 358.257812 L 243.675781 439.675781 C 250.789062 433.710938 261.1875 433.8125 268.183594 439.910156 L 408.699219 358.785156 C 406.917969 349.605469 412.121094 340.507812 420.933594 337.386719 L 420.933594 175.097656 C 413.492188 172.488281 408.460938 165.515625 408.328125 157.628906 Z M 159.632812 334.558594 C 152.09375 334.691406 145.875 328.691406 145.742188 321.152344 C 145.605469 313.617188 151.609375 307.398438 159.144531 307.261719 C 166.683594 307.128906 172.902344 313.128906 173.035156 320.667969 C 173.167969 328.203125 167.167969 334.421875 159.628906 334.558594 Z M 341.867188 303.582031 C 302.554688 349.347656 215.542969 309.253906 183.054688 329.847656 C 186.980469 327.128906 193.925781 323.019531 202.074219 321.152344 C 230.820312 314.507812 243.742188 312.273438 261.191406 304.726562 C 293.925781 290.472656 327.859375 257.203125 336.613281 220.914062 C 322.242188 255.453125 283.597656 283.46875 249.296875 293.617188 C 225.992188 300.558594 178.164062 305.75 177.925781 305.75 C 177.507812 305.378906 177.066406 305.035156 176.597656 304.726562 C 149.367188 289.207031 152.566406 228.21875 204.917969 211.917969 C 227.859375 204.730469 254.734375 211.3125 279.367188 207.085938 C 305.578125 202.675781 336.730469 185.226562 350.5625 160.710938 C 361.554688 202.015625 373.8125 266.324219 341.867188 303.582031 Z M 341.867188 303.582031 "/>
</g>
</svg>
