<?xml version="1.0" encoding="UTF-8"?>
<svg xmlns="http://www.w3.org/2000/svg" xmlns:xlink="http://www.w3.org/1999/xlink" width="512px" height="512px" viewBox="0 0 512 512" version="1.1">
<g id="surface1">
<path style=" stroke:none;fill-rule:nonzero;fill:rgb(41.960784%,70.196078%,26.666667%);fill-opacity:1;" d="M 196.734375 343.378906 L 315.265625 343.378906 L 315.265625 357.253906 L 196.734375 357.253906 Z M 196.734375 343.378906 "/>
<path style=" stroke:none;fill-rule:nonzero;fill:rgb(41.960784%,70.196078%,26.666667%);fill-opacity:1;" d="M 196.734375 287.839844 L 315.265625 287.839844 L 315.265625 301.714844 L 196.734375 301.714844 Z M 196.734375 287.839844 "/>
<path style=" stroke:none;fill-rule:nonzero;fill:rgb(41.960784%,70.196078%,26.666667%);fill-opacity:1;" d="M 481.308594 286.835938 C 464.332031 286.855469 450.558594 273.105469 450.546875 256.132812 C 450.53125 239.15625 464.285156 225.386719 481.261719 225.378906 C 498.234375 225.375 512 239.132812 512 256.109375 C 512.03125 114.722656 397.4375 0.0820312 256.054688 0.0546875 C 114.667969 0.0234375 0.03125 114.613281 0 256 C 0.0585938 239.042969 13.84375 225.339844 30.796875 225.378906 C 47.753906 225.421875 61.472656 239.1875 61.453125 256.144531 C 61.433594 273.097656 47.683594 286.835938 30.726562 286.835938 C 22.558594 286.835938 14.726562 283.582031 8.960938 277.796875 C 3.195312 272.011719 -0.0273438 264.167969 0 256 C 0 397.386719 114.613281 512 256 512 C 397.386719 512 512 397.386719 512 256 C 512.027344 264.160156 508.808594 272 503.050781 277.785156 C 497.292969 283.570312 489.46875 286.824219 481.308594 286.835938 Z M 103.332031 263.421875 L 81.101562 263.421875 C 77.003906 263.421875 73.679688 260.097656 73.679688 256 C 73.679688 251.902344 77.003906 248.578125 81.101562 248.578125 L 103.332031 248.578125 C 107.429688 248.578125 110.753906 251.902344 110.753906 256 C 110.753906 260.097656 107.429688 263.421875 103.332031 263.421875 Z M 155.175781 263.421875 L 132.949219 263.421875 C 128.847656 263.421875 125.527344 260.097656 125.527344 256 C 125.527344 251.902344 128.847656 248.578125 132.949219 248.578125 L 155.175781 248.578125 C 159.277344 248.578125 162.597656 251.902344 162.597656 256 C 162.597656 260.097656 159.277344 263.421875 155.175781 263.421875 Z M 338.429688 380.414062 L 173.5 380.414062 L 173.5 131.585938 L 338.429688 131.585938 Z M 381.097656 263.421875 L 358.867188 263.421875 C 354.765625 263.421875 351.445312 260.097656 351.445312 256 C 351.445312 251.902344 354.765625 248.578125 358.867188 248.578125 L 381.097656 248.578125 C 385.195312 248.578125 388.519531 251.902344 388.519531 256 C 388.519531 260.097656 385.195312 263.421875 381.097656 263.421875 Z M 432.941406 263.421875 L 410.710938 263.421875 C 406.613281 263.421875 403.289062 260.097656 403.289062 256 C 403.289062 251.902344 406.613281 248.578125 410.710938 248.578125 L 432.941406 248.578125 C 437.039062 248.578125 440.363281 251.902344 440.363281 256 C 440.363281 260.097656 437.039062 263.421875 432.941406 263.421875 Z M 432.941406 263.421875 "/>
<path style=" stroke:none;fill-rule:nonzero;fill:rgb(41.960784%,70.196078%,26.666667%);fill-opacity:1;" d="M 196.734375 315.625 L 315.265625 315.625 L 315.265625 329.5 L 196.734375 329.5 Z M 196.734375 315.625 "/>
<path style=" stroke:none;fill-rule:nonzero;fill:rgb(41.960784%,70.196078%,26.666667%);fill-opacity:1;" d="M 296.980469 209.925781 L 286.152344 250.40625 L 301.464844 250.40625 L 312.328125 209.925781 L 301.464844 169.410156 L 286.152344 169.410156 Z M 296.980469 209.925781 "/>
<path style=" stroke:none;fill-rule:nonzero;fill:rgb(41.960784%,70.196078%,26.666667%);fill-opacity:1;" d="M 216.023438 209.925781 L 226.886719 169.410156 L 211.539062 169.410156 L 200.710938 209.925781 L 211.539062 250.40625 L 226.886719 250.40625 Z M 216.023438 209.925781 "/>
<path style=" stroke:none;fill-rule:nonzero;fill:rgb(41.960784%,70.196078%,26.666667%);fill-opacity:1;" d="M 238 250.40625 L 253.347656 250.40625 L 275.039062 169.410156 L 259.691406 169.410156 Z M 238 250.40625 "/>
</g>
</svg>
