<?xml version="1.0" encoding="UTF-8"?>
<svg xmlns="http://www.w3.org/2000/svg" xmlns:xlink="http://www.w3.org/1999/xlink" width="512px" height="512px" viewBox="0 0 512 528" version="1.1">
<g id="surface1">
<path style=" stroke:none;fill-rule:nonzero;fill:rgb(42.745098%,70.196078%,24.705882%);fill-opacity:1;" d="M 126.214844 109.449219 C 142.121094 90.535156 163.78125 79.722656 189.160156 77.695312 L 198.300781 76.683594 C 216.574219 76.007812 236.539062 75.332031 259.214844 75.332031 C 278.167969 75.332031 295.085938 75.667969 310.65625 76.34375 C 317.085938 56.753906 338.40625 46.28125 358.035156 53.035156 C 370.894531 57.429688 380.371094 68.574219 382.738281 81.75 C 414.550781 85.804688 440.269531 91.546875 468.699219 98.304688 L 468.699219 23.648438 L 465.652344 22.972656 C 406.429688 8.78125 361.417969 0 256.507812 0 C 152.273438 0 107.601562 8.78125 48.039062 22.972656 L 45.332031 23.648438 L 45.332031 182.757812 C 65.636719 178.027344 83.914062 173.972656 103.539062 170.59375 C 104.21875 148.300781 112.339844 126.679688 126.214844 109.449219 Z M 126.214844 109.449219 "/>
<path style=" stroke:none;fill-rule:nonzero;fill:rgb(42.745098%,70.196078%,24.705882%);fill-opacity:1;" d="M 49.394531 413.480469 L 51.761719 414.15625 C 79.851562 420.914062 105.234375 426.65625 136.367188 430.371094 C 143.8125 411.117188 165.472656 401.660156 184.421875 409.089844 C 195.929688 413.480469 204.730469 423.617188 207.4375 435.777344 C 222.664062 436.453125 239.25 436.453125 257.859375 436.453125 C 279.859375 436.453125 299.488281 436.113281 317.421875 435.441406 L 326.222656 434.425781 C 366.15625 431.386719 393.90625 399.292969 393.90625 356.390625 C 393.90625 354.363281 393.90625 352.675781 393.570312 350.648438 C 358.035156 355.714844 317.085938 358.757812 256.507812 358.757812 C 152.273438 358.757812 106.585938 350.3125 45.332031 335.785156 L 45.332031 412.128906 Z M 49.394531 413.480469 "/>
<path style=" stroke:none;fill-rule:nonzero;fill:rgb(42.745098%,70.196078%,24.705882%);fill-opacity:1;" d="M 256.507812 350.648438 C 317.085938 350.648438 357.695312 347.609375 392.554688 342.542969 C 385.785156 304.367188 352.957031 276.332031 314.039062 275.992188 L 314.039062 276.332031 L 203.714844 276.332031 C 149.90625 276.332031 105.570312 233.089844 103.539062 179.378906 C 84.925781 182.757812 67.328125 186.808594 48.378906 191.203125 L 45.332031 191.878906 L 45.332031 327.339844 L 48.378906 328.015625 C 107.601562 342.203125 152.613281 350.648438 256.507812 350.648438 Z M 256.507812 350.648438 "/>
<path style=" stroke:none;fill-rule:nonzero;fill:rgb(42.745098%,70.196078%,24.705882%);fill-opacity:1;" d="M 468.019531 118.570312 L 465.652344 117.894531 C 437.5625 111.140625 412.183594 105.398438 381.046875 101.679688 C 373.601562 120.9375 352.28125 130.394531 332.992188 122.964844 C 321.144531 118.570312 312.6875 108.4375 309.976562 96.277344 C 294.75 95.601562 278.167969 95.601562 259.554688 95.601562 C 237.554688 95.601562 217.925781 95.9375 199.992188 96.613281 L 190.855469 97.289062 C 153.628906 99.992188 126.554688 128.367188 123.507812 167.21875 C 158.027344 162.488281 198.300781 159.785156 256.507812 159.785156 C 361.417969 159.785156 407.105469 168.566406 468.699219 182.757812 L 468.699219 118.570312 Z M 468.019531 118.570312 "/>
<path style=" stroke:none;fill-rule:nonzero;fill:rgb(42.745098%,70.196078%,24.705882%);fill-opacity:1;" d="M 413.875 356.730469 C 413.875 381.726562 405.75 405.035156 390.859375 422.601562 C 374.957031 441.519531 353.296875 452.332031 327.914062 454.355469 L 318.777344 455.371094 C 300.503906 456.046875 280.535156 456.722656 257.859375 456.722656 C 238.910156 456.722656 221.988281 456.382812 206.421875 455.707031 C 199.992188 475.300781 178.671875 485.773438 159.042969 479.015625 C 146.183594 474.625 136.707031 463.476562 134.335938 450.304688 C 102.1875 446.25 76.128906 440.507812 47.023438 433.414062 L 44.992188 433.074219 L 44.992188 504.351562 L 48.039062 505.027344 C 107.601562 519.21875 152.273438 528 256.507812 528 C 361.078125 528 406.429688 519.21875 465.652344 505.027344 L 468.699219 504.351562 L 468.699219 336.121094 C 449.40625 340.515625 431.808594 344.566406 413.535156 347.945312 C 413.875 350.648438 413.875 353.6875 413.875 356.730469 Z M 413.875 356.730469 "/>
<path style=" stroke:none;fill-rule:nonzero;fill:rgb(42.745098%,70.196078%,24.705882%);fill-opacity:1;" d="M 256.507812 168.230469 C 197.621094 168.230469 157.6875 170.933594 123.167969 176 C 123.507812 220.253906 159.042969 256.0625 202.699219 256.398438 L 202.699219 256.0625 L 313.699219 256.0625 C 363.109375 256.0625 404.058594 292.207031 412.183594 339.5 C 430.117188 336.121094 447.039062 332.40625 465.652344 327.675781 L 468.699219 327 L 468.699219 191.878906 L 465.652344 191.203125 C 406.429688 176.675781 361.417969 168.230469 256.507812 168.230469 Z M 256.507812 168.230469 "/>
</g>
</svg>
