<?xml version="1.0" encoding="UTF-8"?>
<svg xmlns="http://www.w3.org/2000/svg" xmlns:xlink="http://www.w3.org/1999/xlink" width="512px" height="512px" viewBox="0 0 512 512" version="1.1">
<defs>
<filter id="alpha" filterUnits="objectBoundingBox" x="0%" y="0%" width="100%" height="100%">
  <feColorMatrix type="matrix" in="SourceGraphic" values="0 0 0 0 1 0 0 0 0 1 0 0 0 0 1 0 0 0 1 0"/>
</filter>
<mask id="mask0">
  <g filter="url(#alpha)">
<rect x="0" y="0" width="512" height="512" style="fill:rgb(0%,0%,0%);fill-opacity:0.964706;stroke:none;"/>
  </g>
</mask>
<clipPath id="clip1">
  <rect x="0" y="0" width="512" height="512"/>
</clipPath>
<g id="surface5" clip-path="url(#clip1)">
<path style=" stroke:none;fill-rule:evenodd;fill:rgb(49.019608%,74.117647%,30.980392%);fill-opacity:1;" d="M 144.867188 29.765625 C 217.644531 29.105469 290.410156 29.769531 363.164062 31.75 C 400.457031 34.71875 437.496094 39.347656 474.292969 45.644531 C 474.292969 91.949219 474.292969 138.253906 474.292969 184.558594 C 436.121094 178.632812 397.753906 174.003906 359.195312 170.667969 C 288.046875 99.53125 216.605469 99.53125 144.867188 170.667969 C 107.671875 174.375 70.628906 179.003906 33.738281 184.558594 C 33.738281 138.253906 33.738281 91.949219 33.738281 45.644531 C 71.265625 39.902344 108.308594 34.613281 144.867188 29.765625 Z M 144.867188 29.765625 "/>
</g>
<mask id="mask1">
  <g filter="url(#alpha)">
<rect x="0" y="0" width="512" height="512" style="fill:rgb(0%,0%,0%);fill-opacity:0.592157;stroke:none;"/>
  </g>
</mask>
<clipPath id="clip2">
  <rect x="0" y="0" width="512" height="512"/>
</clipPath>
<g id="surface8" clip-path="url(#clip2)">
<path style=" stroke:none;fill-rule:evenodd;fill:rgb(49.019608%,74.117647%,30.980392%);fill-opacity:1;" d="M 208.371094 132.960938 C 226.359375 131.25 243.558594 133.234375 259.96875 138.914062 C 198.59375 142.078125 166.179688 174.492188 162.730469 236.15625 C 148.902344 188.433594 164.117188 154.035156 208.371094 132.960938 Z M 208.371094 132.960938 "/>
</g>
<mask id="mask2">
  <g filter="url(#alpha)">
<rect x="0" y="0" width="512" height="512" style="fill:rgb(0%,0%,0%);fill-opacity:0.592157;stroke:none;"/>
  </g>
</mask>
<clipPath id="clip3">
  <rect x="0" y="0" width="512" height="512"/>
</clipPath>
<g id="surface11" clip-path="url(#clip3)">
<path style=" stroke:none;fill-rule:evenodd;fill:rgb(49.019608%,74.117647%,30.980392%);fill-opacity:1;" d="M 244.09375 144.867188 C 254.820312 146.660156 265.40625 149.308594 275.84375 152.804688 C 217.4375 156.292969 185.023438 188.042969 178.605469 248.0625 C 165.402344 191.074219 187.230469 156.675781 244.09375 144.867188 Z M 244.09375 144.867188 "/>
</g>
<mask id="mask3">
  <g filter="url(#alpha)">
<rect x="0" y="0" width="512" height="512" style="fill:rgb(0%,0%,0%);fill-opacity:0.941176;stroke:none;"/>
  </g>
</mask>
<clipPath id="clip4">
  <rect x="0" y="0" width="512" height="512"/>
</clipPath>
<g id="surface14" clip-path="url(#clip4)">
<path style=" stroke:none;fill-rule:evenodd;fill:rgb(49.019608%,74.117647%,30.980392%);fill-opacity:1;" d="M 252.03125 160.746094 C 313.367188 163.199219 341.8125 194.953125 337.363281 256 C 321.660156 303.226562 289.246094 321.089844 240.125 309.582031 C 190.15625 285.644531 176.265625 247.941406 198.449219 196.464844 C 212.453125 177.945312 230.3125 166.039062 252.03125 160.746094 Z M 252.03125 160.746094 "/>
</g>
<mask id="mask4">
  <g filter="url(#alpha)">
<rect x="0" y="0" width="512" height="512" style="fill:rgb(0%,0%,0%);fill-opacity:0.956863;stroke:none;"/>
  </g>
</mask>
<clipPath id="clip5">
  <rect x="0" y="0" width="512" height="512"/>
</clipPath>
<g id="surface17" clip-path="url(#clip5)">
<path style=" stroke:none;fill-rule:evenodd;fill:rgb(49.019608%,74.117647%,30.980392%);fill-opacity:1;" d="M 132.960938 176.621094 C 136.441406 176.101562 139.085938 177.425781 140.898438 180.589844 C 117.019531 224.582031 115.035156 269.5625 134.945312 315.535156 C 137.792969 319.308594 141.101562 319.96875 144.867188 317.519531 C 156.804688 303.625 171.355469 293.703125 188.527344 287.75 C 203.554688 294.96875 202.230469 300.921875 184.558594 305.613281 C 190.648438 307.582031 196.605469 306.921875 202.417969 303.628906 C 207.28125 305.066406 211.910156 307.050781 216.308594 309.582031 C 199.035156 316.257812 183.820312 326.179688 170.667969 339.347656 C 166.769531 344.34375 165.445312 349.636719 166.699219 355.226562 C 179.238281 338.015625 195.773438 326.109375 216.308594 319.503906 C 231.875 324.71875 247.75 328.6875 263.9375 331.410156 C 279.609375 328.980469 294.824219 325.011719 309.582031 319.503906 C 326.4375 323.300781 340.988281 331.238281 353.242188 343.316406 C 355.226562 341.332031 357.210938 339.347656 359.195312 337.363281 C 397.753906 334.027344 436.121094 329.398438 474.292969 323.472656 C 474.292969 367.132812 474.292969 410.789062 474.292969 454.449219 C 327.441406 475.617188 180.589844 475.617188 33.738281 454.449219 C 33.738281 410.789062 33.738281 367.132812 33.738281 323.472656 C 69.234375 329.964844 104.957031 333.273438 140.898438 333.394531 C 106.5 328.003906 72.101562 322.050781 37.707031 315.535156 C 32.414062 274.523438 32.414062 233.507812 37.707031 192.496094 C 69.785156 186.035156 101.535156 180.742188 132.960938 176.621094 Z M 132.960938 176.621094 "/>
</g>
<mask id="mask5">
  <g filter="url(#alpha)">
<rect x="0" y="0" width="512" height="512" style="fill:rgb(0%,0%,0%);fill-opacity:0.937255;stroke:none;"/>
  </g>
</mask>
<clipPath id="clip6">
  <rect x="0" y="0" width="512" height="512"/>
</clipPath>
<g id="surface20" clip-path="url(#clip6)">
<path style=" stroke:none;fill-rule:evenodd;fill:rgb(49.019608%,74.117647%,30.980392%);fill-opacity:1;" d="M 367.132812 176.621094 C 403.03125 180.425781 438.753906 185.71875 474.292969 192.496094 C 474.292969 233.507812 474.292969 274.523438 474.292969 315.535156 C 440.039062 321.941406 405.640625 327.230469 371.101562 331.410156 C 369.777344 329.425781 368.453125 327.441406 367.132812 325.457031 C 393.347656 276 393.347656 226.386719 367.132812 176.621094 Z M 367.132812 176.621094 "/>
</g>
</defs>
<g id="surface1">
<use xlink:href="#surface5" mask="url(#mask0)"/>
<use xlink:href="#surface8" mask="url(#mask1)"/>
<use xlink:href="#surface11" mask="url(#mask2)"/>
<use xlink:href="#surface14" mask="url(#mask3)"/>
<use xlink:href="#surface17" mask="url(#mask4)"/>
<use xlink:href="#surface20" mask="url(#mask5)"/>
</g>
</svg>
