<?xml version="1.0" encoding="UTF-8"?>
<svg xmlns="http://www.w3.org/2000/svg" xmlns:xlink="http://www.w3.org/1999/xlink" width="512px" height="512px" viewBox="0 0 512 528" version="1.1">
<g id="surface1">
<path style=" stroke:none;fill-rule:nonzero;fill:rgb(42.745098%,70.196078%,24.705882%);fill-opacity:1;" d="M 449.746094 73.304688 C 438.242188 73.304688 428.425781 78.710938 421.996094 87.15625 L 283.582031 4.054688 L 283.242188 4.054688 L 276.472656 0 L 269.707031 4.054688 L 269.367188 4.054688 L 131.628906 87.15625 C 125.199219 78.710938 115.386719 73.304688 103.878906 73.304688 C 84.925781 73.304688 69.359375 88.84375 69.359375 107.761719 C 69.359375 127.015625 84.925781 142.21875 103.878906 142.21875 C 122.832031 142.21875 138.398438 127.015625 138.398438 108.101562 C 138.398438 102.695312 137.042969 97.964844 135.015625 93.234375 L 269.707031 12.160156 L 269.707031 73.980469 C 253.800781 77.359375 241.957031 91.210938 241.957031 107.761719 C 241.957031 124.316406 253.800781 138.503906 269.707031 141.542969 L 269.707031 246.601562 C 253.800781 249.644531 241.957031 263.832031 241.957031 280.382812 C 241.957031 287.476562 243.984375 293.894531 247.707031 299.300781 L 188.144531 358.417969 C 182.730469 354.703125 175.964844 352.335938 168.855469 352.335938 C 149.90625 352.335938 134.335938 367.878906 134.335938 386.792969 C 134.335938 393.890625 136.367188 400.308594 140.089844 406.050781 L 81.542969 464.152344 C 76.128906 460.4375 69.699219 458.410156 62.59375 458.410156 C 43.640625 458.410156 28.074219 473.949219 28.074219 492.867188 C 28.074219 511.785156 43.640625 527.324219 62.59375 527.324219 C 81.542969 527.324219 97.109375 511.785156 97.109375 492.867188 C 97.109375 485.773438 95.082031 479.355469 91.359375 473.613281 L 150.242188 416.183594 C 155.65625 419.898438 162.085938 421.925781 169.195312 421.925781 C 188.144531 421.925781 203.714844 406.386719 203.714844 387.46875 C 203.714844 380.375 201.683594 374.296875 197.960938 368.554688 L 257.523438 309.4375 C 262.9375 313.152344 269.707031 315.179688 276.8125 315.179688 C 285.273438 315.179688 292.71875 312.136719 298.808594 307.410156 L 357.695312 366.1875 C 352.957031 371.929688 350.25 379.363281 350.25 387.46875 C 350.25 406.386719 365.816406 421.925781 384.769531 421.925781 C 403.722656 421.925781 419.289062 406.386719 419.289062 387.46875 C 419.289062 368.554688 403.722656 353.011719 384.769531 353.011719 C 376.308594 353.011719 368.523438 356.054688 362.433594 361.121094 L 303.546875 302.339844 C 308.285156 296.261719 311.332031 288.828125 311.332031 280.382812 C 311.332031 263.832031 299.488281 249.644531 283.582031 246.601562 L 283.582031 141.542969 C 299.488281 138.164062 311.332031 124.316406 311.332031 107.761719 C 311.332031 91.210938 299.488281 77.019531 283.582031 73.980469 L 283.582031 12.160156 L 418.273438 93.234375 C 416.242188 97.628906 414.890625 102.695312 414.890625 107.761719 C 414.890625 126.679688 430.457031 142.21875 449.40625 142.21875 C 468.359375 142.21875 483.925781 126.679688 483.925781 107.761719 C 484.265625 88.84375 468.699219 73.304688 449.746094 73.304688 Z M 103.878906 132.085938 C 90.679688 132.085938 79.511719 121.273438 79.511719 108.101562 C 79.511719 94.925781 90.34375 84.113281 103.878906 84.113281 C 117.078125 84.113281 127.90625 94.925781 127.90625 108.101562 C 128.246094 121.273438 117.417969 132.085938 103.878906 132.085938 Z M 384.769531 363.148438 C 397.96875 363.148438 409.136719 373.957031 409.136719 387.46875 C 409.136719 400.644531 398.304688 411.792969 384.769531 411.792969 C 371.234375 411.792969 360.402344 400.984375 360.402344 387.46875 C 360.402344 373.957031 371.234375 363.148438 384.769531 363.148438 Z M 449.746094 132.085938 C 436.546875 132.085938 425.378906 121.273438 425.378906 108.101562 C 425.378906 94.925781 436.210938 84.113281 449.746094 84.113281 C 462.945312 84.113281 473.773438 94.925781 473.773438 108.101562 C 473.773438 121.273438 462.945312 132.085938 449.746094 132.085938 Z M 449.746094 132.085938 "/>
</g>
</svg>
