<?xml version="1.0" encoding="UTF-8"?>
<svg xmlns="http://www.w3.org/2000/svg" xmlns:xlink="http://www.w3.org/1999/xlink" width="512px" height="512px" viewBox="0 0 512 374" version="1.1">
<defs>
<filter id="alpha" filterUnits="objectBoundingBox" x="0%" y="0%" width="100%" height="100%">
  <feColorMatrix type="matrix" in="SourceGraphic" values="0 0 0 0 1 0 0 0 0 1 0 0 0 0 1 0 0 0 1 0"/>
</filter>
<mask id="mask0">
  <g filter="url(#alpha)">
<rect x="0" y="0" width="512" height="374" style="fill:rgb(0%,0%,0%);fill-opacity:0.980392;stroke:none;"/>
  </g>
</mask>
<clipPath id="clip1">
  <rect x="0" y="0" width="512" height="374"/>
</clipPath>
<g id="surface5" clip-path="url(#clip1)">
<path style=" stroke:none;fill-rule:evenodd;fill:rgb(42.352941%,70.196078%,24.313725%);fill-opacity:1;" d="M 253.121094 18.21875 C 254.925781 18.058594 256.632812 18.378906 258.238281 19.179688 C 314.132812 51.359375 370.027344 83.539062 425.921875 115.714844 C 427.132812 116.40625 427.34375 117.257812 426.558594 118.273438 C 349.304688 163.679688 271.867188 208.75 194.238281 253.488281 C 137.183594 220.835938 80.4375 187.699219 24 154.074219 C 24.164062 153.269531 24.59375 152.628906 25.28125 152.15625 C 101.5 107.855469 177.449219 63.207031 253.121094 18.21875 Z M 247.359375 50.1875 C 253.53125 52.824219 259.507812 55.914062 265.28125 59.457031 C 301.546875 80.554688 337.8125 101.652344 374.078125 122.75 C 370.1875 124.746094 366.453125 126.984375 362.878906 129.460938 C 320.90625 105.25 278.988281 80.953125 237.121094 56.578125 C 240.574219 54.433594 243.988281 52.300781 247.359375 50.1875 Z M 210.238281 71.285156 C 240.808594 87.9375 271.101562 105.09375 301.121094 122.75 C 297.226562 124.746094 293.496094 126.984375 289.921875 129.460938 C 259.890625 112.0625 229.703125 94.910156 199.359375 77.996094 C 203.027344 75.742188 206.652344 73.503906 210.238281 71.285156 Z M 171.199219 92.382812 C 206.683594 112.34375 242.097656 132.480469 277.441406 152.796875 C 278.5625 153.257812 279.097656 154.003906 279.039062 155.035156 C 275.945312 156.84375 272.851562 158.65625 269.761719 160.46875 C 268.90625 160.894531 268.054688 160.894531 267.199219 160.46875 C 231.46875 140.171875 195.84375 119.714844 160.320312 99.09375 C 164.203125 97.160156 167.828125 94.921875 171.199219 92.382812 Z M 171.199219 92.382812 "/>
</g>
<mask id="mask1">
  <g filter="url(#alpha)">
<rect x="0" y="0" width="512" height="374" style="fill:rgb(0%,0%,0%);fill-opacity:0.921569;stroke:none;"/>
  </g>
</mask>
<clipPath id="clip2">
  <rect x="0" y="0" width="512" height="374"/>
</clipPath>
<g id="surface8" clip-path="url(#clip2)">
<path style=" stroke:none;fill-rule:evenodd;fill:rgb(42.352941%,70.196078%,24.313725%);fill-opacity:1;" d="M 390.71875 147.363281 C 392.097656 147.28125 393.378906 147.601562 394.558594 148.320312 C 395.527344 150.140625 396.914062 151.527344 398.71875 152.476562 C 401.59375 151.867188 404.476562 151.757812 407.359375 152.15625 C 411.570312 146.617188 415.730469 146.726562 419.839844 152.476562 C 420.265625 153.328125 420.265625 154.183594 419.839844 155.035156 C 418.800781 156.578125 417.839844 158.175781 416.960938 159.828125 C 418.359375 162.542969 419.320312 165.417969 419.839844 168.460938 C 421.761719 169.527344 423.679688 170.589844 425.601562 171.65625 C 426.445312 175.003906 425.699219 178.09375 423.359375 180.925781 C 420.582031 180.984375 417.808594 180.984375 415.039062 180.925781 C 413.347656 182.625 411.425781 184.011719 409.28125 185.082031 C 408.25 186.820312 407.714844 188.738281 407.679688 190.835938 C 407.382812 191.75 406.847656 192.496094 406.078125 193.074219 C 403.226562 193.628906 400.453125 193.414062 397.761719 192.433594 C 396.90625 189.875 396.054688 187.320312 395.199219 184.761719 C 392.933594 183.734375 391.011719 182.242188 389.441406 180.289062 C 386.679688 180.445312 383.90625 180.445312 381.121094 180.289062 C 376.589844 174.21875 377.871094 170.0625 384.960938 167.820312 C 385.589844 164.976562 386.65625 162.3125 388.160156 159.828125 C 386.847656 157.738281 385.78125 155.5 384.960938 153.117188 C 385.28125 152.476562 385.601562 151.835938 385.921875 151.199219 C 387.640625 150.007812 389.242188 148.726562 390.71875 147.363281 Z M 402.238281 161.425781 C 409.480469 163.105469 411.613281 167.367188 408.640625 174.214844 C 404.488281 178.417969 400.328125 178.417969 396.160156 174.214844 C 393.238281 167.492188 395.265625 163.230469 402.238281 161.425781 Z M 402.238281 161.425781 "/>
</g>
<mask id="mask2">
  <g filter="url(#alpha)">
<rect x="0" y="0" width="512" height="374" style="fill:rgb(0%,0%,0%);fill-opacity:0.94902;stroke:none;"/>
  </g>
</mask>
<clipPath id="clip3">
  <rect x="0" y="0" width="512" height="374"/>
</clipPath>
<g id="surface11" clip-path="url(#clip3)">
<path style=" stroke:none;fill-rule:evenodd;fill:rgb(42.352941%,70.196078%,24.313725%);fill-opacity:1;" d="M 450.238281 168.460938 C 453.527344 167.773438 455.980469 168.839844 457.601562 171.65625 C 458.15625 174.65625 458.796875 177.640625 459.519531 180.605469 C 463.710938 182.113281 467.441406 184.351562 470.71875 187.320312 C 474.089844 187.339844 477.394531 186.804688 480.640625 185.722656 C 481.898438 185.75 483.074219 186.066406 484.160156 186.679688 C 486 190.148438 487.496094 193.769531 488.640625 197.546875 C 488.363281 199.03125 487.722656 200.308594 486.71875 201.382812 C 483.789062 202.582031 481.121094 204.179688 478.71875 206.179688 C 478.433594 210.808594 477.261719 215.175781 475.199219 219.285156 C 477.445312 222.28125 479.367188 225.476562 480.960938 228.875 C 480.683594 231.070312 479.617188 232.773438 477.761719 233.988281 C 475.839844 235.480469 473.921875 236.972656 472 238.464844 C 470.71875 238.890625 469.441406 238.890625 468.160156 238.464844 C 465.480469 236.105469 462.707031 233.867188 459.839844 231.753906 C 455.4375 232.789062 450.960938 233.320312 446.398438 233.351562 C 444.289062 236.097656 441.941406 238.65625 439.359375 241.023438 C 437.257812 241.496094 435.339844 241.070312 433.601562 239.742188 C 431.304688 238.222656 429.0625 236.625 426.878906 234.949219 C 426.898438 230.628906 428.070312 226.578125 430.398438 222.800781 C 427.710938 218.921875 425.898438 214.660156 424.960938 210.015625 C 422.140625 208.722656 419.261719 207.550781 416.320312 206.5 C 414.9375 205.449219 414.082031 204.0625 413.761719 202.34375 C 414.605469 198.421875 415.886719 194.691406 417.601562 191.15625 C 418.6875 190.542969 419.859375 190.222656 421.121094 190.195312 C 424.199219 190.804688 427.292969 190.914062 430.398438 190.515625 C 433.023438 187.335938 436.117188 184.671875 439.679688 182.523438 C 440.351562 178.707031 440.992188 174.871094 441.601562 171.015625 C 442.179688 170.25 442.925781 169.714844 443.839844 169.417969 C 446.097656 169.304688 448.230469 168.984375 450.238281 168.460938 Z M 450.238281 195.3125 C 458.023438 195.140625 462.5 198.871094 463.679688 206.5 C 461.414062 216.792969 455.441406 219.988281 445.761719 216.089844 C 439.972656 210.988281 439.332031 205.339844 443.839844 199.148438 C 445.851562 197.511719 447.984375 196.230469 450.238281 195.3125 Z M 450.238281 195.3125 "/>
</g>
<mask id="mask3">
  <g filter="url(#alpha)">
<rect x="0" y="0" width="512" height="374" style="fill:rgb(0%,0%,0%);fill-opacity:0.960784;stroke:none;"/>
  </g>
</mask>
<clipPath id="clip4">
  <rect x="0" y="0" width="512" height="374"/>
</clipPath>
<g id="surface14" clip-path="url(#clip4)">
<path style=" stroke:none;fill-rule:evenodd;fill:rgb(42.352941%,70.196078%,24.313725%);fill-opacity:1;" d="M 45.121094 188.277344 C 47.289062 189.039062 49.421875 190 51.519531 191.15625 C 99.4375 219.09375 147.4375 246.902344 195.519531 274.585938 C 227.199219 256.3125 258.773438 237.878906 290.238281 219.285156 C 293.035156 217.441406 296.023438 216.054688 299.199219 215.128906 C 296.324219 224.273438 294.722656 233.652344 294.398438 243.261719 C 261.464844 263.066406 228.292969 282.457031 194.878906 301.4375 C 138.160156 269.058594 81.628906 236.347656 25.28125 203.300781 C 23.574219 202.238281 23.574219 201.171875 25.28125 200.105469 C 31.933594 196.148438 38.546875 192.203125 45.121094 188.277344 Z M 45.121094 188.277344 "/>
</g>
<mask id="mask4">
  <g filter="url(#alpha)">
<rect x="0" y="0" width="512" height="374" style="fill:rgb(0%,0%,0%);fill-opacity:0.968627;stroke:none;"/>
  </g>
</mask>
<clipPath id="clip5">
  <rect x="0" y="0" width="512" height="374"/>
</clipPath>
<g id="surface17" clip-path="url(#clip5)">
<path style=" stroke:none;fill-rule:evenodd;fill:rgb(42.352941%,70.196078%,24.313725%);fill-opacity:1;" d="M 345.921875 188.277344 C 347.726562 188.117188 349.429688 188.4375 351.039062 189.238281 C 352.777344 191.746094 354.269531 194.410156 355.519531 197.230469 C 356.160156 197.441406 356.800781 197.65625 357.441406 197.867188 C 361.945312 197.34375 366.425781 197.128906 370.878906 197.230469 C 372.402344 194.078125 374.324219 191.199219 376.640625 188.597656 C 381.824219 188.507812 386.515625 190 390.71875 193.074219 C 391.902344 194.722656 392.222656 196.535156 391.679688 198.507812 C 390.925781 200.761719 390.179688 203 389.441406 205.21875 C 392.851562 208.628906 396.265625 212.039062 399.679688 215.449219 C 403.628906 214.355469 407.683594 213.929688 411.839844 214.171875 C 414.621094 218.023438 416.542969 222.285156 417.601562 226.957031 C 417.320312 228.4375 416.683594 229.714844 415.679688 230.792969 C 413.070312 231.9375 410.617188 233.320312 408.320312 234.949219 C 407.894531 239.851562 407.894531 244.75 408.320312 249.652344 C 410.617188 251.28125 413.070312 252.667969 415.679688 253.808594 C 416.683594 254.886719 417.320312 256.164062 417.601562 257.644531 C 416.542969 262.308594 414.621094 266.570312 411.839844 270.429688 C 407.683594 270.671875 403.628906 270.246094 399.679688 269.152344 C 396.265625 272.5625 392.851562 275.972656 389.441406 279.382812 C 390.484375 282.1875 391.335938 285.066406 392 288.011719 C 391.949219 289.160156 391.628906 290.226562 391.039062 291.207031 C 386.730469 294.347656 381.929688 295.945312 376.640625 296.003906 C 374.265625 293.503906 372.453125 290.625 371.199219 287.371094 C 370.628906 287 369.988281 286.789062 369.28125 286.734375 C 364.671875 287.25 360.082031 287.464844 355.519531 287.371094 C 354.296875 290.792969 352.378906 293.667969 349.761719 296.003906 C 344.492188 295.953125 339.691406 294.355469 335.359375 291.207031 C 334.976562 290.160156 334.65625 289.097656 334.398438 288.011719 C 335.460938 284.835938 336.210938 281.640625 336.640625 278.421875 C 333.121094 275.757812 330.027344 272.667969 327.359375 269.152344 C 323.171875 270.113281 318.90625 270.539062 314.558594 270.429688 C 311.195312 265.953125 309.59375 260.945312 309.761719 255.40625 C 310 254.820312 310.320312 254.289062 310.71875 253.808594 C 313.066406 252.636719 315.414062 251.464844 317.761719 250.292969 C 318.613281 244.964844 318.613281 239.636719 317.761719 234.308594 C 313.742188 233.167969 310.753906 230.824219 308.800781 227.277344 C 309.792969 222.484375 311.714844 218.117188 314.558594 214.171875 C 318.4375 213.628906 322.171875 214.164062 325.761719 215.769531 C 329.363281 212.597656 332.992188 209.402344 336.640625 206.179688 C 336.113281 202.988281 335.367188 199.789062 334.398438 196.589844 C 334.65625 195.503906 334.976562 194.441406 335.359375 193.394531 C 338.8125 191.402344 342.332031 189.699219 345.921875 188.277344 Z M 363.839844 225.359375 C 378.1875 227.859375 383.625 236.171875 380.160156 250.292969 C 375.261719 259.074219 367.902344 262.164062 358.078125 259.5625 C 348.640625 255.089844 345.121094 247.738281 347.519531 237.507812 C 350.644531 230.253906 356.085938 226.207031 363.839844 225.359375 Z M 363.839844 225.359375 "/>
</g>
<mask id="mask5">
  <g filter="url(#alpha)">
<rect x="0" y="0" width="512" height="374" style="fill:rgb(0%,0%,0%);fill-opacity:0.960784;stroke:none;"/>
  </g>
</mask>
<clipPath id="clip6">
  <rect x="0" y="0" width="512" height="374"/>
</clipPath>
<g id="surface20" clip-path="url(#clip6)">
<path style=" stroke:none;fill-rule:evenodd;fill:rgb(42.352941%,70.196078%,24.313725%);fill-opacity:1;" d="M 45.121094 236.226562 C 48.882812 237.679688 52.511719 239.492188 56 241.660156 C 102.027344 268.859375 148.214844 295.820312 194.558594 322.535156 C 227.894531 302.957031 261.28125 283.457031 294.71875 264.039062 C 295.644531 263.539062 296.496094 263.644531 297.28125 264.355469 C 299.8125 271.21875 303.015625 277.71875 306.878906 283.855469 C 269.941406 306.355469 232.609375 328.199219 194.878906 349.386719 C 137.507812 316.894531 80.546875 283.757812 24 249.972656 C 24.164062 249.167969 24.59375 248.527344 25.28125 248.054688 C 32.144531 244.417969 38.757812 240.476562 45.121094 236.226562 Z M 45.121094 236.226562 "/>
</g>
</defs>
<g id="surface1">
<use xlink:href="#surface5" mask="url(#mask0)"/>
<use xlink:href="#surface8" mask="url(#mask1)"/>
<use xlink:href="#surface11" mask="url(#mask2)"/>
<use xlink:href="#surface14" mask="url(#mask3)"/>
<use xlink:href="#surface17" mask="url(#mask4)"/>
<use xlink:href="#surface20" mask="url(#mask5)"/>
</g>
</svg>
