<?xml version="1.0" encoding="UTF-8"?>
<svg xmlns="http://www.w3.org/2000/svg" xmlns:xlink="http://www.w3.org/1999/xlink" width="512px" height="512px" viewBox="0 0 512 638" version="1.1">
<g id="surface1">
<path style=" stroke:none;fill-rule:nonzero;fill:rgb(42.745098%,70.196078%,24.705882%);fill-opacity:1;" d="M 255.519531 444.898438 C 129.503906 444.898438 74.617188 434.542969 0.210938 417.234375 L 0.210938 609.546875 L 3.710938 610.421875 C 75.492188 627.902344 129.769531 638.042969 255.519531 638.042969 C 381.269531 638.042969 436.507812 627.640625 508.246094 610.203125 L 511.789062 609.328125 L 511.789062 417.015625 C 437.601562 434.453125 382.1875 444.898438 255.519531 444.898438 Z M 255.519531 444.898438 "/>
<path style=" stroke:none;fill-rule:nonzero;fill:rgb(42.745098%,70.196078%,24.705882%);fill-opacity:1;" d="M 255.519531 0 C 129.769531 0 75.492188 10.316406 3.710938 27.625 L 0.210938 28.496094 L 0.210938 231.648438 C 74.617188 214.167969 129.503906 203.984375 255.519531 203.984375 C 381.53125 203.984375 437.601562 214.429688 511.789062 231.914062 L 511.789062 28.714844 L 508.246094 27.839844 C 436.507812 10.402344 381.925781 0 255.519531 0 Z M 255.519531 0 "/>
<path style=" stroke:none;fill-rule:nonzero;fill:rgb(42.745098%,70.196078%,24.705882%);fill-opacity:1;" d="M 511.789062 242.925781 L 508.246094 242.054688 C 436.507812 224.613281 381.925781 214.167969 255.519531 214.167969 C 129.113281 214.167969 75.492188 224.527344 3.710938 241.789062 L 0.210938 242.664062 L 0.210938 406.21875 L 3.710938 407.050781 C 75.492188 424.53125 129.769531 434.714844 255.519531 434.714844 C 381.269531 434.714844 436.507812 424.269531 508.246094 406.832031 L 511.789062 405.957031 Z M 511.789062 242.925781 "/>
</g>
</svg>
