<?xml version="1.0" encoding="UTF-8"?>
<svg xmlns="http://www.w3.org/2000/svg" xmlns:xlink="http://www.w3.org/1999/xlink" width="512px" height="512px" viewBox="0 0 512 528" version="1.1">
<g id="surface1">
<path style=" stroke:none;fill-rule:nonzero;fill:rgb(42.745098%,70.196078%,24.705882%);fill-opacity:1;" d="M 26.042969 372.605469 L 223.003906 372.605469 C 236.539062 372.605469 247.707031 361.457031 247.707031 347.945312 L 247.707031 300.652344 L 198.300781 300.652344 L 198.300781 323.625 L 50.746094 323.625 L 50.746094 195.59375 L 198.300781 195.59375 L 198.300781 218.5625 L 247.371094 218.5625 L 247.371094 170.933594 C 247.371094 157.421875 236.203125 146.273438 222.664062 146.273438 L 26.042969 146.273438 C 12.503906 146.273438 1.335938 157.421875 1.335938 170.933594 L 1.335938 347.945312 C 1.335938 361.796875 12.503906 372.605469 26.042969 372.605469 Z M 26.042969 372.605469 "/>
<path style=" stroke:none;fill-rule:nonzero;fill:rgb(42.745098%,70.196078%,24.705882%);fill-opacity:1;" d="M 485.28125 146.609375 L 288.320312 146.609375 C 274.78125 146.609375 263.613281 157.757812 263.613281 171.269531 L 263.613281 218.902344 L 313.023438 218.902344 L 313.023438 195.929688 L 460.914062 195.929688 L 460.914062 323.960938 L 313.023438 323.960938 L 313.023438 300.652344 L 263.953125 300.652344 L 263.953125 348.285156 C 263.953125 361.796875 275.121094 372.945312 288.65625 372.945312 L 485.28125 372.945312 C 498.816406 372.945312 509.984375 361.796875 509.984375 348.285156 L 509.984375 170.933594 C 509.984375 157.421875 498.816406 146.609375 485.28125 146.609375 Z M 485.28125 146.609375 "/>
<path style=" stroke:none;fill-rule:nonzero;fill:rgb(42.745098%,70.196078%,24.705882%);fill-opacity:1;" d="M 329.605469 412.128906 L 181.378906 412.128906 L 181.378906 389.160156 L 132.308594 389.160156 L 132.308594 436.789062 C 132.308594 450.304688 143.476562 461.449219 157.011719 461.449219 L 354.3125 461.449219 C 367.847656 461.449219 379.015625 450.304688 379.015625 436.789062 L 379.015625 389.160156 L 329.605469 389.160156 Z M 329.605469 412.128906 "/>
<path style=" stroke:none;fill-rule:nonzero;fill:rgb(42.745098%,70.196078%,24.705882%);fill-opacity:1;" d="M 181.378906 107.085938 L 329.605469 107.085938 L 329.605469 130.058594 L 379.015625 130.058594 L 379.015625 82.425781 C 379.015625 68.914062 367.847656 57.765625 354.3125 57.765625 L 157.011719 57.765625 C 143.476562 57.765625 132.308594 68.914062 132.308594 82.425781 L 132.308594 130.058594 L 181.378906 130.058594 Z M 181.378906 107.085938 "/>
<path style=" stroke:none;fill-rule:nonzero;fill:rgb(42.745098%,70.196078%,24.705882%);fill-opacity:1;" d="M 354.3125 235.117188 L 157.011719 235.117188 C 143.476562 235.117188 132.308594 246.265625 132.308594 259.777344 C 132.308594 273.289062 143.476562 284.4375 157.011719 284.4375 L 354.3125 284.4375 C 367.847656 284.4375 379.015625 273.289062 379.015625 259.777344 C 379.015625 246.265625 367.847656 235.117188 354.3125 235.117188 Z M 354.3125 235.117188 "/>
</g>
</svg>
