<?xml version="1.0" encoding="UTF-8"?>
<!DOCTYPE svg PUBLIC "-//W3C//DTD SVG 1.1//EN" "http://www.w3.org/Graphics/SVG/1.1/DTD/svg11.dtd">
<svg xmlns="http://www.w3.org/2000/svg" version="1.1" width="512px" height="512px" style="shape-rendering:geometricPrecision; text-rendering:geometricPrecision; image-rendering:optimizeQuality; fill-rule:evenodd; clip-rule:evenodd" xmlns:xlink="http://www.w3.org/1999/xlink">
<g><path style="opacity:1" fill="#0077d4" d="M 242.5,19.5 C 242.5,93.8333 242.5,168.167 242.5,242.5C 168.167,242.5 93.8333,242.5 19.5,242.5C 19.5,168.167 19.5,93.8333 19.5,19.5C 93.8333,19.5 168.167,19.5 242.5,19.5 Z"/></g>
<g><path style="opacity:1" fill="#0077d3" d="M 267.5,19.5 C 341.833,19.5 416.167,19.5 490.5,19.5C 490.5,94.1667 490.5,168.833 490.5,243.5C 416.167,243.5 341.833,243.5 267.5,243.5C 267.5,168.833 267.5,94.1667 267.5,19.5 Z"/></g>
<g><path style="opacity:0.541" fill="#004174" d="M 242.5,19.5 C 243.499,93.9981 243.833,168.665 243.5,243.5C 168.665,243.833 93.9981,243.499 19.5,242.5C 93.8333,242.5 168.167,242.5 242.5,242.5C 242.5,168.167 242.5,93.8333 242.5,19.5 Z"/></g>
<g><path style="opacity:1" fill="#0077d3" d="M 19.5,267.5 C 94.1667,267.5 168.833,267.5 243.5,267.5C 243.5,341.833 243.5,416.167 243.5,490.5C 168.833,490.5 94.1667,490.5 19.5,490.5C 19.5,416.167 19.5,341.833 19.5,267.5 Z"/></g>
<g><path style="opacity:0.918" fill="#006cc2" d="M 490.5,268.5 C 416.5,268.5 342.5,268.5 268.5,268.5C 268.5,342.5 268.5,416.5 268.5,490.5C 267.501,416.335 267.167,342.002 267.5,267.5C 342.002,267.167 416.335,267.501 490.5,268.5 Z"/></g>
<g><path style="opacity:1" fill="#0077d4" d="M 490.5,268.5 C 490.5,342.5 490.5,416.5 490.5,490.5C 416.5,490.5 342.5,490.5 268.5,490.5C 268.5,416.5 268.5,342.5 268.5,268.5C 342.5,268.5 416.5,268.5 490.5,268.5 Z"/></g>
</svg>
